<?xml version="1.0" encoding="utf-8"?>
<!-- Generator: Adobe Illustrator 23.0.2, SVG Export Plug-In . SVG Version: 6.00 Build 0)  -->
<svg version="1.1" id="Camada_1" xmlns="http://www.w3.org/2000/svg" xmlns:xlink="http://www.w3.org/1999/xlink" x="0px" y="0px"
	 viewBox="0 0 1440 129.88" style="enable-background:new 0 0 1440 129.88;" xml:space="preserve">
<style type="text/css">
	.st0{fill:#161615;}
</style>
<g id="BG_Rodapé" transform="translate(13.547 -9493.994)">
	<g id="Cities_Silhueta_Rodape" transform="translate(-3646.666 9654.733)">
		<path id="Caminho_6943" class="st0" d="M4467.64-31.01l-7.44-25.87c-0.08,0.15-0.15,0.3-0.23,0.44c-1.57-2.44-3.26-4.8-5.07-7.08
			c-0.26-0.33-0.7-0.85-1-1.16c-1.45-1.7-2.73-3.54-3.82-5.49c-0.19-0.34-0.41-0.66-0.67-0.95c-2.89-3.22-10.94-5.67-10.94-5.67
			c-1.33-0.58-2.56-1.39-3.62-2.39c-0.91-0.81-1.76-1.68-2.54-2.61c-3.65-4.24-10.92-8.57-10.92-8.57
			c-0.52-0.21-0.99-0.53-1.37-0.95c-0.47-0.52-0.83-1.14-1.05-1.81c-0.27-0.83-0.71-1.59-1.28-2.25c-0.23-0.28-0.48-0.52-0.77-0.74
			c-1.23-0.85-4.48-0.87-7.03-0.73c-2.33-0.22-4.68-0.52-7.03-0.9c-0.16-0.08-0.28-0.14-0.28-0.14c-0.86-0.43-1.85-0.57-2.79-0.39
			c-17.8-3.29-35.81-10.36-50.34-17.23c-0.11-0.05-0.21-0.1-0.31-0.15c-11.08-5.25-20.12-10.36-25.45-13.52c-0.48-0.57-0.8-1-0.8-1
			c-0.41-0.57-0.93-1.05-1.53-1.41c-0.09-0.06-0.17-0.11-0.26-0.16l-0.04-0.02c-0.77-0.43-1.65-0.63-2.54-0.57l-0.09-0.06
			l-0.05,0.07c-0.12,0.01-0.2,0.03-0.2,0.03c-3.97,0.55-6.08,2.06-7.28,3.5c-0.44,0.56-0.82,1.16-1.13,1.8
			c-0.88,1.27-1.99,2.37-3.27,3.24c-1.12,0.78-3.08,3.89-4.39,6.12c-0.66,1.14-1.44,2.21-2.33,3.19c-0.07,0.08-0.14,0.15-0.21,0.23
			c-0.59,0.71-1.05,1.52-1.35,2.39c-1.35,3.88-7.12,13.4-7.12,13.4c-2,2.77-5.03,16.39-5.03,16.39c-0.21,0.8-0.7,1.49-1.37,1.97
			c-1.31,1.03-2.9,1.64-4.57,1.73c-5.46,0.45-10.81,1.79-15.85,3.95c-0.72,0.32-1.42,0.68-2.11,1.08c-3.18,1.78-9.93,2.64-12.4,2.9
			c-0.55,0.06-1.09,0.15-1.63,0.25c-3.49,0.65-9.61-0.24-9.61-0.24c-1.87-0.22-3.77-0.03-5.56,0.55c-0.72,0.21-1.46,0.35-2.21,0.43
			c-1.82,0.33-3.45,1.31-4.62,2.74c-0.93,1.39-4.58,2.77-4.58,2.77c-1.88,0.71-3.43,2.09-4.37,3.87c-0.57,1.02-3.04,2.52-3.04,2.52
			c-1.98,1.12-3,4.07-3.46,5.83c-3.94-6.27-8.34-12.23-13.16-17.85c-6.01-7.05-11.62-12.27-22.79-14.3l0.05-3.39l-0.83-1.39
			l-0.7-0.97l-2.64-0.83c0,0,0.14-10.98,0.56-12.79s0.69-3.61,0.97-4.73s-0.42-9.59-0.56-12.37s0.28-4.31,1.39-4.45
			c2.54-0.43,5.04-1.04,7.5-1.81c1.95-0.7,1.53-2.92,1.95-2.92s2.64-0.83,4.03-1.25c1.39-0.42,3.33-0.42,4.58-0.97
			s-0.14-1.39-0.83-2.08c-0.69-0.7-1.25-0.14-3.06,0c-1.81,0.14-1.81,1.25-4.86,1.53c-3.06,0.28-8.34,0.14-10.29-1.11
			c-1.1-0.73-2.32-1.25-3.61-1.53c0,0,0-1.81-0.14-3.2c-0.14-1.39,0.83-3.75-2.22-3.89c-3.06-0.14-3.06,6.81-3.48,7.37
			s-2.78,0.42-4.45,0.42c-1.51,0.01-2.99,0.39-4.31,1.11c-1.95,0.83-6.53,0.14-7.5,0.14s-1.94-0.97-2.5-1.25
			c-0.56-0.28-2.22,0.28-2.22,0.28s-2.36,0.14-3.06,1.25c-0.7,1.11,4.17,0.83,6.95,0.97c2.78,0.14,2.78,5.28,3.61,5.56
			s2.92-0.83,5.28-0.69s1.67,0.56,3.33,0.56s-0.14,4.86,0,7.37s1.25,3.06,1.25,3.06l-0.42,25.43l-2.22,0.28l-0.14,1.53l-1.39,0.69
			v3.61c-24.12,1.03-35.55,24.98-40.38,40.1v-11.25l0.43-1.65v-3.12l-0.69-0.35v-8.59c0,0,0.52-2.52,0.87-2.69
			c0.35-0.17,0.26-0.78,0.26-0.78h-0.87l0.43-2.08v-2l1.21-0.87v-0.78l0.78-1.13h-2.95c0.48-0.83,0.81-1.74,0.95-2.69
			c-0.09-0.78-2.34-1.47-2.34-1.47c0.27-0.57,0.42-1.19,0.44-1.82c-0.03-0.38-0.19-0.75-0.44-1.04c0,0-0.61-4.43-1.56-6.25
			c0.26-0.26,0.5-0.55,0.69-0.87c0.4-0.56,0.46-1.29,0.17-1.91c-0.36-1.07-0.63-2.18-0.78-3.3c0,0-0.61-0.26-0.69,0.69
			c-0.09,0.58-0.55,1.04-1.13,1.13h-0.35c0,0-1.04-1.04-2-1.82s-2.43-1.74-2.43-1.74s0.26-0.61,0.09-0.87
			c-0.31-0.26-0.66-0.47-1.04-0.61l0.26-0.96c0,0,0.43-1.04,0.17-1.47c-0.2-0.31-0.43-0.6-0.69-0.87c0.66-0.38,1.09-1.06,1.13-1.82
			c0.15-1.11-0.62-2.14-1.73-2.29c-0.12-0.02-0.23-0.02-0.35-0.02c-1.1-0.08-2.06,0.75-2.14,1.85c-0.01,0.1-0.01,0.19,0,0.29
			c0,0,0.17,1.62,1.21,2.03c-0.38,0.11-0.72,0.33-0.98,0.64c-0.23,0.4,0.81,2.6,0.81,2.6c-0.58,0.2-1.13,0.49-1.62,0.87
			c-0.23,0.35,0.29,0.98,0.29,0.98s-0.69,0.46-1.1,0.69c-0.42,0.28-0.83,0.59-1.21,0.93c-0.31-0.2-0.67-0.31-1.04-0.35
			c-0.35,0.06-0.81,0.46-0.69,0.81c0.03,0.6-0.01,1.2-0.12,1.79c0,0-0.35-0.64-0.58-0.64s-0.17-0.58-0.12-0.92s-0.06-0.69-0.4-0.69
			c-0.42,0.03-0.75,0.39-0.75,0.81c0.09,0.35-0.07,0.71-0.4,0.87c-0.35,0.17-1.74-0.23-1.27,0.35c0.36,0.47,0.58,1.03,0.64,1.62
			c0,0.57-0.07,1.13-0.23,1.68c-0.1,0.24-0.12,0.5-0.06,0.75l-1.16,0.93l-1.5-0.58h-0.52v-0.69l-0.52-0.29l-0.46-4.4l-0.35,2.2
			h-6.13c-1.53-1.88-3.65-3.21-6.01-3.76c0,0-0.29-0.64-0.64-0.64s-0.81,0.4-0.81,0v-0.87c0-0.17,0.81-0.52,0.81-1.04
			c0.1-0.5,0.3-0.97,0.58-1.39c0.12-0.29,0.58-1.39,0.58-1.39c-0.52,0.07-1.03,0.22-1.5,0.46c-0.47,0.29-0.98,0.52-1.5,0.69
			l-0.74-13.07v-1.33h-0.07v1.33l-0.74,13.07c-0.52-0.18-1.03-0.41-1.5-0.69c-0.47-0.24-0.98-0.4-1.5-0.46c0,0,0.46,1.1,0.58,1.39
			c0.28,0.42,0.48,0.89,0.58,1.39c0,0.52,0.81,0.87,0.81,1.04v0.87c0,0.4-0.46,0-0.81,0s-0.64,0.64-0.64,0.64
			c-2.37,0.55-4.48,1.88-6.02,3.76h-6.13l-0.35-2.2l-0.46,4.4l-0.52,0.29v0.69h-0.52l-1.5,0.58l-1.16-0.93
			c0.06-0.25,0.04-0.51-0.06-0.75c-0.16-0.54-0.24-1.11-0.23-1.68c0.06-0.59,0.28-1.15,0.64-1.62c0.46-0.58-0.93-0.17-1.27-0.35
			c-0.33-0.15-0.49-0.52-0.4-0.87c0-0.42-0.33-0.78-0.75-0.81c-0.35,0-0.46,0.35-0.41,0.69s0.12,0.92-0.11,0.92
			s-0.58,0.64-0.58,0.64c-0.11-0.59-0.15-1.19-0.12-1.79c0.12-0.35-0.35-0.75-0.69-0.81c-0.37,0.03-0.73,0.15-1.04,0.35
			c-0.38-0.33-0.79-0.64-1.21-0.93c-0.41-0.23-1.1-0.69-1.1-0.69s0.52-0.64,0.29-0.98c-0.49-0.38-1.04-0.67-1.62-0.87
			c0,0,1.04-2.2,0.81-2.6c-0.26-0.3-0.6-0.53-0.98-0.64c1.04-0.4,1.22-2.03,1.22-2.03c0.08-1.1-0.75-2.06-1.85-2.14
			c-0.1-0.01-0.19-0.01-0.29,0c-1.12-0.04-2.06,0.84-2.1,1.97c0,0.12,0,0.23,0.02,0.35c0.04,0.76,0.47,1.45,1.13,1.82
			c-0.26,0.26-0.49,0.56-0.69,0.87c-0.26,0.43,0.17,1.47,0.17,1.47l0.26,0.96c-0.38,0.14-0.73,0.34-1.04,0.61
			c-0.17,0.26,0.09,0.87,0.09,0.87s-1.48,0.95-2.43,1.74s-2,1.82-2,1.82h-0.35c-0.58-0.09-1.03-0.55-1.13-1.13
			c-0.09-0.95-0.7-0.69-0.7-0.69c-0.16,1.12-0.42,2.23-0.78,3.3c-0.29,0.62-0.22,1.35,0.17,1.91c0.2,0.32,0.43,0.61,0.69,0.87
			c-0.95,1.82-1.56,6.25-1.56,6.25c-0.25,0.29-0.4,0.66-0.43,1.04c0.02,0.63,0.16,1.25,0.43,1.82c0,0-2.26,0.69-2.34,1.47
			c0.15,0.95,0.47,1.86,0.95,2.69h-2.95l0.78,1.13v0.78l1.22,0.87v2l0.43,2.08h-0.87c0,0-0.09,0.61,0.26,0.78s0.87,2.69,0.87,2.69
			v8.59l-0.69,0.35v3.13l0.43,1.65v14.23l-0.52,0.52v0.78c-12.68-8.15-39.36-25.56-43.1-30.14c-4.94-6.04-4.39-12.08-1.28-21.78
			s3.84-11.9,3.84-11.9l-3.48,3.48l2.38-6.22l-8.42,12.09h-0.91l3.11-15.19l-6.82,13.95c-0.77,0.12-1.56,0.14-2.33,0.07l0.41-14.96
			l-4.32,14.55h-4.32l-0.75-15.1l-0.14-7.82l2.75,0.89l-0.96-2.13l6.73-0.21l-7.14-0.89l1.1-2.26l-2.4,1.58l-0.55-4.39v-2.2h-0.27
			v2.2l-0.55,4.39l-2.4-1.58l1.1,2.26l-7.14,0.89l6.73,0.21l-0.96,2.13l2.75-0.89l-0.14,7.82l-0.75,15.1h-4.32l-4.32-14.55
			l0.41,14.96c-0.78,0.07-1.56,0.05-2.33-0.07l-6.82-13.95l3.1,15.19h-0.92l-8.42-12.08l2.38,6.22l-3.48-3.48
			c0,0,0.73,2.2,3.84,11.9s3.66,15.74-1.28,21.78c-4.38,5.35-40.12,28.26-48.17,33.38h-1.94c-0.14-2.31-0.56-9.08-0.92-14.76
			s-0.14-21.72-0.04-27.53c0.83-0.09,1.36-0.16,1.36-0.16l-0.73-2.68h-0.86l-0.24-2.43l0.17-0.15c0.06-0.26,0.08-0.52,0.07-0.79
			c-0.04-0.22,0.11-0.19,0.26,0.08s0.56,0.26,0.56,0.26c-0.06-0.36-0.1-0.72-0.11-1.08c-0.03-0.74-0.44-1.4-1.09-1.76
			c-0.68-0.34-0.56-0.49-0.56-1.01s0.04-0.82-0.49-0.75c-0.53,0.07-0.19,0.86-0.26,1.24s-0.45,0.19-1.01,0.04s-0.56-0.86-0.6-1.24
			c-0.02-0.23,0-0.46,0.07-0.67c0,0-0.38,0-0.38-0.49s-0.26-0.08-0.37,0c-0.11,0.07,0,0.75,0,0.75c-0.02,0.4,0.04,0.79,0.19,1.16
			c0.23,0.37,0.94,1.24,1.27,1.8c0.2,0.71,0.24,1.45,0.11,2.17l0.39,0.24l0.09,2.63c-1.92,0.13-3.86,0-5.74-0.4
			c-2.5-0.65-6.09-2.05-6.09-2.05c0.24-1.59,1-3.06,2.15-4.19c2.05-2.25,12.63-6.29,12.63-6.29l-2.1-8.34
			c-4.69,2.05-13.93,10.04-15.73,12.93s-1.3,3.75,0.45,7.24s4.79,4.24,8.44,4.39c2.07,0.04,4.14-0.05,6.2-0.25
			c-0.11,3.13-0.26,8.81-0.05,13.04c0.27,5.49-0.9,25-1.15,29.07h-3.81v-7.77h0.23v-1.44h-16.07c0,0,7.42-3.32,9.3-6.54
			c0,0-16.17-2.77-40.32,0.11c1.89,2.85,4.71,4.96,7.98,5.98h-19.6v-43.42h-7.42v4.1h-2.88v-3.99H3806v43.76h-2.88
			c0,0-3.43-6.09-13.85-6.09c-4.71,0.06-9.12,2.36-11.85,6.2h-7.64v1.78h0.55v3.53l-1.65-0.24l-36.75-83.89l1.23-5.48l-5.02,2.97
			l-0.74,4.3l-7.52,10.55c-0.07,0-0.13,0-0.2,0c-0.91,0-1.81,0.06-2.71,0.17l-4.87-11.11l-0.64-3.22l-4.8-3.2l1.28,6.16
			l-58.58,72.31l0.14,0.11c-6.02-0.17-11.47-0.29-15.94-0.39v9.08c1.93-0.01,3.6-0.02,4.5-0.02c3.04,0,3.96,3.96,3.96,3.96v0.78
			h-8.46v6.63h134.61v0.15h349.85v-0.17h49.33c15.88,0.19,31.41,0.26,40.88,0.03L4467.64-31.01z M4407.51-96.65
			c-0.6,0.06-0.99,0.11-0.99,0.11c-0.75-0.04-1.49-0.22-2.18-0.53C4405.4-96.9,4406.46-96.76,4407.51-96.65L4407.51-96.65z
			 M4349-113.6l1.1,1.13h-2.56l1.1-1.13H4349z M4348.18-115.6v0.5c0,0,0,0.01,0,0.01l0.3,0.5v0.73l-1.23,1.39h-0.16
			c-0.5,0.24-0.79,0.77-0.73,1.32c-0.06,0.55,0.23,1.08,0.73,1.32h3.46c0.5-0.24,0.79-0.77,0.72-1.32c0.06-0.55-0.23-1.08-0.72-1.32
			h-0.16l-1.23-1.39v-0.73l0.25-0.43c14.16,6.67,31.6,13.54,48.93,16.93c-1.19,0.1-2.39,0.01-3.56-0.25l-0.25-0.06
			c-1.14-0.31-3.74,0.66-5.75,1.54c-2.36,1.05-4.94,1.55-7.52,1.48h-0.06c-2.49-0.31-7.36,1-9.2,1.53c-0.38,0.11-0.76,0.25-1.13,0.4
			c-0.64,0.23-1.29,0.41-1.96,0.55c-0.4,0.08-0.8,0.13-1.21,0.16c-2.46,0.2-7.93,2.51-7.93,2.51c-0.51,0.21-1.09,0.19-1.58-0.06
			c-0.1-0.05-0.2-0.11-0.29-0.17c-0.3-0.2-0.6-0.38-0.92-0.55c-1.24-0.67-2.75-1.4-4.36-2.15c-4.81-2.22-10.58-4.56-13.1-5.55
			c-1-0.42-1.73-1.3-1.95-2.36l-0.01-0.03c-0.08-0.43-0.25-1.11-0.36-1.53c-0.49-1.88-1.14-6.01-1.14-6.01
			c-0.3-2.2-1.11-4.29-2.36-6.13c-1.27-2.16-2.35-4.43-3.22-6.78c-0.65-1.79-1.82-3.34-3.35-4.46c-0.33-0.23-0.64-0.47-0.95-0.72
			c-0.13-0.1-0.26-0.2-0.39-0.3c-0.39-0.33-0.77-0.67-1.12-1.03l-0.01-0.01C4329.96-124.98,4338.21-120.37,4348.18-115.6
			L4348.18-115.6z M3731.68-123.48l36.2,82.64c-5.85-0.84-13.15-1.87-20.97-2.94l-21.68-49.48l0.17-2.33L3731.68-123.48z
			 M3727.14-121.26l-1.74,10.14c-1.5-0.61-3.08-0.99-4.7-1.1L3727.14-121.26z M3719.01-108.39c1.62-0.4,3.33,0.03,4.57,1.14
			l-2.97,10.74h-2.28l-2.06-11.19L3719.01-108.39z M3733.85-45.35l-28.32-2.28l11.88-40.88l3.66,0.23L3733.85-45.35z M3716.28-112
			c-0.62,0.09-1.24,0.23-1.84,0.41l-1.7-8.49L3716.28-112z M3708.13-122.6l4.32,20.77l-36.79,51.66
			c-8.83-0.35-17.64-0.64-25.52-0.85L3708.13-122.6z M3692.38-37.64h-37.38c1.68-0.63,3.3-1.4,4.85-2.3
			c0.91-0.76,5.48-3.65,7.77-4.11s4.26-2.89,4.26-2.89c7.85,0.16,15.86,0.5,23.78,0.94L3692.38-37.64z M3676.48-50.14l36.17-50.77
			l1.11,5.32v3.43l-16.86,43.02C3690.39-49.53,3683.44-49.85,3676.48-50.14L3676.48-50.14z M3700.23-37.64
			c2.76-1.75,8.14-3.73,18.31-3.6c12.54,0.16,17.14,2.3,18.77,3.6H3700.23z M3726.54-88.56l19.57,44.67l-3.77-0.51L3726.54-88.56z
			 M3743.16-42.1c1.33,0.14,2.64,0.28,3.92,0.42l0.79,0.08c9.03,0.98,16.75,1.92,22.47,2.65v1.31h-25.57L3743.16-42.1z
			 M3815.86-45.9h-2.88v-20.43h2.88V-45.9z M3815.86-67.33h-2.88v-1.33h2.88V-67.33z M3815.86-69.65h-2.88v-15.01h2.88V-69.65z
			 M3887.13-81.83l0.15-2.43l0.58,2.47L3887.13-81.83z"/>
		<path id="Caminho_6944" class="st0" d="M5071.76-55.2c-1.48-3.51-5.22-11.67-8.96-14.01c-4.81-3-4.81-8.42-8.42-8.72
			c-0.48-0.04-0.88-0.09-1.22-0.14l-0.14-14.04h-9.32v4.66l-0.19-0.02v-0.77h-1.31v0.66l-0.6-0.05v-0.61h-1.32v0.51l-0.64-0.05
			v-0.35h-1.32v0.31c-0.3,0.02-0.63,0.06-0.98,0.11v-0.23h-1.31v0.46c-0.84,0.17-1.5,0.33-1.5,0.33l-0.15-4.58l-5.33-0.15v4.28
			l-0.3-0.03v-0.61h-1.31v0.51c-0.28-0.02-0.57-0.04-0.86-0.05v-0.46h-1.31v0.39l-0.83-0.04v-0.65h-1.31v0.59l-0.71-0.03v-0.6h-1.32
			v0.54l-0.45-0.02v-4.06h-4.88v3.83l-0.75-0.03v-0.5h-1.31v0.45l-0.86-0.04v-0.68h-1.31v0.61c-0.31-0.02-0.61-0.03-0.9-0.05v-0.68
			h-1.31v0.59c-0.13-0.01-0.29-0.01-0.45-0.02V-89h-1.31v0.37c-0.49,0-1.01,0.01-1.54,0.03v-0.47h-1.31v0.51
			c-0.55,0.02-1.08,0.04-1.54,0.06v-0.46h-1.31v0.51l-0.26,0.01v-3.53h-5.71c0,0,0.3,3.61,0,3.61c-0.03,0-0.09,0-0.19,0.01v-0.39
			h-1.31v0.51l-0.3,0.03v-0.43h-1.31v0.56L4992.1-88v-0.28h-1.31v0.39c-0.23,0.02-0.45,0.03-0.64,0.05v-0.32h-1.31v0.44
			c-0.19,0.02-0.4,0.05-0.6,0.08v-0.41h-1.32v0.61l-0.56,0.09v-0.43h-1.31v0.66l-0.3,0.05v-1.8l-3-1.35l-2.94,2.03l-1.05,1.5v7.87
			h-0.3c0,0-2.38,15.06-1.44,23.63h-1.83v-22.58l0.32-0.65l-0.4-0.65v-14.07l-0.97-0.59l-0.48,0.38l-0.32-1.4l-0.59,1.19l-1.02-1.13
			l-0.65,1.46l-0.48,0.92h-0.7l-0.43-1.02l-0.38,0.86h-0.59l-0.27-0.86l-0.48,1.02h-0.54l-0.27-0.97l-0.43,0.92l-0.54-0.05
			l-0.21-0.92l-0.65,0.97h-0.27l-0.11-1.99l-0.43-0.75l-0.32,0.54l-0.97-0.59l-1.67,9.49v7.28l-0.38-1.51l-0.43,1.24l-0.65-1.35
			l-0.22,1.35l-0.38-1.29l-0.65,1.46l-0.59-1.4l-0.2,1.26l-0.2-1.26l-0.59,1.4l-0.65-1.46l-0.39,1.29l-0.22-1.35l-0.65,1.35
			l-0.43-1.24l-0.38,1.51v-7.27l-1.67-9.49l-0.97,0.59l-0.32-0.54l-0.43,0.75l-0.11,1.99h-0.27l-0.65-0.97l-0.22,0.92l-0.54,0.05
			l-0.43-0.92l-0.27,0.97h-0.54l-0.48-1.02l-0.27,0.86h-0.59l-0.38-0.86l-0.43,1.02h-0.7l-0.48-0.92l-0.65-1.46l-1.02,1.13
			l-0.59-1.19l-0.32,1.4l-0.48-0.38l-0.97,0.59v14.07l-0.4,0.65l0.32,0.65v22.58h-2.1v-0.77l-0.61-0.69l-0.02-12.94l1.31-0.94v-0.51
			h-0.9v-1.81l0.38-0.44l-0.96-0.65c0,0,0.44-1.52,0-2.03c-0.23-0.27-0.49-0.51-0.77-0.72l-0.26-0.43l0.51-0.29l-0.51-1.09
			l-0.19-1.01l-0.38,1.23l-0.32,0.8l0.45,0.51c-0.29,0.29-0.55,0.6-0.77,0.94c-0.17,0.47-0.27,0.96-0.32,1.45
			c0.06,0.22,0.13,0.58,0.13,0.58l-0.58,0.65h-1.79l-8.01-2.23l-34.39,0.07l-1.98,1.89l-0.06,0.8h-0.9l-0.01-3.26l0.32-0.8h-1.22
			c0.04-0.46-0.01-0.93-0.13-1.38c-0.19-0.36-0.45-0.22-0.71-0.43c-0.27-0.31-0.51-0.65-0.71-1.01l-0.26-0.72
			c-0.35,0-0.69-0.05-1.02-0.14c-0.33-0.18-0.61-0.43-0.83-0.72c0,0,0.13-1.09-0.26-1.09s-0.7,0.65-0.7,0.65l-0.32,0.58l-0.01-6.67
			l0.83-0.94v-1.01h-0.9v-0.8l-0.32-0.43v-0.51l0.38-0.36l-0.06-0.29h-1.98l-0.38-0.43l-0.27-0.3l-1.23-0.62l-3.79,0.01
			c-0.12-0.1-0.14-0.28-0.04-0.4c0.01-0.01,0.02-0.03,0.04-0.04c0.24-0.22,0.62-1.2,0.48-1.36s-0.43-0.32-0.53-0.49
			s-0.96-0.92-0.82-1.36s1.05-2.18,0.57-2.01c-0.37,0.16-0.71,0.38-1.01,0.65c0,0-0.1-1.31-0.39-1.3s-1.1,0.44-1.1,0.87
			c-0.01,0.4-0.16,0.79-0.43,1.09c-0.26,0.18-0.5,0.38-0.72,0.6c-0.25-0.37-0.4-0.8-0.44-1.25c0.05-0.49,0.09-1.96,0.09-1.96
			s0.53-0.22,0.82,0.05c0.37,0.2,0.78,0.31,1.2,0.32c0,0-0.24-0.6-0.43-0.6c-0.28,0.04-0.57-0.06-0.77-0.27
			c-0.19-0.27-0.58-0.76-0.67-0.92s-0.72-0.32-0.72-0.32s0.19-1.09-0.05-1.25c-0.07-0.04-0.14-0.08-0.21-0.11v-0.17
			c0,0-0.13,0.03-0.28,0.07c-0.16-0.04-0.28-0.07-0.28-0.07v0.17c-0.07,0.03-0.14,0.06-0.21,0.11c-0.24,0.16-0.04,1.25-0.04,1.25
			s-0.62,0.16-0.72,0.33s-0.48,0.65-0.67,0.93c-0.2,0.21-0.48,0.31-0.77,0.27c-0.19,0-0.43,0.6-0.43,0.6
			c0.42-0.01,0.83-0.13,1.2-0.33c0.29-0.27,0.82-0.06,0.82-0.06s0.05,1.47,0.1,1.96c-0.04,0.45-0.19,0.88-0.43,1.25
			c-0.22-0.22-0.47-0.42-0.72-0.6c-0.27-0.3-0.43-0.68-0.44-1.09c0-0.44-0.82-0.87-1.11-0.87s-0.38,1.31-0.38,1.31
			c-0.3-0.27-0.64-0.49-1.01-0.65c-0.48-0.16,0.44,1.58,0.58,2.01s-0.72,1.2-0.81,1.36s-0.38,0.33-0.53,0.49s0.24,1.14,0.48,1.36
			c0.12,0.1,0.14,0.28,0.04,0.4c-0.01,0.01-0.02,0.03-0.04,0.04l-3.79,0.01l-1.22,0.63l-0.26,0.3l-0.38,0.43h-1.98l-0.06,0.29
			l0.39,0.36v0.51l-0.32,0.43v0.8h-0.9v1.01l0.83,0.94l0.01,6.67l-0.32-0.58c0,0-0.32-0.65-0.71-0.65s-0.25,1.09-0.25,1.09
			c-0.22,0.3-0.51,0.54-0.83,0.73c-0.33,0.1-0.68,0.15-1.02,0.15l-0.25,0.72c-0.2,0.36-0.43,0.7-0.7,1.02
			c-0.26,0.22-0.51,0.07-0.7,0.44c-0.12,0.45-0.17,0.91-0.13,1.38h-1.22l0.32,0.8l0.01,3.26h-0.9l-0.06-0.8l-1.99-1.88l-34.39,0.07
			l-8,2.26h-1.79l-0.58-0.65c0,0,0.06-0.36,0.13-0.58c-0.05-0.49-0.15-0.98-0.32-1.45c-0.22-0.34-0.48-0.66-0.77-0.94l0.45-0.51
			l-0.32-0.8l-0.39-1.23l-0.19,1.01l-0.51,1.09l0.51,0.29l-0.26,0.43c-0.28,0.21-0.54,0.46-0.77,0.73c-0.45,0.51,0,2.03,0,2.03
			l-0.96,0.65l0.38,0.43v1.81h-0.9v0.51l1.31,0.94l0.02,12.94l-0.61,0.69v0.49h-1.71v-2.95l-0.31-5.24l0.41-1.03l-0.92-0.21
			l-0.21-1.64h-1.23l-0.21,1.64l-1.03,0.31l0.51,1.13l-0.38,2.41l-3.16-0.07l-0.15-2.54l0.41-1.03l-0.92-0.21l-0.2-1.64h-1.23
			l-0.21,1.64l-1.02,0.31l0.51,1.13l-0.25,1.59l-1.85-0.72c0,0-0.15-3.08-0.31-3.75c-0.37-0.78-0.86-1.51-1.44-2.16l-0.51-4
			l-3.27-2.79l-0.27-7.58l1.35-0.54c0,0,0.31-0.42,0.23-0.62c-0.41-0.67-0.96-1.25-1.62-1.69c-1-0.73-1.39-1.43-1.27-1.43
			s1.12-0.31,1.12-0.62s-0.35-1.31-0.58-2.73c-0.21-1.37-0.17-2.76,0.12-4.12c0.27-2.19-0.35-1.92-2.12-3.31s-0.54-1.08-0.23-2.43
			c0.18-0.9,0.07-1.82-0.31-2.66c-0.15-0.65-0.5-0.93-0.38-1.5s0.96-1.5,0.88-2.5s-1.81-1.12-2.2-0.65s-1.23,1.19-1.23,1.54
			s0.5,2.16-0.08,2.85s-0.27,1.65-0.42,2.46s-0.62,0-1.54-0.81c-0.38-0.37-0.81-0.7-1.27-0.96c-0.76-0.49-1.78-0.27-2.27,0.5
			c-0.08,0.13-0.15,0.28-0.19,0.43c-0.31,0.92-1.08,2-0.81,2.77s2.19,0,2.66,0.08s0.12,2.43,0.35,2.93s-0.65,1.12-1.23,1.69
			s-0.42,0.93-0.19,1.85s0.36,1.57,0.87,1.67s0.82-0.51,0.82-0.51c-0.3-0.47-0.51-0.99-0.62-1.54c0-0.51,1.23-0.41,1.23-0.41
			s1.13-0.41,1.13,0.1s-0.31,4.52-0.31,4.52c-1.54,0.02-3.09,0.12-4.62,0.31c-0.62,0.21-1.54,1.44-1.54,1.44
			c-0.71,0.3-1.31,0.8-1.75,1.44c-0.51,0.92,1.13,1.85,1.13,1.85v13.44l-1.54,1.64l-0.21,4h-2.39v-1.78l0.92-1.1l-0.92-0.37v-6.03
			l0.37-1.1l-0.92-0.92h-17.57v-4.57l1.01-1.01l0.64-0.64l-16.29-8.33l-16.29,8.33l0.64,0.64l1.01,1.01v4.57h-17.57l-0.91,0.92
			l0.37,1.1v6.04l-0.92,0.37l0.92,1.1v10.71h-2.81v-56.42c0,0-6.4-2.6-24.11,2.59v-1.53h-4.58v-7.48c0,0,5.19-1.53,5.5-2.9v-6.26
			c-1.16-0.57-2.39-0.98-3.66-1.22v-3.66c0,0-0.92-1.83-4.43-1.83v-11.3l-1.68-13.67l-0.23-1.87l-0.23,1.87l-1.68,13.67v3.62
			c-3.1,3.43-5.93,7.11-8.45,10.99c-2.45,3.73-4.6,7.65-6.42,11.73l-0.13-0.11l-0.14,0.36l0.12,0.1c-0.1,0.22-0.19,0.44-0.28,0.65
			c-1.37,3.19-2.48,6.49-3.32,9.86l-0.48,2.13c-0.26,1.26-0.47,2.52-0.63,3.76c-0.29,2.18-0.53,4.46-0.74,6.8l-0.04,0.09l0.03,0.02
			c-0.35,3.88-0.6,7.91-0.78,11.9l-0.16,0.39l0.14,0.09c-0.47,10.71-0.42,21.11-0.3,27.63h-1.94v-15.79l0.88-1.14l-1.39-1.14v-11.61
			l0.63-1.39l-1.51-1.01l-0.13-1.14h-12.74l-1.7,1.7h-2.96l-0.76-2.21l-0.25-3.79l1.01-2.78l-1.26-1.39v-3.28l-1.14-0.88l-0.38,0.5
			c0,0-1.39-5.43-5.43-6.31v-3.66l0.25-1.26l-0.25-2.4l-0.76,0.88l-2.27-0.38v-3.15h-0.38v3.15l-2.27,0.38l-0.76-0.88l-0.25,2.4
			l0.25,1.26v3.66c-4.04,0.88-5.42,6.31-5.42,6.31l-0.38-0.5l-1.14,0.88v3.28l-1.26,1.39l1.01,2.78l-0.25,3.79l-0.76,2.21H4588
			l-1.7-1.7h-12.74l-0.13,1.14l-1.51,1.01l0.63,1.39v10.89c-9.16-5.3-21.18-13.88-25.64-24.4v-2.69h-2.61v0.52h-0.74v-0.52h-2.61
			v6.58c-7.49,11.53-24.51,19.72-28.75,21.63c-6.1-2.93-20.5-10.66-27.08-21.05v-7.16h-2.61v0.52h-0.74v-0.52h-2.61v5.22
			c-6.66,11.31-19.79,19.01-30.35,23.68l-0.02-0.02l-0.5-10.99l1.8-1.44l-0.29-3.23l-2.74-1.15l0.14-5.46l0.36-3.16l-1.36-3.02
			c-0.31,0.86-0.67,1.7-1.08,2.51c-0.21,0.22-0.07,0.79-0.07,0.79l-6.46-2.87l-0.07-1.87c0,0,0.79-0.21,0.22-0.93
			s-1.37-2.94-1.65-3.16s-0.72,2.8-1.72,3.38s0.14,0.72,0.14,0.72l0.07,1.51l-9.34,3.16l-1.73-3.6l-0.72,2.44l-0.93,1.08l0.58,0.65
			c-0.05,0.75-0.14,1.49-0.29,2.23c-0.14,0.36-0.43,0.65-0.07,1.15c0.3,0.86,0.47,1.75,0.5,2.66v2.8l-1.08,0.22v0.65h-0.57
			l-0.07-0.57l-1.29,0.14v3.02l1.08,1.36v5.17l-1.08,1.08l0.11,4.63l0.54,0.54l-0.07,1.94l-0.72-1.94l-0.79-2.08l-0.43,2.08
			c0,0-1.51,2.3-1.79,2.8s0,0.72,0,0.72v1.51l-12.93,0.5l-0.71-1.36l-0.93-2.44l-0.5,2.51l-0.93,0.93c0,0-0.86-1.51-1-1.8
			s-0.93-2.66-0.93-2.66s-0.43,1.29-0.58,1.58s-0.93,2.01-0.93,2.01s-0.65,0.43-0.72,0.79s0.61,0.43,0.61,0.43v2.55l-0.61,0.61
			c0.01,0.46,0.08,0.92,0.22,1.37c0.41,0.94,0.89,1.86,1.44,2.73v3.79h-7.62v24.34h682.34V-55.2H5071.76z M4862.23-55.68L4862.2-68
			l0.64-1.45l-0.64-0.43v-1.09l0.58-0.44l0.77-1.67l-1.02-0.58c0.31-4.86,9.61-4.88,9.94-0.02l-1.02,0.58l0.77,1.67l0.58,0.43v1.09
			l-0.64,0.44l0.64,1.45l0.02,12.32l-0.28,0.5h-10.03L4862.23-55.68z M4774.98-93.49c0.21,0.61,0.3,1.25,0.28,1.9
			c0,0-0.56-0.62-0.56-1C4774.69-92.74,4774.88-93.56,4774.98-93.49L4774.98-93.49z M4771.79-91.64c0.16-0.43,0.24-0.88,0.26-1.33
			c0,0,1.39,1.49,2.1,2.16s0.41,2.98,0.41,2.98l-2.72-0.26c-0.19-0.31-0.37-0.64-0.51-0.98
			C4771.37-89.95,4771.53-90.81,4771.79-91.64L4771.79-91.64z M4653.67-70.87v0.69l-8.23,5.88l-8.67-6.57H4653.67z M4653.23-72.09
			l-8.52-5.26l8.97-5.14v10.4L4653.23-72.09z M4653.63-57.44h-16.86l8.65-6.2L4653.63-57.44z M4645.88-63.97l7.79-5.59v11.49
			L4645.88-63.97z M4645.63-89.67l8.05-4.61v9.58L4645.63-89.67z M4653.68-97.36l-6.81-4.21l6.81-3.9L4653.68-97.36z
			 M4653.68-108.43l-0.4,0.01l-5.58-4.91l5.98-3.42L4653.68-108.43z M4649.17-129.67c2.16-3.31,4.53-6.47,7.1-9.46v5.22
			c-3.51,0-4.43,1.83-4.43,1.83v3.66c-1.27,0.24-2.5,0.65-3.66,1.22v6.26c0.1,0.47,0.8,0.97,1.65,1.41l-6.3-0.07
			C4645.17-123.08,4647.06-126.45,4649.17-129.67L4649.17-129.67z M4642.8-117.97l10.87,0.12v0.66l-6.28,3.6l-4.7-4.14
			C4642.73-117.81,4642.77-117.9,4642.8-117.97L4642.8-117.97z M4642.55-117.38l4.52,3.98l-7.43,4.26
			C4640.42-111.95,4641.39-114.7,4642.55-117.38L4642.55-117.38z M4639.5-108.62l7.87-4.51l5.38,4.73l-13.41,0.37
			C4639.39-108.24,4639.44-108.44,4639.5-108.62L4639.5-108.62z M4653.68-106.8v0.8l-7.25,4.15l-7.4-4.57L4653.68-106.8z
			 M4638.78-105.6c0.03-0.12,0.05-0.25,0.08-0.37l7.12,4.4l-7.97,4.57L4638.78-105.6z M4637.96-96.46l8.46-4.85l7.26,4.48v0.59
			l-15.75,0.13L4637.96-96.46z M4653.34-94.6l-8.15,4.67l-7.36-4.54L4653.34-94.6z M4637.34-94.25l7.41,4.57l-8.02,4.6
			c0.15-3.1,0.35-6.18,0.61-9.19L4637.34-94.25z M4636.69-84.55l8.49-4.86l7.74,4.78l-16.23,0.12L4636.69-84.55z M4636.62-82.89
			l17.06-0.13l-9.4,5.39l-7.68-4.75C4636.59-82.54,4636.6-82.72,4636.62-82.89L4636.62-82.89z M4636.57-81.86l7.26,4.48l-7.52,4.31
			C4636.36-75.91,4636.45-78.87,4636.57-81.86L4636.57-81.86z M4636.3-72.54l7.96-4.56l8.11,5.01h-16.08
			C4636.29-72.24,4636.3-72.39,4636.3-72.54L4636.3-72.54z M4636.27-70.56l8.72,6.59l-8.72,6.24
			C4636.23-61.33,4636.21-65.74,4636.27-70.56L4636.27-70.56z M4636.29-56.22h17.38v1.02h-17.37
			C4636.3-55.53,4636.29-55.87,4636.29-56.22L4636.29-56.22z M4546.92-97c1.73,3.89,7.49,13.18,25.64,23.66v0.07l-1.39,1.14
			l0.88,1.14v2.29c-7.12-0.93-15.69-1.89-25.13-2.62V-97z M4546.92-68.04c9.62,0.6,18.15,1.4,25.13,2.18v10.66h-23.79v-3.23h-1.35
			L4546.92-68.04z M4543.57-98.61c0-0.01,0.01-0.02,0.01-0.02h0.73v27.12l-0.74-0.05V-98.61z M4543.57-68.24l0.74,0.04v9.76h-0.74
			V-68.24z M4540.96-93.55v21.81c-8.08-0.52-16.67-0.86-25.41-0.86c-0.86,0-1.71,0-2.57,0.01
			C4529.89-80.79,4537.55-88.62,4540.96-93.55L4540.96-93.55z M4485.13-92.95c3.21,4.75,10.43,12.34,26.44,20.37
			c-8.89,0.08-17.86,0.43-26.44,0.92V-92.95z M4485.13-68.29c9.99-0.42,20.65-0.71,31.34-0.71c8.62,0,16.85,0.24,24.49,0.63v9.94
			h-1.83v3.24h-52.66v-3.23h-1.35L4485.13-68.29z M4481.79-98.64h0.74v27.12l-0.74,0.04V-98.64z M4481.79-68.14l0.74-0.03v9.74
			h-0.74V-68.14z M4479.18-93.99v22.69c-10.9,0.71-20.9,1.62-28.92,2.44c0.04-0.77,0.06-1.32,0.06-1.32l-1.06-1.41
			C4467.97-79.71,4475.92-88.75,4479.18-93.99L4479.18-93.99z M4449.11-61.71c0.35-0.73,0.66-1.47,0.93-2.23
			c0-0.08,0.04-1.06,0.1-2.22c7.97-0.63,17.98-1.32,29.04-1.86v9.58h-1.83v3.24h-28.25L4449.11-61.71z"/>
	</g>
</g>
</svg>
