<svg xmlns="http://www.w3.org/2000/svg" width="321.753" height="253.865" viewBox="0 0 321.753 253.865">
  <g id="Imagem" transform="translate(-166.528 -1218.787)">
    <path id="Caminho_7602" data-name="Caminho 7602" d="M199.344,1469.065c-31.3-38.794-32.2-59.073-26.992-70.454,5.224-11.409,15.489-11.463,21.96-26.077,8.233-18.594-3.722-29.035-.915-52.611,2.406-20.209,15.218-46.379,35.684-53.985,24.435-9.079,39.54,15.825,63.134,6.863,23.028-8.747,17.151-35.706,43.462-48.494,19.39-9.425,46.989-6.646,59.931,7.32,9.592,10.35,4.96,20.182,14.64,35.227,12.381,19.243,30.044,12.537,37.057,26.077,10.21,19.713-20.8,38.723-14.182,67.709,4.9,21.49,24.57,22.532,34.769,46.664,9.167,21.688,3.529,45.084-3.2,62.219Z" transform="translate(0 0)" fill="#d9ecf6"/>
    <line id="Linha_3" data-name="Linha 3" x1="314.92" transform="translate(169.944 1469.236)" fill="none" stroke="#b5ccd8" stroke-linecap="round" stroke-width="6.833"/>
    <g id="Grupo_10175" data-name="Grupo 10175" transform="translate(194.656 1239.929)">
      <path id="Caminho_7603" data-name="Caminho 7603" d="M471.409,1490.164h-221.9a16.657,16.657,0,0,1-16.657-16.657V1321.15H488.067v152.356A16.657,16.657,0,0,1,471.409,1490.164Z" transform="translate(-232.849 -1302.08)" fill="#f1f1f1"/>
      <g id="Grupo_10173" data-name="Grupo 10173" transform="translate(67.773 107.019)">
        <rect id="Retângulo_259" data-name="Retângulo 259" width="124.5" height="27.638" rx="6.308" transform="translate(124.5 61.284) rotate(180)" fill="#fff"/>
        <rect id="Retângulo_260" data-name="Retângulo 260" width="124.5" height="27.638" rx="6.308" transform="translate(124.5 27.638) rotate(180)" fill="#fff"/>
        <g id="Grupo_10172" data-name="Grupo 10172" transform="translate(10.601 43.587)">
          <g id="Grupo_10171" data-name="Grupo 10171">
            <g id="Grupo_10166" data-name="Grupo 10166" transform="translate(53.881)">
              <circle id="Elipse_143" data-name="Elipse 143" cx="3.878" cy="3.878" r="3.878" fill="#9ecc4d"/>
            </g>
            <g id="Grupo_10167" data-name="Grupo 10167" transform="translate(40.411)">
              <circle id="Elipse_144" data-name="Elipse 144" cx="3.878" cy="3.878" r="3.878" fill="#ffea6e"/>
            </g>
            <g id="Grupo_10168" data-name="Grupo 10168" transform="translate(26.941)">
              <circle id="Elipse_145" data-name="Elipse 145" cx="3.878" cy="3.878" r="3.878" fill="#9ecc4d"/>
            </g>
            <g id="Grupo_10169" data-name="Grupo 10169" transform="translate(13.47)">
              <circle id="Elipse_146" data-name="Elipse 146" cx="3.878" cy="3.878" r="3.878" fill="#ffea6e"/>
            </g>
            <g id="Grupo_10170" data-name="Grupo 10170">
              <circle id="Elipse_147" data-name="Elipse 147" cx="3.878" cy="3.878" r="3.878" fill="#9ecc4d"/>
            </g>
          </g>
        </g>
        <rect id="Retângulo_261" data-name="Retângulo 261" width="89.543" height="7.756" rx="3.397" transform="translate(10.601 9.941)" fill="#ffea6e"/>
      </g>
      <path id="Caminho_7604" data-name="Caminho 7604" d="M476.259,1272.606h-231.6a11.808,11.808,0,0,0-11.808,11.808v7.328H488.067v-7.328A11.808,11.808,0,0,0,476.259,1272.606Z" transform="translate(-232.849 -1272.606)" fill="#fe5339"/>
      <circle id="Elipse_148" data-name="Elipse 148" cx="3.327" cy="3.327" r="3.327" transform="translate(237.852 6.241)" fill="#efeefe"/>
      <circle id="Elipse_149" data-name="Elipse 149" cx="3.327" cy="3.327" r="3.327" transform="translate(223.957 6.241)" fill="#efeefe"/>
      <circle id="Elipse_150" data-name="Elipse 150" cx="3.327" cy="3.327" r="3.327" transform="translate(210.062 6.241)" fill="#efeefe"/>
      <g id="Grupo_10174" data-name="Grupo 10174" transform="translate(94.536 29.761)">
        <circle id="Elipse_151" data-name="Elipse 151" cx="31.953" cy="31.953" r="31.953" fill="#efeefe"/>
        <circle id="Elipse_152" data-name="Elipse 152" cx="31.953" cy="31.953" r="31.953" fill="#fff"/>
        <path id="Caminho_7605" data-name="Caminho 7605" d="M513.6,1464.221a31.921,31.921,0,0,0,26.675-14.36,30.3,30.3,0,0,0-53.35,0A31.921,31.921,0,0,0,513.6,1464.221Z" transform="translate(-481.652 -1400.316)" fill="#9ecc4d"/>
        <circle id="Elipse_153" data-name="Elipse 153" cx="12.311" cy="12.311" r="12.311" transform="translate(14.541 18.177) rotate(-45)" fill="#9ecc4d"/>
      </g>
    </g>
    <g id="Grupo_10183" data-name="Grupo 10183" transform="translate(181.559 1272.41)">
      <path id="Caminho_7606" data-name="Caminho 7606" d="M283.828,1416.8h0a11.661,11.661,0,0,0-11.66,7.489c-2.235,5.872-4.918,13.381-5.415,16.819,0,0-11.7,11.417-16.471,15.938l2.535,2.194s15.929-10.357,20.784-14.91S283.828,1416.8,283.828,1416.8Z" transform="translate(-230.336 -1392.617)" fill="#f26d6d"/>
      <path id="Caminho_7607" data-name="Caminho 7607" d="M448.177,1842.53l.233.694-1.572,1.642-1.665-.732-.615-.91-.179-.718Z" transform="translate(-348.184 -1651.105)" fill="#f6a19e"/>
      <path id="Caminho_7608" data-name="Caminho 7608" d="M305.954,1842.2l.094.719-.759,1.249-2.229-.21-.665-.408-.2-.63.006-.914Z" transform="translate(-261.857 -1650.802)" fill="#f6a19e"/>
      <g id="Grupo_10177" data-name="Grupo 10177" transform="translate(64.815 66.929)">
        <g id="Grupo_10176" data-name="Grupo 10176">
          <path id="Caminho_7609" data-name="Caminho 7609" d="M365.241,1530.929c-.562-.083-.889-1.461-.677-2.569a4.277,4.277,0,0,1,2.062-2.7,4.215,4.215,0,0,1,.418,2.456C366.845,1529.522,365.867,1531.022,365.241,1530.929Z" transform="translate(-364.5 -1525.658)" fill="#47b27c"/>
        </g>
      </g>
      <g id="Grupo_10179" data-name="Grupo 10179" transform="translate(60.118 70.753)">
        <g id="Grupo_10178" data-name="Grupo 10178">
          <path id="Caminho_7610" data-name="Caminho 7610" d="M357.915,1536.061c.156.546-.965,1.412-2.061,1.676a4.278,4.278,0,0,1-3.312-.764,4.219,4.219,0,0,1,2.065-1.394C355.972,1535.18,357.742,1535.453,357.915,1536.061Z" transform="translate(-352.542 -1535.391)" fill="#47b27c"/>
        </g>
      </g>
      <g id="Grupo_10181" data-name="Grupo 10181" transform="translate(60.782 66.993)">
        <g id="Grupo_10180" data-name="Grupo 10180">
          <path id="Caminho_7611" data-name="Caminho 7611" d="M358.181,1529.578c-.345.452-1.709.073-2.576-.647a4.276,4.276,0,0,1-1.371-3.111,4.22,4.22,0,0,1,2.353.82C357.723,1527.494,358.565,1529.075,358.181,1529.578Z" transform="translate(-354.234 -1525.82)" fill="#47b27c"/>
        </g>
      </g>
      <path id="Retângulo_262" data-name="Retângulo 262" d="M3.351,0h0a0,0,0,0,1,0,0V5.326a0,0,0,0,1,0,0H0a0,0,0,0,1,0,0V3.351A3.351,3.351,0,0,1,3.351,0Z" transform="translate(70.724 12.359) rotate(180)" fill="#2e3192"/>
      <path id="Caminho_7612" data-name="Caminho 7612" d="M364.32,1521.025s9.463,12.12,25.5,126.315l-4.794-.025L347.25,1542.264v-21.239Z" transform="translate(-289.211 -1455.916)" fill="#fe5339"/>
      <path id="Caminho_7613" data-name="Caminho 7613" d="M300.516,1504.467s-11.422,8.982-11.367,33.1c.024,10.8,5.131,99.5,5.131,99.5l3.752.194c6.653-33.769,11.467-66.957,16.962-101.3.787-.113,4.816-.406,5.514-1.227,1.531-1.8.037-4.938.07-6.319.129-5.524.165-18.155-.194-22.811C315.963,1505.969,304.668,1504.872,300.516,1504.467Z" transform="translate(-253.935 -1445.862)" fill="#fe5339"/>
      <path id="Caminho_7614" data-name="Caminho 7614" d="M294.28,1637.068s-5.107-88.7-5.131-99.5c-.055-24.12,11.367-33.1,11.367-33.1q1.445.169,2.944.317l2.687,1.713s-8.08,47.264-7.885,75.525c.108,15.7.1,37.485.062,53.74q-.146.75-.293,1.5Z" transform="translate(-253.935 -1445.862)" fill="#db1d00"/>
      <path id="Caminho_7615" data-name="Caminho 7615" d="M284.633,1479.053" transform="translate(-251.193 -1430.432)" fill="#2d2b2c"/>
      <path id="Caminho_7616" data-name="Caminho 7616" d="M309.2,1450.352a3.377,3.377,0,0,1-2.58-3.42,149.253,149.253,0,0,1,3.689-27.353c1.017-4.4,2.181-8.529,3.426-12.369l14.731-3.259,11.4,4.463a182.984,182.984,0,0,1,.478,42.042,1.358,1.358,0,0,1-1.144,1.2,76.979,76.979,0,0,1-30-1.3Z" transform="translate(-264.541 -1384.834)" fill="#ffea6e"/>
      <path id="Caminho_7617" data-name="Caminho 7617" d="M307.811,1451.826a1.76,1.76,0,0,1-1.314-1.762,149.316,149.316,0,0,1,3.738-28.677c1.016-4.4,1.793-8.6,3.037-12.438,3.148-.7,6.684-1.324,9.833-2.021a4.872,4.872,0,0,1,3.344,1.792c1.089,1.6.465,3.743.277,4.434-1.061,3.907-3.909,19.258-7.792,40.737A77.316,77.316,0,0,1,307.811,1451.826Z" transform="translate(-264.467 -1386.641)" fill="#efd434"/>
      <path id="Caminho_7618" data-name="Caminho 7618" d="M361.686,1383.566l-1.316,10.9-7.021-.831,1.478-11.418Z" transform="translate(-292.914 -1371.637)" fill="#fb9c98"/>
      <path id="Caminho_7619" data-name="Caminho 7619" d="M355.783,1382.217l6.859,1.349-.076.627c-.719,2.968-3.684,5.721-6.508,5.109a3.822,3.822,0,0,1-1.135-.448Z" transform="translate(-293.871 -1371.638)" fill="#f26d6d"/>
      <path id="Caminho_7620" data-name="Caminho 7620" d="M354.372,1363.6a6.579,6.579,0,0,0-2.87,3.571c-.912,3.013.564,7.345,3.635,8.01,2.938.636,6.03-2.369,6.585-5.469.493-2.748-.9-6.148-3.389-6.879A5.256,5.256,0,0,0,354.372,1363.6Z" transform="translate(-291.631 -1359.777)" fill="#fb9c98"/>
      <path id="Caminho_7621" data-name="Caminho 7621" d="M351.813,1356.285c-.723,1.388,2.337,4.166,2.64,4.436,2.61,2.334,6.85,3.81,8.085,2.437.908-1.009.072-3.423-1.029-4.854C358.832,1354.823,352.664,1354.651,351.813,1356.285Z" transform="translate(-291.915 -1355.286)" fill="#2e3192"/>
      <path id="Caminho_7622" data-name="Caminho 7622" d="M375.615,1377.211a1.454,1.454,0,1,0-1.7,1.158A1.454,1.454,0,0,0,375.615,1377.211Z" transform="translate(-304.683 -1367.551)" fill="#fb9c98"/>
      <path id="Caminho_7623" data-name="Caminho 7623" d="M354.561,1387.16c-.063.267.429.636.849.757a1.923,1.923,0,0,0,2.115-1.146C355.228,1386.672,354.623,1386.9,354.561,1387.16Z" transform="translate(-293.647 -1374.388)" fill="#fff"/>
      <path id="Caminho_7624" data-name="Caminho 7624" d="M243.883,1521.475l-1.671,1.585a5.473,5.473,0,0,1-1.19,2.04c-.335.359-1.75,1.879-3.389,1.561-1.154-.224-2.227-1.323-2.045-1.927a.743.743,0,0,1,.448-.415l5.312-5.038Z" transform="translate(-221.402 -1454.857)" fill="#f26d6d"/>
      <path id="Caminho_7625" data-name="Caminho 7625" d="M346.368,1405.33l6.232-1.379,6.79,2.659a9.992,9.992,0,0,1-5.167,2.229A8.761,8.761,0,0,1,346.368,1405.33Z" transform="translate(-288.676 -1384.834)" fill="#fb9c98"/>
      <path id="Caminho_7626" data-name="Caminho 7626" d="M403.693,1438.631a54.422,54.422,0,0,0,4.11-5.182c2.922,2.4,5.411,5.076,6.669,7.865,1.218,2.7.067,6.024-2.246,9.429a24.757,24.757,0,0,1-8.919-1.8,22.122,22.122,0,0,1,2.6-2.573s-2.409-1.956-5.264-4.575A39.1,39.1,0,0,0,403.693,1438.631Z" transform="translate(-321.63 -1402.743)" fill="#fb9c98"/>
      <path id="Caminho_7627" data-name="Caminho 7627" d="M299.6,1844.333a2.482,2.482,0,0,1,0,3.642h-8.027v-3.642h4.175A4.061,4.061,0,0,0,299.6,1844.333Z" transform="translate(-255.404 -1652.214)" fill="#799f36"/>
      <path id="Caminho_7628" data-name="Caminho 7628" d="M289.86,1847.975H283.6v-.51a3.132,3.132,0,0,1,3.132-3.132h0a3.132,3.132,0,0,1,3.132,3.132Z" transform="translate(-250.563 -1652.214)" fill="#fbfbfb"/>
      <rect id="Retângulo_263" data-name="Retângulo 263" width="11.754" height="0.584" transform="translate(44.518 196.344) rotate(180)" fill="#f9e0d2"/>
      <path id="Caminho_7629" data-name="Caminho 7629" d="M443.56,1844.333a2.482,2.482,0,0,0,0,3.642h9.482l-.341-3.642h-5.29A4.061,4.061,0,0,1,443.56,1844.333Z" transform="translate(-347.186 -1652.214)" fill="#799f36"/>
      <rect id="Retângulo_264" data-name="Retângulo 264" width="12.948" height="0.584" transform="translate(96.048 195.76)" fill="#f9e0d2"/>
      <path id="Caminho_7630" data-name="Caminho 7630" d="M468.1,1844.333a3.132,3.132,0,0,1,3.132,3.132v.51H468.1Z" transform="translate(-362.589 -1652.214)" fill="#fbfbfb"/>
      <path id="Caminho_7631" data-name="Caminho 7631" d="M310.078,1412.071h0a9.775,9.775,0,0,0-7.617,7.672l-1.227,6.181,7.906.249Z" transform="translate(-261.272 -1389.764)" fill="#efd434"/>
      <path id="Caminho_7632" data-name="Caminho 7632" d="M242.614,1522.9a9.116,9.116,0,0,0-1.894.195c-.224.156-1.079,1.586-.586,2.407s1.264-1.493,1.264-1.493Z" transform="translate(-224.084 -1457.056)" fill="#f26d6d"/>
      <path id="Caminho_7633" data-name="Caminho 7633" d="M385.936,1428.812c-3.717-3.41-8.192-7.944-9.1-10.755-1.6-4.97,1.927-5.986,1.927-5.986a33.219,33.219,0,0,1,14.33,8.4,54.437,54.437,0,0,1-4.11,5.182A39.07,39.07,0,0,1,385.936,1428.812Z" transform="translate(-306.922 -1389.764)" fill="#ffea6e"/>
      <path id="Caminho_7634" data-name="Caminho 7634" d="M406.429,1431.376l-7.455,9.12-1.332-1.385,7.806-8.731Z" transform="translate(-319.808 -1400.88)" fill="#efd434" stroke="#efd434" stroke-width="1"/>
      <path id="Caminho_7635" data-name="Caminho 7635" d="M307.549,1445.037l-7.657-.257v1.588l7.447.163Z" transform="translate(-260.457 -1409.623)" fill="#efd434"/>
      <path id="Caminho_7636" data-name="Caminho 7636" d="M359.39,1408.741s-6.892,6.029-13.022-1.28" transform="translate(-288.676 -1386.964)" fill="none" stroke="#efd434" stroke-linecap="round" stroke-width="3.32"/>
      <g id="Grupo_10182" data-name="Grupo 10182" transform="translate(0 37.933)">
        <path id="Caminho_7637" data-name="Caminho 7637" d="M269.417,1459.331a101.384,101.384,0,0,1-34.43-7.485,101.386,101.386,0,0,1-34.71,6.059c-.751,4.617-3.56,25.084,9.7,43.785a57.9,57.9,0,0,0,23.633,19.214,57.9,57.9,0,0,0,24.405-18.223c14.023-18.138,12.061-38.7,11.5-43.347" transform="translate(-199.51 -1451.846)" fill="#799f36"/>
        <path id="Caminho_7638" data-name="Caminho 7638" d="M263.271,1458.9a101.324,101.324,0,0,1-28.284-7.054,101.386,101.386,0,0,1-34.71,6.059c-.751,4.617-3.56,25.084,9.7,43.785a57.03,57.03,0,0,0,17.138,15.824,57.891,57.891,0,0,0,24.376-18.211C263.5,1483.777,263.788,1466.475,263.271,1458.9Z" transform="translate(-199.51 -1451.846)" fill="#9ecc4d"/>
        <path id="Caminho_7639" data-name="Caminho 7639" d="M255.766,1520.847l12.758,13.3,13.47-12.925" transform="translate(-233.666 -1493.74)" fill="none" stroke="#fff" stroke-linecap="round" stroke-linejoin="round" stroke-width="8.58"/>
      </g>
      <path id="Caminho_7640" data-name="Caminho 7640" d="M381.263,1489.389c-.927.7-1.745,1.292-2.4,1.765l-.317.226c-.909.645-1.445,1-1.445,1l-.223-1.273-.445-2.546s4.567-6.99,8.977-12.695l.308-.4c.409-.524.816-1.036,1.217-1.529.767-.942,1.511-1.811,2.207-2.564,1.758.3,3.582.787,5.434,1.283,1.083.291,2.1.617,3.049.962-3.474,5.185-9.686,10.574-14.37,14.238C382.549,1488.415,381.881,1488.925,381.263,1489.389Z" transform="translate(-306.927 -1425.775)" fill="#fb9c98"/>
      <path id="Caminho_7641" data-name="Caminho 7641" d="M366.835,1518.379c-3.013.062-3.728.394-3.777.7-.068.428,1.054,1.293,2.225,1.025A2.034,2.034,0,0,0,366.835,1518.379Z" transform="translate(-298.808 -1454.309)" fill="#fb9c98"/>
      <path id="Caminho_7642" data-name="Caminho 7642" d="M369.212,1516.009l-1.485,1.033a5.467,5.467,0,0,1-1.293,1.976c-.352.341-1.844,1.786-3.465,1.384-1.141-.283-2.156-1.435-1.943-2.03a.743.743,0,0,1,.469-.392l6.379-5.987Z" transform="translate(-297.558 -1450.433)" fill="#fb9c98"/>
    </g>
  </g>
</svg>
