<?xml version="1.0" encoding="utf-8"?>
<!-- Generator: Adobe Illustrator 23.0.2, SVG Export Plug-In . SVG Version: 6.00 Build 0)  -->
<svg version="1.1" id="Camada_1" xmlns="http://www.w3.org/2000/svg" xmlns:xlink="http://www.w3.org/1999/xlink" x="0px" y="0px"
	 viewBox="0 0 160.91 134.95" style="enable-background:new 0 0 160.91 134.95;" xml:space="preserve">
<style type="text/css">
	.st0{fill:#3F3D56;}
	.st1{fill:#FFB6B6;}
	.st2{fill:#2F2E41;}
	.st3{fill:#F0F0F0;}
	.st4{fill:#FFFFFF;}
	.st5{fill:#E4E4E4;}
	.st6{fill:#9ECC4D;}
	.st7{fill:#9E616A;}
	.st8{fill:#E6E6E6;}
	.st9{opacity:0.2;enable-background:new    ;}
</style>
<g id="Card_3" transform="translate(-946 -2129.222)">
	<g id="undraw_Eating_together_re_ux62" transform="translate(1050.386 2146.289)">
		<path id="Caminho_7127" class="st0" d="M0.36,116.38l-30.14-54.35c-0.02-0.27-0.17-0.51-0.4-0.65c-0.13-0.08-0.28-0.11-0.43-0.11
			h-0.03c-0.43-0.02-0.8,0.3-0.83,0.73l-31.95,54.37c-0.25,0.37-0.14,0.88,0.23,1.12c0.37,0.25,0.88,0.14,1.12-0.23
			c0.02-0.03,0.03-0.05,0.05-0.08l31.37-53.39l29.61,53.39c0.2,0.4,0.69,0.56,1.09,0.36c0.4-0.2,0.56-0.69,0.36-1.09
			C0.38,116.43,0.37,116.4,0.36,116.38L0.36,116.38z"/>
		<path id="Caminho_7128" class="st1" d="M-35.63,107.05l3.41-0.78l-1.39-13.51l-5.03,1.15L-35.63,107.05z"/>
		<path id="Caminho_7129" class="st2" d="M-33,100.52l-4.85,1.11l-1.55-3.03l-0.08-0.1c-0.69-0.84-1.07-1.9-1.08-2.98l-4.03-10.66
			l-0.33-0.16c-0.99-0.47-1.41-1.65-0.94-2.64c0.04-0.08,0.08-0.15,0.13-0.23l-0.43-1.13l-12.04,0.02h-0.01L-73,76.58l1.55-9.25
			l4.16,2.62c1.37-0.09,24.84-1.53,27.01,3.73c1.93,4.68,4.71,12.69,6.71,18.58c0.1,0.26,0.22,0.52,0.37,0.76
			c0.31,0.48,0.49,1.03,0.53,1.6c0.02,0.25,0.07,0.49,0.14,0.73c0.45,1.72,0.29,3.54-0.45,5.16L-33,100.52z"/>
		<path id="Caminho_7130" class="st2" d="M-36.78,105.92l1.11-0.25l3.92-2.75l2.72,1.23l0,0c2.73-0.63,5.45,1.08,6.07,3.81
			l0.04,0.16l-12.69,2.91L-36.78,105.92z"/>
		<path id="Caminho_7131" class="st3" d="M-87.09,106.23c0.35-3.77,2.55-7.54,6.1-8.88c-1.29,3.91-1.15,8.15,0.38,11.97
			c0.6,1.47,1.42,3.04,0.95,4.56c-0.34,0.94-1.03,1.71-1.92,2.16c-0.89,0.44-1.83,0.76-2.8,0.96l-0.18,0.16
			C-86.2,113.74-87.43,110-87.09,106.23z"/>
		<path id="Caminho_7132" class="st4" d="M-80.95,97.41c-2.01,2.4-3.21,5.38-3.43,8.51c-0.06,0.67-0.01,1.35,0.14,2.01
			c0.17,0.64,0.5,1.22,0.97,1.68c0.46,0.41,0.88,0.87,1.23,1.38c0.32,0.56,0.38,1.23,0.17,1.84c-0.28,0.74-0.7,1.41-1.23,1.98
			c-0.62,0.62-1.09,1.37-1.37,2.2c-0.03,0.1-0.19,0.06-0.16-0.05c0.38-1.5,1.79-2.38,2.44-3.74c0.34-0.62,0.37-1.36,0.09-2.01
			c-0.33-0.54-0.74-1.02-1.22-1.42c-0.46-0.44-0.81-1-1.01-1.6c-0.18-0.65-0.26-1.32-0.21-1.99c0.07-1.51,0.38-3.01,0.92-4.43
			c0.6-1.62,1.48-3.13,2.59-4.46C-81,97.21-80.88,97.33-80.95,97.41z"/>
		<path id="Caminho_7133" class="st4" d="M-84.38,104.91c-1.07-0.22-1.83-1.19-1.78-2.29c0.01-0.05,0.05-0.08,0.09-0.07
			c0.04,0,0.07,0.04,0.07,0.07c-0.05,1.02,0.66,1.92,1.66,2.12C-84.22,104.77-84.27,104.93-84.38,104.91z"/>
		<path id="Caminho_7134" class="st4" d="M-83.53,109.41c0.91-0.59,1.57-1.49,1.85-2.54c0.03-0.1,0.19-0.06,0.16,0.05
			c-0.29,1.09-0.97,2.04-1.92,2.64C-83.54,109.61-83.62,109.47-83.53,109.41z"/>
		<path id="Caminho_7135" class="st4" d="M-82.89,100.28c0.39,0.17,0.84,0.13,1.2-0.1c0.09-0.06,0.17,0.09,0.08,0.15
			c-0.4,0.25-0.89,0.3-1.32,0.11c-0.04-0.01-0.07-0.06-0.06-0.1C-82.98,100.3-82.93,100.27-82.89,100.28z"/>
		<path id="Caminho_7136" class="st3" d="M-69.86,103.7c-0.05,0.04-0.11,0.08-0.17,0.12c-0.74,0.52-1.43,1.1-2.08,1.73
			c-0.05,0.05-0.1,0.1-0.15,0.15c-1.54,1.54-2.77,3.35-3.65,5.35c-0.35,0.79-0.63,1.61-0.86,2.45c-0.21,1.19-0.62,2.33-1.2,3.39
			c-0.07,0.1-0.14,0.2-0.22,0.29l-6.17,0.2l-0.04-0.02l-0.25,0.02c0.01-0.04,0.02-0.09,0.03-0.13c0-0.03,0.01-0.05,0.02-0.08
			s0.01-0.03,0.01-0.05v-0.02c0-0.02,0.01-0.03,0.01-0.04c0.05-0.25,0.11-0.51,0.17-0.76c0.09-0.38,0,0,0,0
			c0.42-1.94,1.07-3.82,1.93-5.61c0.03-0.05,0.05-0.11,0.08-0.16c0.4-0.79,0.87-1.55,1.39-2.27c0.29-0.39,0.6-0.77,0.92-1.13
			c0.85-0.93,1.83-1.72,2.92-2.34c2.13-1.29,4.68-1.7,7.11-1.13L-69.86,103.7z"/>
		<path id="Caminho_7137" class="st4" d="M-69.87,103.78c-3.05,0.71-5.8,2.36-7.86,4.72c-0.45,0.5-0.82,1.07-1.1,1.68
			c-0.25,0.61-0.33,1.27-0.23,1.92c0.12,0.6,0.18,1.22,0.15,1.84c-0.09,0.64-0.44,1.21-0.97,1.57c-0.66,0.42-1.4,0.71-2.18,0.84
			c-0.87,0.12-1.69,0.44-2.42,0.93c-0.08,0.07-0.18-0.07-0.1-0.13c1.2-0.96,2.87-0.82,4.2-1.52c0.64-0.29,1.12-0.86,1.28-1.55
			c0.06-0.63,0.02-1.26-0.12-1.87c-0.1-0.63-0.05-1.28,0.16-1.89c0.24-0.63,0.59-1.21,1.03-1.72c0.97-1.17,2.12-2.17,3.4-2.98
			c1.46-0.93,3.06-1.61,4.75-2C-69.78,103.59-69.76,103.75-69.87,103.78z"/>
		<path id="Caminho_7138" class="st4" d="M-77.11,107.7c-0.72-0.83-0.74-2.05-0.04-2.9c0.07-0.08,0.2,0.02,0.13,0.1
			c-0.65,0.79-0.63,1.93,0.04,2.69C-76.91,107.68-77.04,107.78-77.11,107.7z"/>
		<path id="Caminho_7139" class="st4" d="M-79.15,111.81c1.08,0.08,2.15-0.25,3-0.92c0.08-0.07,0.18,0.07,0.1,0.13
			c-0.89,0.7-2,1.04-3.13,0.95C-79.28,111.96-79.25,111.8-79.15,111.81z"/>
		<path id="Caminho_7140" class="st4" d="M-73.14,104.9c0.21,0.37,0.59,0.61,1.02,0.64c0.11,0.01,0.08,0.17-0.02,0.16
			c-0.47-0.03-0.89-0.3-1.13-0.71c-0.03-0.04-0.02-0.09,0.02-0.12C-73.22,104.85-73.17,104.86-73.14,104.9z"/>
		<path id="Caminho_7141" class="st3" d="M13.86,106.23c-0.35-3.77-2.55-7.54-6.1-8.88c1.29,3.91,1.15,8.15-0.39,11.97
			c-0.6,1.47-1.42,3.04-0.95,4.56c0.34,0.94,1.03,1.71,1.92,2.16c0.89,0.44,1.83,0.76,2.8,0.96l0.18,0.16
			C12.98,113.74,14.21,110,13.86,106.23z"/>
		<path id="Caminho_7142" class="st4" d="M7.72,97.41c2.01,2.4,3.21,5.38,3.43,8.51c0.06,0.67,0.01,1.35-0.14,2.01
			c-0.17,0.64-0.5,1.22-0.97,1.68c-0.46,0.41-0.88,0.87-1.23,1.38c-0.32,0.56-0.38,1.23-0.17,1.84c0.28,0.74,0.7,1.41,1.23,1.98
			c0.62,0.62,1.09,1.37,1.37,2.2c0.03,0.1,0.19,0.06,0.16-0.05c-0.38-1.5-1.79-2.38-2.44-3.74c-0.34-0.62-0.37-1.36-0.09-2.01
			c0.33-0.54,0.74-1.02,1.22-1.42c0.46-0.44,0.81-1,1.01-1.6c0.18-0.65,0.26-1.32,0.21-1.99c-0.07-1.51-0.38-3.01-0.91-4.43
			c-0.6-1.62-1.48-3.13-2.59-4.46C7.77,97.21,7.65,97.33,7.72,97.41L7.72,97.41z"/>
		<path id="Caminho_7143" class="st4" d="M11.15,104.91c1.07-0.22,1.83-1.19,1.78-2.29c-0.01-0.05-0.05-0.08-0.09-0.07
			c-0.04,0-0.07,0.04-0.07,0.07c0.05,1.02-0.66,1.92-1.66,2.13C11,104.77,11.04,104.93,11.15,104.91z"/>
		<path id="Caminho_7144" class="st4" d="M10.3,109.41c-0.91-0.59-1.57-1.49-1.84-2.54c-0.03-0.1-0.19-0.06-0.16,0.05
			c0.29,1.09,0.97,2.04,1.92,2.64C10.31,109.61,10.39,109.47,10.3,109.41z"/>
		<path id="Caminho_7145" class="st4" d="M9.66,100.28c-0.39,0.17-0.84,0.13-1.2-0.1c-0.09-0.06-0.17,0.09-0.08,0.15
			c0.4,0.25,0.89,0.3,1.32,0.11c0.04-0.01,0.07-0.06,0.06-0.1C9.75,100.3,9.71,100.27,9.66,100.28z"/>
		<path id="Caminho_7146" class="st3" d="M-3.37,103.7c0.05,0.04,0.11,0.08,0.16,0.12c0.74,0.52,1.43,1.1,2.08,1.73
			c0.05,0.05,0.1,0.1,0.15,0.15c1.54,1.54,2.77,3.35,3.65,5.35c0.35,0.79,0.63,1.61,0.86,2.45c0.21,1.19,0.62,2.33,1.2,3.39
			c0.07,0.1,0.14,0.2,0.22,0.29l6.17,0.2l0.04-0.02l0.25,0.02c-0.01-0.04-0.02-0.09-0.03-0.13c0-0.03-0.01-0.05-0.02-0.08
			s-0.01-0.03-0.01-0.05v-0.02c0-0.02-0.01-0.03-0.01-0.04c-0.05-0.25-0.11-0.51-0.17-0.76c-0.09-0.38,0,0,0,0
			c-0.42-1.94-1.07-3.82-1.93-5.61c-0.03-0.05-0.05-0.11-0.08-0.16c-0.4-0.79-0.87-1.55-1.39-2.27c-0.29-0.39-0.6-0.77-0.92-1.13
			c-0.85-0.93-1.83-1.72-2.92-2.34c-2.13-1.29-4.68-1.7-7.11-1.13L-3.37,103.7z"/>
		<path id="Caminho_7147" class="st4" d="M-3.36,103.78c3.05,0.71,5.8,2.36,7.86,4.72c0.45,0.5,0.82,1.07,1.1,1.68
			c0.25,0.61,0.33,1.27,0.23,1.92c-0.12,0.6-0.18,1.22-0.15,1.84c0.09,0.64,0.44,1.21,0.97,1.57c0.66,0.42,1.4,0.71,2.18,0.84
			c0.87,0.12,1.69,0.44,2.42,0.93c0.08,0.07,0.18-0.07,0.1-0.13c-1.21-0.96-2.87-0.82-4.2-1.52c-0.64-0.29-1.12-0.86-1.28-1.55
			c-0.06-0.63-0.02-1.26,0.12-1.87c0.1-0.63,0.05-1.28-0.16-1.89c-0.24-0.63-0.59-1.21-1.03-1.72c-0.97-1.17-2.12-2.17-3.4-2.98
			c-1.46-0.93-3.06-1.61-4.75-2C-3.45,103.59-3.46,103.75-3.36,103.78z"/>
		<path id="Caminho_7148" class="st4" d="M3.89,107.7c0.72-0.83,0.74-2.05,0.04-2.9c-0.07-0.08-0.2,0.02-0.13,0.1
			c0.65,0.79,0.63,1.93-0.04,2.69C3.68,107.68,3.81,107.78,3.89,107.7z"/>
		<path id="Caminho_7149" class="st4" d="M5.92,111.81c-1.08,0.08-2.15-0.25-3-0.92c-0.08-0.07-0.18,0.07-0.1,0.13
			c0.89,0.7,2,1.04,3.13,0.95C6.05,111.96,6.03,111.8,5.92,111.81L5.92,111.81z"/>
		<path id="Caminho_7150" class="st4" d="M-0.08,104.9c-0.21,0.37-0.59,0.61-1.02,0.64c-0.11,0.01-0.08,0.17,0.02,0.16
			c0.47-0.03,0.89-0.3,1.13-0.71c0.03-0.04,0.02-0.09-0.02-0.12C-0.01,104.86-0.06,104.86-0.08,104.9z"/>
		<path id="Caminho_7151" class="st0" d="M56.52,117.67c0,0.12-0.1,0.21-0.21,0.21h-160.48c-0.12,0-0.21-0.1-0.21-0.21
			c0-0.12,0.1-0.21,0.21-0.21H56.31C56.42,117.46,56.52,117.55,56.52,117.67L56.52,117.67z"/>
		<circle id="Elipse_112" class="st0" cx="-1.02" cy="33.98" r="0.81"/>
		<path id="Caminho_7152" class="st5" d="M-11.16,40.22l10.92-6.86c0.4-0.26,0.93-0.15,1.2,0.25s0.15,0.93-0.25,1.2
			c-0.03,0.02-0.06,0.04-0.09,0.05l-11.5,5.85c-0.13,0.08-0.3,0.03-0.38-0.11C-11.34,40.46-11.3,40.29-11.16,40.22L-11.16,40.22z"/>
		<path id="Caminho_7153" class="st6" d="M-33.08,54.99c-0.18-0.26-0.17-0.61,0.01-0.86c0.18-0.25,0.43-0.44,0.71-0.57
			c0.58-0.3,1.21-0.5,1.86-0.59c0.5,0,0.99-0.15,1.41-0.41c0.38-0.32,0.59-0.91,1.09-0.96c0.48-0.05,0.84,0.47,1.32,0.51
			c0.59,0.04,0.97-0.65,1.55-0.79c0.39-0.05,0.79,0.03,1.14,0.23l2.16,0.98l1.11,0.5c0.39,0.17,0.82,0.41,0.9,0.83
			c0.1,0.57-0.54,0.98-1.09,1.18c-3.9,1.44-8.19,1.44-12.09,0"/>
		<ellipse id="Elipse_113" class="st0" cx="-29.83" cy="61.52" rx="28.36" ry="4.05"/>
		<path id="Retângulo_231" class="st0" d="M8.25,86.64H27.7c0.89,0,1.62,0.73,1.62,1.62v0c0,0.89-0.73,1.62-1.62,1.62H8.25
			c-0.89,0-1.62-0.73-1.62-1.62v0C6.63,87.37,7.36,86.64,8.25,86.64z"/>
		<path id="Caminho_7154" class="st0" d="M37.12,57.75L30.7,88.26l1.67,7.81l3.16,14.74v6.62c0,0.01,0,0.02,0,0.03
			c0,0.15-0.03,0.29-0.08,0.43h-2.54c-0.05-0.14-0.08-0.28-0.08-0.43c0-0.01,0-0.02,0-0.03v-6.34l-2.87-13.38l-0.58-2.7l-1.12-5.23
			l-0.32-1.52l0,0l0.32-1.52l0.25-1.17l5.97-28.37c0.15-0.73,0.87-1.2,1.6-1.04S37.28,57.02,37.12,57.75L37.12,57.75L37.12,57.75z"
			/>
		<path id="Caminho_7155" class="st0" d="M9.61,88.26v29.17c0,0.01,0,0.02,0,0.03c0,0.15-0.03,0.29-0.08,0.43H6.99
			c-0.05-0.14-0.08-0.28-0.08-0.43c0-0.01,0-0.02,0-0.03V88.26c0-0.75,0.6-1.35,1.35-1.35C9,86.91,9.61,87.52,9.61,88.26L9.61,88.26
			z"/>
		<path id="Caminho_7156" class="st0" d="M11.5,83.4h12.96c2.68,0,4.86,2.18,4.86,4.86c0,0,0,0,0,0H6.63
			C6.63,85.58,8.81,83.4,11.5,83.4C11.5,83.4,11.5,83.4,11.5,83.4z"/>
		<path id="Caminho_7157" class="st0" d="M30.94,97.71H8.25c-0.75,0-1.35-0.6-1.35-1.35c0-0.75,0.6-1.35,1.35-1.35h22.69
			c0.75,0,1.35,0.6,1.35,1.35C32.29,97.11,31.69,97.71,30.94,97.71z"/>
		<path id="Retângulo_232" class="st0" d="M-51.95,89.93h-22.39c-1.03,0-1.87-0.84-1.87-1.87l0,0c0-1.03,0.84-1.87,1.87-1.87h22.39
			c1.03,0,1.87,0.84,1.87,1.87l0,0C-50.08,89.1-50.92,89.93-51.95,89.93z"/>
		<path id="Caminho_7158" class="st0" d="M-74.82,88.09l-0.41,1.71l-1.52,6.25l-0.65,2.7l-3.04,12.53v5.44
			c0,0.27-0.08,0.53-0.23,0.75c-0.12,0.18-0.28,0.33-0.46,0.43h-1.32c-0.19-0.1-0.35-0.25-0.46-0.43c-0.15-0.22-0.23-0.48-0.23-0.75
			v-5.76l3.38-13.92l2.18-8.99l-7.4-35.15c-0.15-0.73,0.31-1.44,1.04-1.6s1.44,0.31,1.6,1.04l6.84,32.49l0.32,1.5l0.37,1.75
			L-74.82,88.09z"/>
		<path id="Caminho_7159" class="st0" d="M-50.6,88.07v28.64c0,0.27-0.08,0.53-0.23,0.75c-0.12,0.18-0.28,0.33-0.46,0.43h-1.32
			c-0.19-0.1-0.34-0.25-0.46-0.43c-0.15-0.22-0.23-0.48-0.23-0.75V88.07c0-0.75,0.6-1.35,1.35-1.35S-50.6,87.32-50.6,88.07
			L-50.6,88.07z"/>
		<path id="Caminho_7160" class="st0" d="M-50.08,88.06h-26.12v-0.74c0-2.68,2.17-4.86,4.86-4.86c0,0,0,0,0,0h16.4
			c2.68,0,4.86,2.18,4.86,4.86c0,0,0,0,0,0V88.06z"/>
		<path id="Caminho_7161" class="st0" d="M-51.95,98.75h-26.12c-0.75,0-1.35-0.6-1.35-1.35c0-0.75,0.6-1.35,1.35-1.35h26.12
			c0.75,0,1.35,0.6,1.35,1.35C-50.6,98.14-51.2,98.75-51.95,98.75z"/>
		<path id="Caminho_7162" class="st7" d="M-18.37,110.52l-2.84-1.36l3.9-11.86l4.19,2L-18.37,110.52z"/>
		<path id="Caminho_7163" class="st7" d="M0.86,109.45l-3.05,0.75l-4.42-11.68l4.5-1.11L0.86,109.45z"/>
		<path id="Caminho_7164" class="st7" d="M-10.84,58.96c0.84,1.37,2.62,1.81,4.01,1.01c0.13-0.08,0.26-0.17,0.38-0.28l8.97,5.15
			l-0.39-5.29l-8.46-4.08c-0.95-0.95-2.42-1.14-3.58-0.47c-1.34,0.81-1.78,2.55-0.97,3.89C-10.86,58.92-10.85,58.94-10.84,58.96
			L-10.84,58.96z"/>
		<path id="Caminho_7165" class="st8" d="M-1.33,62.9l1.59,0.97l7.12,4.34c1.97,1.23,4.56,0.63,5.79-1.33c0,0,0,0,0,0
			c0.53-0.87,0.71-1.9,0.52-2.9l-3.16-15.82c-0.45-2.38-2.74-3.95-5.13-3.5c-0.22,0.04-0.43,0.1-0.64,0.17
			c-2.08,0.73-3.24,2.95-2.64,5.08l3.31,11.23l-5.08-2.37L-1.33,62.9z"/>
		<path id="Caminho_7166" class="st2" d="M-5.08,106.18l-4.88-9.79v-0.02l0.48-17.97c0.01-0.16,0.02-0.32,0.04-0.48
			c0.17-1.46,0.92-2.78,2.08-3.68c1.11-0.87,2.52-1.25,3.92-1.07l13.97,1.81L11,73l0.09-0.03l13.38-4.9l0.08,0.13
			c1.75,2.85,2.98,8.55,3.31,10.22v0.02l0.01,0.06c0.69,2.86-2.16,7.6-4.99,8.32c-5.97,1.52-11.31,0.34-17.5-1.04
			c-2.22-0.49-4.51-1-7.03-1.44l0.08,1.49c0.06,1.14,0.3,2.27,0.7,3.34c0.63,1.44,0.65,3.08,0.05,4.53l-0.36,1.05
			c0.38,1.06,0.25,2.23-0.37,3.17l-0.07,0.11l3.22,8.15L-5.08,106.18z"/>
		<path id="Caminho_7167" class="st2" d="M-13.11,101.85l-5.82-0.54l2.06-6.6c0.43-4.31,1.5-8.53,3.18-12.52l2.81-6.67
			c0.01-0.15,0.02-0.3,0.04-0.44c0.17-1.46,0.92-2.78,2.08-3.68c1.11-0.87,2.52-1.25,3.92-1.07l13.94,1.8l0.61-5.1l13.38-1.79
			l0.06,0.1c1.91,2.94,3.48,6.08,4.67,9.38c0.04,0.13,0.08,0.27,0.11,0.4c0.71,2.86-1.01,5.76-3.86,6.51
			c-7.19,1.83-15.84,1.78-27.2-0.16l-5.5,13.09c-0.53,1.25-1.18,2.44-1.94,3.56L-13.11,101.85z"/>
		<ellipse id="Elipse_114" class="st7" cx="7.21" cy="28.85" rx="6.75" ry="6.9"/>
		<path id="Caminho_7168" class="st5" d="M9.15,72.37l-0.97-3.47l-0.24-1.71l-1.39,0.05l-2.73-6.3l-1.06-1.66
			c-0.22-0.23-0.41-0.45-0.59-0.66c-1.11-1.25-1.99-2.68-2.62-4.22c-0.44-1.11-0.7-2.28-0.77-3.48c-0.2-3.52,1.29-7.25,4.54-11.39
			c-0.05-0.15-0.09-0.3-0.11-0.45c-0.12-1.05,0.62-2,1.67-2.13l3.14-0.35c0.49-0.06,0.99,0.09,1.37,0.4
			c0.4,0.32,0.66,0.79,0.71,1.31c0.04,0.39-0.04,0.79-0.22,1.14c3.27,0.41,5.99,2.7,6.95,5.85c1.88,3.5,3.37,7.2,4.46,11.02
			c0.16,0.75,0.17,1.52,0.03,2.27c-0.13,0.7-0.13,1.41-0.03,2.11c0.21,0.77,0.51,1.52,0.9,2.21c0.48,0.84,0.83,1.76,1.02,2.71
			l0.01,0.07L9.15,72.37z"/>
		<path id="Caminho_7169" class="st9" d="M-0.36,54.37c0.63,1.54,1.51,2.96,2.61,4.2c0.19,0.23,0.39,0.45,0.59,0.67l1.07,1.67
			c3.93-2.95,7.12-14.56,7.12-14.56l-4.44-0.86L-0.36,54.37z"/>
		<path id="Caminho_7170" class="st7" d="M-3.05,36.39c0.81,1.39,0.36,3.17-1,4.01c-0.13,0.08-0.28,0.15-0.42,0.21l0.31,10.34
			l-4.48-2.82l0.39-9.39c-0.39-1.28,0.13-2.67,1.27-3.38c1.34-0.81,3.08-0.38,3.89,0.96C-3.07,36.35-3.06,36.37-3.05,36.39
			L-3.05,36.39z"/>
		<path id="Caminho_7171" class="st8" d="M-3.77,47.05l-4.92,0.7l0.21,10.2c0.02,1.48,0.81,2.84,2.09,3.6l0,0
			c1.57,0.92,3.56,0.7,4.88-0.55l11.63-11.18c1.7-1.61,1.84-4.27,0.33-6.05l0,0c-1.49-1.76-4.13-1.99-5.89-0.5
			c-0.03,0.03-0.07,0.06-0.1,0.09c-0.11,0.1-0.22,0.21-0.33,0.33l-7.68,8.83L-3.77,47.05z"/>
		<path id="Caminho_7172" class="st1" d="M-44.95,113.57h3.5l1.66-13.48h-5.16V113.57z"/>
		<circle id="Elipse_115" class="st1" cx="-64.76" cy="28.97" r="6.98"/>
		<path id="Caminho_7173" class="st2" d="M-40.31,109.42h-4.95l-1.26-1.69l-0.34-1.59l-0.29-0.28c-0.82-0.79-0.99-2.04-0.41-3.02
			l-3.59-16.74c-0.94-0.08-11.54-1.03-18.9-2.33c-1.77-0.26-3.36-1.25-4.37-2.72c-2.5-3.62-1.43-9.48-1.42-9.54l0.01-0.07l0.07-0.01
			l17.2-1.93l0.02,0.01c0.57,0.27,14.01,6.65,16.2,8.84c0.99,0.99,3.2,6.88,3.7,13.15c0.02,1.15-0.17,2.29-0.54,3.37
			c-0.34,1-0.52,2.05-0.53,3.11c0.09,1.56,0.18,3.2,0.26,4.86c0.06,0.3,0.2,0.58,0.41,0.81c0.21,0.23,0.35,0.51,0.4,0.82
			c-0.01,1.77-0.59,3.5-1.64,4.92L-40.31,109.42z"/>
		<path id="Caminho_7174" class="st1" d="M-39.19,47.55c-1.42-0.39-2.88,0.45-3.26,1.86c-0.04,0.15-0.07,0.31-0.08,0.46l-5.8,1.81
			l0.24,3.79l8.15-2.67c1.48,0.04,2.7-1.13,2.73-2.61C-37.18,48.97-38,47.87-39.19,47.55L-39.19,47.55z"/>
		<path id="Caminho_7175" class="st6" d="M-42.97,53.83l-4.33,1.64l-0.11,0.21c-0.55,1.07-1.87,1.49-2.94,0.94l0,0l-9.74,3.69
			c0,0-4.35-4.35-7.45-8.24l1.05-6.49c0.24-1.51,0.76-2.95,1.53-4.27c6.35,1.39,9.99,10.27,9.99,10.27l11.44-2.18L-42.97,53.83z"/>
		<path id="Caminho_7176" class="st2" d="M-65.76,35.58c-1.8,0.4-3.68-0.1-5.04-1.35c-1.33-1.25-2.27-2.85-2.71-4.62
			c-0.45-1.26-0.44-2.64,0.04-3.89c0.54-1.27,1.98-1.88,3.27-1.4c-0.64-0.97-0.43-2.26,0.48-2.97c0.91-0.66,2-1.02,3.13-1.05
			c1.61-0.23,3.25-0.12,4.81,0.34c1.58,0.48,2.84,1.67,3.41,3.21c1.01,0.47,2.21,0.2,2.92-0.66c0.18,0.98-0.32,1.97-1.22,2.4
			l2.35-0.76c0.29,0.91-0.22,1.88-1.13,2.17c-0.03,0.01-0.06,0.02-0.08,0.02c-0.94,0.19-1.91,0.05-2.74-0.42
			c-0.82-0.47-1.71-0.82-2.63-1.05c-0.95-0.22-1.93,0.18-2.46,0.99c-0.17,0.46-0.3,0.95-0.37,1.44c-0.13,0.48-0.46,0.97-0.96,1.01
			c-0.31,0.02-0.62-0.14-0.93-0.11c-0.39,0.08-0.7,0.38-0.78,0.77c-0.08,0.38-0.08,0.78,0,1.16l0.6,4.56"/>
		<path id="Caminho_7177" class="st6" d="M-74.4,81.87L-74.4,81.87l-0.05-0.01l-0.02-0.05c-0.2-0.67-0.46-1.36-0.7-2.03
			c-0.36-0.92-0.67-1.87-0.92-2.83c-0.2-0.92-0.33-1.85-0.41-2.79c-0.07-0.68-0.14-1.38-0.26-2.08c0-0.33,0.12-0.64,0.35-0.88
			c0.19-0.2,0.3-0.46,0.32-0.74c-0.11-0.3-0.31-0.56-0.56-0.75c-0.29-0.22-0.5-0.52-0.61-0.87c-0.56-4.13-0.82-8.29-0.78-12.45
			c0.06-5.76,0.32-9.69,0.77-11.67c1.23-5.33,6.89-6.31,7.77-6.43c0.38-1.01,1.51-1.52,2.52-1.14c0.04,0.02,0.08,0.03,0.13,0.05
			l4.02,1.84c1.65,0.76,2.91,2.17,3.48,3.89l0.6,1.82l0.3,12.23l-1.66,8.61l3.24,4.86C-74.14,79.92-74.34,81.87-74.4,81.87z"/>
		<path id="Caminho_7178" class="st2" d="M-46.83,112.21h1.14l4.44-1.8l2.38,1.8l0,0c2.8,0,5.07,2.27,5.07,5.07v0.16h-13.02V112.21z
			"/>
		<path id="Caminho_7179" class="st1" d="M-37.73,56.28c-1.27-0.74-2.89-0.32-3.64,0.95c-0.08,0.13-0.15,0.28-0.2,0.42l-6.07,0.24
			l-0.82,2.83l8.63,0.44c1.41,0.42,2.9-0.38,3.33-1.79C-36.15,58.18-36.66,56.9-37.73,56.28L-37.73,56.28z"/>
		<path id="Caminho_7180" class="st6" d="M-42.72,61.46l-6.23-0.08l-0.79-0.01l-12.68-0.16c0,0-3.44-3.29-6.44-6.67l0.42-3.04
			c0.41-2.98,1.89-5.72,4.16-7.69c4.3,2.87,6.79,8.55,6.79,8.55l4.18,1.87l0,0c2.94,0.13,5.8,0.97,8.35,2.45l1.37,0.8L-42.72,61.46z
			"/>
		<path id="Caminho_7181" class="st2" d="M3.09,115.2l-2.07,0.51l-0.85-1.87l-0.47,2.19l-5.5,1.36c-0.68,0.17-1.37-0.25-1.54-0.93
			c-0.1-0.41,0.01-0.84,0.28-1.15l3.64-4.12l-0.49-1.98l4.69-0.86L3.09,115.2z"/>
		<path id="Caminho_7182" class="st2" d="M-18.88,115.84l-1.98-0.81l0.41-2.01l-1.67,1.5l-5.25-2.14c-0.65-0.27-0.96-1.01-0.7-1.66
			c0.16-0.39,0.5-0.67,0.9-0.76l5.37-1.18l0.77-1.89l4.3,2.06L-18.88,115.84z"/>
		<path id="Caminho_7183" class="st5" d="M-25.77,60.81h-1.62c-3.63,0-6.57-2.94-6.57-6.57v-0.09h14.76v0.09
			C-19.21,57.86-22.15,60.8-25.77,60.81z"/>
		<path id="Caminho_7184" class="st0" d="M-27.4,51.8c0,0.45-0.81,0.81-0.81,0.81s-0.81-0.36-0.81-0.81s0.81-0.81,0.81-0.81
			S-27.4,51.36-27.4,51.8z"/>
		<path id="Caminho_7185" class="st0" d="M-22.53,51.8c0,0.45-0.81,0.81-0.81,0.81s-0.81-0.36-0.81-0.81s0.81-0.81,0.81-0.81
			S-22.53,51.36-22.53,51.8z"/>
		<path id="Caminho_7186" class="st0" d="M-25.77,53.42c0,0.45-0.81,0.81-0.81,0.81s-0.81-0.36-0.81-0.81s0.81-0.81,0.81-0.81
			S-25.77,52.98-25.77,53.42z"/>
		<circle id="Elipse_116" class="st0" cx="-31.45" cy="49.28" r="0.81"/>
		<path id="Caminho_7187" class="st5" d="M-43.23,47.54l12.78,1.77c0.47,0.09,0.78,0.54,0.69,1.01s-0.54,0.78-1.01,0.69l0,0
			l-12.57-2.92c-0.15-0.03-0.25-0.17-0.22-0.32C-43.53,47.61-43.38,47.51-43.23,47.54L-43.23,47.54z"/>
		<path id="Caminho_7188" class="st3" d="M-27.7,7.28v-24.35h-1.62V7.28c-4.59,0.42-8.1,4.27-8.1,8.87v2.43h5.67
			c0,1.79,1.45,3.24,3.24,3.25c1.79,0,3.24-1.45,3.25-3.24c0,0,0-0.01,0-0.01h5.67v-2.43C-19.6,11.54-23.11,7.7-27.7,7.28
			L-27.7,7.28z"/>
		<path id="Caminho_7189" class="st3" d="M-6.84,1.19v-18.26h-1.22V1.19c-3.44,0.31-6.08,3.2-6.08,6.66v1.82h4.26
			c-0.03,1.34,1.04,2.45,2.38,2.48c1.34,0.03,2.45-1.04,2.48-2.38c0-0.03,0-0.06,0-0.1h4.25V7.85C-0.76,4.39-3.4,1.51-6.84,1.19
			L-6.84,1.19z"/>
		<path id="Caminho_7190" class="st3" d="M-47.89,1.19v-18.26h-1.21V1.19c-3.44,0.31-6.08,3.2-6.08,6.66v1.82h4.26
			c-0.03,1.34,1.04,2.45,2.38,2.48c1.34,0.03,2.45-1.04,2.48-2.38c0-0.03,0-0.07,0-0.1h4.25V7.85C-41.81,4.39-44.45,1.51-47.89,1.19
			L-47.89,1.19z"/>
		<path id="Caminho_7191" class="st2" d="M25.26,25.86c-1.15-1.34-1.69-3.11-2.61-4.63s-2.51-2.88-4.2-2.52
			c-1.18,0.34-2.12,1.25-2.51,2.41c-0.39,1.17-0.6,2.4-0.62,3.64c0.01-2.56-1.56-4.87-3.95-5.81c-2.4-0.78-5.03,0.08-6.51,2.13
			c-1.31-1.21-3.31-1.25-4.67-0.1c-1.31,1.27-1.57,3.27-0.63,4.83c0.99,1.49,2.93,2,4.53,1.21l0.53,0.49
			c-0.29,1.09,0.25,2.22,1.26,2.69c0.8,0.32,1.92,0.27,2.22,1.1c0.11,0.62-0.11,1.25-0.59,1.65c-0.48,0.39-0.82,0.93-0.96,1.53
			c-0.08,0.94,0.89,1.59,1.77,1.79c2.21,0.44,4.46-0.5,5.7-2.38c0.02-0.04,0.05-0.07,0.08-0.11c1.39-1.77,1.98-4.04,1.65-6.26
			c-0.07-0.43,0-0.75,0.3-0.86c1.29-0.44,4.9,0.49,5.99,1.33s1.97,1.95,3.02,2.85c0.99,0.97,2.35,1.46,3.73,1.34
			c1.09-0.26,2.02-0.95,2.59-1.91c0.58-0.97,1.01-2.02,1.28-3.12C30.2,28.52,27.12,27.98,25.26,25.86z"/>
	</g>
</g>
</svg>
