<?xml version="1.0" encoding="utf-8"?>
<!-- Generator: Adobe Illustrator 23.0.2, SVG Export Plug-In . SVG Version: 6.00 Build 0)  -->
<svg version="1.1" id="Camada_1" xmlns="http://www.w3.org/2000/svg" xmlns:xlink="http://www.w3.org/1999/xlink" x="0px" y="0px"
	 viewBox="0 0 235.31 140.34" style="enable-background:new 0 0 235.31 140.34;" xml:space="preserve">
<style type="text/css">
	.st0{fill:#F0F0F0;}
	.st1{fill:#FFFFFF;}
	.st2{fill:#E4E4E4;}
	.st3{fill:#CACACA;}
	.st4{fill:#9ECC4D;}
	.st5{fill:#3F3D56;}
</style>
<g id="Card_2" transform="translate(-543 -2129.222)">
	<g id="Grupo_10016">
		<g id="undraw_Responsive_re_e1nn" transform="translate(601 2145.018)">
			<path id="Caminho_7062" class="st0" d="M-44.14,91.87c-6.93-2.52-12.94-8.55-13.7-15.88c6.72,4.36,14.77,6.2,22.73,5.2
				c3.07-0.4,6.43-1.16,9.06,0.48c1.6,1.11,2.71,2.79,3.11,4.69c0.38,1.89,0.53,3.82,0.42,5.74l0.22,0.43
				C-29.54,93.93-37.21,94.39-44.14,91.87z"/>
			<path id="Caminho_7063" class="st1" d="M-57.69,75.96c3.53,4.98,8.54,8.71,14.31,10.68c1.24,0.45,2.53,0.69,3.85,0.73
				c1.28,0,2.54-0.35,3.64-1c1-0.67,2.07-1.22,3.2-1.63c1.21-0.32,2.5-0.1,3.54,0.59c1.25,0.88,2.3,2,3.11,3.3
				c0.86,1.47,2.04,2.73,3.46,3.67c0.18,0.1,0.01,0.38-0.17,0.28c-2.63-1.46-3.6-4.55-5.83-6.44c-1-0.94-2.38-1.37-3.73-1.16
				c-1.17,0.35-2.28,0.89-3.28,1.59c-1.07,0.65-2.28,1.03-3.52,1.11c-1.31,0.03-2.62-0.17-3.86-0.59c-2.82-0.88-5.48-2.2-7.88-3.91
				c-2.75-1.93-5.16-4.33-7.11-7.07C-58.09,75.94-57.8,75.78-57.69,75.96L-57.69,75.96z"/>
			<path id="Caminho_7064" class="st1" d="M-45.27,86.11c-0.95,1.91-3.15,2.84-5.19,2.21c-0.2-0.06-0.11-0.38,0.09-0.31
				c1.9,0.59,3.94-0.29,4.82-2.07C-45.46,85.76-45.18,85.93-45.27,86.11z"/>
			<path id="Caminho_7065" class="st1" d="M-36.38,86.74c-0.65-2.01-2.03-3.7-3.88-4.73c-0.18-0.1-0.01-0.38,0.17-0.28
				c1.91,1.08,3.35,2.84,4.02,4.93C-36,86.86-36.31,86.94-36.38,86.74z"/>
			<path id="Caminho_7066" class="st1" d="M-53.25,81.02c0.51-0.65,0.67-1.51,0.41-2.3c-0.07-0.2,0.25-0.28,0.32-0.08
				c0.28,0.87,0.12,1.83-0.44,2.55c-0.05,0.07-0.15,0.1-0.22,0.05C-53.27,81.2-53.3,81.1-53.25,81.02
				C-53.25,81.02-53.25,81.02-53.25,81.02z"/>
			<path id="Caminho_7067" class="st0" d="M-40.36,58.18c0.05,0.12,0.09,0.25,0.14,0.37c0.61,1.65,1.36,3.24,2.23,4.77
				c0.07,0.12,0.13,0.24,0.2,0.36c2.14,3.66,4.94,6.88,8.26,9.52c1.32,1.05,2.72,1.99,4.18,2.83c2.02,1.15,4.31,2.24,5.79,3.94
				c0.16,0.18,0.3,0.36,0.43,0.55l-2.68,11.71c-0.02,0.02-0.04,0.05-0.06,0.07l-0.09,0.47l-0.24-0.12
				c-0.05-0.02-0.09-0.05-0.14-0.07c-0.03-0.02-0.06-0.03-0.09-0.04l-0.03-0.02c-0.03-0.01-0.05-0.03-0.08-0.04
				c-0.45-0.23-0.9-0.46-1.35-0.69c-0.67-0.35,0,0,0,0c-3.44-1.75-6.67-3.91-9.61-6.42c-0.09-0.08-0.18-0.15-0.26-0.23
				c-1.29-1.15-2.49-2.4-3.58-3.74c-0.59-0.74-1.15-1.51-1.67-2.3c-1.33-2.05-2.33-4.3-2.96-6.66c-1.38-4.65-0.88-9.66,1.39-13.95
				C-40.48,58.4-40.42,58.29-40.36,58.18z"/>
			<path id="Caminho_7068" class="st1" d="M-40.21,58.24c-0.18,6.1,1.57,12.1,5,17.14c0.72,1.1,1.61,2.08,2.63,2.9
				c1.02,0.77,2.23,1.25,3.5,1.4c1.2,0.06,2.39,0.27,3.54,0.63c1.16,0.48,2.06,1.42,2.47,2.6c0.46,1.46,0.63,2.99,0.49,4.51
				c-0.2,1.69-0.01,3.41,0.55,5.01c0.08,0.19-0.22,0.31-0.3,0.12c-1.22-2.75-0.13-5.8-0.78-8.65c-0.23-1.35-1.07-2.53-2.28-3.18
				c-1.15-0.42-2.36-0.66-3.58-0.7c-1.24-0.12-2.44-0.55-3.48-1.24c-1.06-0.77-1.98-1.71-2.73-2.79c-1.72-2.4-3.04-5.06-3.94-7.87
				c-1.03-3.21-1.51-6.57-1.42-9.93C-40.53,57.99-40.21,58.04-40.21,58.24L-40.21,58.24z"/>
			<path id="Caminho_7069" class="st1" d="M-36.42,73.83c-1.91,0.95-4.23,0.38-5.47-1.36c-0.12-0.17,0.14-0.37,0.26-0.2
				c1.16,1.62,3.32,2.15,5.09,1.25C-36.35,73.43-36.23,73.73-36.42,73.83z"/>
			<path id="Caminho_7070" class="st1" d="M-29.69,79.69c0.69-2,0.6-4.18-0.24-6.11c-0.08-0.19,0.22-0.31,0.3-0.12
				c0.88,2.01,0.96,4.29,0.24,6.36C-29.46,80.01-29.76,79.88-29.69,79.69z"/>
			<path id="Caminho_7071" class="st1" d="M-39.73,64.96c0.8-0.21,1.45-0.81,1.71-1.6c0.07-0.2,0.36-0.07,0.3,0.13
				c-0.3,0.87-1.01,1.53-1.89,1.77c-0.08,0.03-0.18-0.01-0.21-0.09C-39.85,65.09-39.81,65-39.73,64.96z"/>
			<path id="Caminho_7072" class="st0" d="M165.5,91.63c6.56-3.35,11.79-10.07,11.65-17.44c-6.14,5.16-13.9,7.97-21.91,7.96
				c-3.09-0.02-6.53-0.36-8.93,1.59c-1.45,1.3-2.35,3.1-2.51,5.04c-0.15,1.92-0.05,3.85,0.29,5.75l-0.16,0.45
				C151.27,95.47,158.93,94.98,165.5,91.63z"/>
			<path id="Caminho_7073" class="st1" d="M176.99,74.17c-2.89,5.37-7.4,9.7-12.89,12.36c-1.17,0.59-2.43,1-3.73,1.2
				c-1.27,0.16-2.56-0.03-3.73-0.54c-1.07-0.54-2.21-0.95-3.38-1.22c-1.24-0.17-2.49,0.21-3.44,1.02c-1.13,1.03-2.04,2.27-2.68,3.66
				c-0.67,1.57-1.69,2.96-2.98,4.07c-0.17,0.12,0.03,0.38,0.2,0.26c2.43-1.77,3.01-4.96,5-7.11c0.87-1.06,2.19-1.66,3.56-1.61
				c1.21,0.21,2.37,0.6,3.45,1.18c1.14,0.51,2.38,0.74,3.63,0.66c1.3-0.14,2.57-0.49,3.76-1.05c2.69-1.22,5.16-2.86,7.34-4.85
				c2.5-2.26,4.59-4.93,6.19-7.9C177.39,74.1,177.09,73.99,176.99,74.17z"/>
			<path id="Caminho_7074" class="st1" d="M165.92,85.77c1.18,1.78,3.47,2.44,5.42,1.56c0.19-0.09,0.06-0.39-0.13-0.3
				c-1.81,0.82-3.95,0.2-5.04-1.46C166.06,85.4,165.8,85.6,165.92,85.77z"/>
			<path id="Caminho_7075" class="st1" d="M157.17,87.49c0.4-2.07,1.56-3.92,3.26-5.17c0.17-0.12-0.03-0.38-0.2-0.26
				c-1.77,1.31-2.98,3.23-3.39,5.39C156.81,87.66,157.13,87.7,157.17,87.49L157.17,87.49z"/>
			<path id="Caminho_7076" class="st1" d="M173.21,79.75c-0.59-0.58-0.85-1.42-0.69-2.24c0.04-0.21-0.28-0.24-0.32-0.04
				c-0.17,0.9,0.11,1.83,0.75,2.47c0.06,0.07,0.16,0.08,0.23,0.03C173.25,79.92,173.26,79.82,173.21,79.75z"/>
			<path id="Caminho_7077" class="st0" d="M157.61,58.66c-0.03,0.13-0.06,0.26-0.09,0.38c-0.41,1.71-0.95,3.38-1.63,5.01
				c-0.05,0.13-0.1,0.25-0.16,0.38c-1.67,3.89-4.06,7.44-7.03,10.46c-1.18,1.2-2.45,2.31-3.8,3.32c-1.87,1.39-4,2.75-5.26,4.63
				c-0.13,0.19-0.26,0.39-0.36,0.6l4.1,11.29c0.02,0.02,0.04,0.04,0.06,0.06l0.14,0.46l0.22-0.14c0.04-0.03,0.08-0.06,0.13-0.08
				s0.06-0.04,0.08-0.05l0.03-0.02c0.03-0.02,0.05-0.03,0.07-0.05c0.42-0.28,0.84-0.57,1.26-0.85c0.63-0.43,0,0,0,0
				c3.2-2.16,6.14-4.7,8.74-7.55c0.08-0.09,0.16-0.17,0.23-0.27c1.14-1.3,2.17-2.69,3.09-4.15c0.5-0.8,0.96-1.63,1.37-2.48
				c1.07-2.2,1.78-4.55,2.12-6.98c0.8-4.79-0.31-9.7-3.1-13.67C157.75,58.86,157.68,58.76,157.61,58.66z"/>
			<path id="Caminho_7078" class="st1" d="M157.47,58.74c0.93,6.03-0.07,12.2-2.85,17.63c-0.58,1.18-1.34,2.26-2.25,3.2
				c-0.92,0.89-2.06,1.52-3.31,1.82c-1.18,0.21-2.34,0.57-3.43,1.06c-1.09,0.61-1.87,1.67-2.13,2.89c-0.28,1.5-0.26,3.04,0.07,4.54
				c0.41,1.65,0.43,3.38,0.07,5.04c-0.06,0.2,0.25,0.28,0.31,0.08c0.87-2.88-0.58-5.77-0.29-8.68c0.06-1.37,0.75-2.64,1.87-3.43
				c1.09-0.56,2.26-0.95,3.47-1.14c1.22-0.27,2.35-0.84,3.3-1.65c0.96-0.89,1.76-1.94,2.37-3.11c1.41-2.6,2.4-5.4,2.94-8.3
				c0.63-3.31,0.7-6.7,0.18-10.03C157.75,58.44,157.44,58.53,157.47,58.74L157.47,58.74z"/>
			<path id="Caminho_7079" class="st1" d="M155.62,74.67c2.01,0.71,4.24-0.15,5.27-2.02c0.1-0.18-0.18-0.35-0.28-0.16
				c-0.95,1.74-3.03,2.54-4.9,1.87C155.5,74.29,155.42,74.6,155.62,74.67L155.62,74.67z"/>
			<path id="Caminho_7080" class="st1" d="M149.67,81.31c-0.93-1.9-1.11-4.08-0.51-6.1c0.06-0.2-0.25-0.28-0.31-0.08
				c-0.62,2.11-0.43,4.37,0.54,6.34C149.48,81.66,149.76,81.5,149.67,81.31z"/>
			<path id="Caminho_7081" class="st1" d="M157.81,65.47c-0.82-0.11-1.53-0.63-1.89-1.37c-0.09-0.19-0.37-0.02-0.28,0.16
				c0.4,0.82,1.19,1.39,2.09,1.52c0.09,0.02,0.17-0.03,0.2-0.12C157.95,65.58,157.9,65.49,157.81,65.47
				C157.81,65.47,157.81,65.47,157.81,65.47z"/>
			<path id="Caminho_7082" class="st1" d="M146.97-10.97h-46.25V-8c0,0.15,0.05,0.3,0.15,0.42c-0.09,2.32-0.15,5.29-0.15,8.52v79.53
				c0,7.45,0.3,13.52,0.67,13.52h44.91c0.37,0,0.67-6.07,0.67-13.52V0.94c0-3.23-0.05-6.19-0.15-8.52c0.1-0.12,0.15-0.27,0.15-0.42
				L146.97-10.97z"/>
			<path id="Caminho_7083" class="st2" d="M146.31,94.32H101.4c-0.35,0-0.58,0-0.79-4.27c-0.13-2.56-0.2-5.96-0.2-9.57V0.94
				c0-3.12,0.05-6.15,0.15-8.53c0.06-1.43,0.13-2.58,0.2-3.41c0.15-1.63,0.29-1.9,0.64-1.9h44.91c0.35,0,0.49,0.27,0.64,1.9
				c0.08,0.83,0.14,1.98,0.2,3.41l0,0c0.1,2.38,0.15,5.41,0.15,8.53v79.53c0,3.61-0.07,7.01-0.2,9.57
				C146.89,94.32,146.66,94.32,146.31,94.32z M101.58,93.67h44.55c0.23-0.88,0.53-5.65,0.53-13.2V0.94c0-3.11-0.05-6.13-0.15-8.51
				l0,0c-0.06-1.42-0.13-2.55-0.2-3.38c-0.03-0.44-0.09-0.88-0.18-1.32h-44.54c-0.09,0.43-0.15,0.87-0.18,1.32
				c-0.07,0.82-0.14,1.96-0.2,3.38c-0.1,2.38-0.15,5.4-0.15,8.51v79.53C101.05,88.02,101.34,92.79,101.58,93.67z"/>
			<path id="Caminho_7084" class="st3" d="M146.3-12.58h-44.91c-0.37,0-0.67,0.3-0.67,0.67V-8c0,0.15,0.05,0.3,0.15,0.42
				c0.13,0.16,0.32,0.25,0.52,0.25h44.91c0.2,0,0.39-0.09,0.52-0.25c0.1-0.12,0.15-0.27,0.15-0.42v-3.92
				C146.97-12.28,146.67-12.58,146.3-12.58z"/>
			<circle id="Ellipse_90" class="st1" cx="104.59" cy="-10.15" r="0.94"/>
			<circle id="Ellipse_91" class="st1" cx="108.18" cy="-10.15" r="0.94"/>
			<circle id="Ellipse_92" class="st1" cx="111.77" cy="-10.15" r="0.94"/>
			<path id="Caminho_7085" class="st1" d="M142.79-11.41h-4.14c-0.17,0-0.3,0.14-0.3,0.31c0,0.05,0.01,0.09,0.03,0.13
				c0.05,0.11,0.16,0.17,0.27,0.17h4.13c0.12,0,0.23-0.07,0.28-0.17c0.02-0.04,0.03-0.09,0.03-0.13
				C143.09-11.27,142.96-11.41,142.79-11.41C142.79-11.41,142.79-11.41,142.79-11.41L142.79-11.41z"/>
			<path id="Caminho_7086" class="st1" d="M142.79-10.26h-4.14c-0.17,0.01-0.3,0.15-0.29,0.32c0.01,0.16,0.13,0.28,0.29,0.29h4.13
				c0.17,0.01,0.31-0.12,0.32-0.29c0.01-0.17-0.12-0.31-0.29-0.32C142.81-10.26,142.8-10.26,142.79-10.26L142.79-10.26z"/>
			<path id="Caminho_7087" class="st1" d="M142.79-9.11h-4.14c-0.17,0.01-0.3,0.15-0.29,0.32c0.01,0.16,0.13,0.28,0.29,0.29h4.13
				c0.17,0.01,0.31-0.12,0.32-0.29c0.01-0.17-0.12-0.31-0.29-0.32C142.81-9.11,142.8-9.11,142.79-9.11L142.79-9.11z"/>
			<path id="Caminho_7088" class="st4" d="M128.32,1.25h-8.5c-0.89,0-1.61,0.72-1.61,1.61v7.36c0,0.89,0.72,1.61,1.61,1.61h8.5
				c0.89,0,1.61-0.72,1.61-1.61V2.86C129.92,1.97,129.2,1.26,128.32,1.25z"/>
			<path id="Caminho_7089" class="st2" d="M138.89,16.65h-29.64c-0.4,0-0.73,0.33-0.73,0.73c0,0.4,0.33,0.73,0.73,0.73h29.64
				c0.4,0,0.73-0.33,0.73-0.73C139.61,16.97,139.29,16.65,138.89,16.65z"/>
			<path id="Caminho_7090" class="st2" d="M120.5,20.07h-11.26c-0.4,0-0.73,0.33-0.73,0.73c0,0.4,0.33,0.73,0.73,0.73h11.26
				c0.4,0,0.73-0.33,0.73-0.73C121.23,20.4,120.9,20.07,120.5,20.07z"/>
			<path id="Caminho_7091" class="st4" d="M128.32,33.09h-8.5c-0.89,0-1.61,0.72-1.61,1.61v7.36c0,0.89,0.72,1.61,1.61,1.61h8.5
				c0.89,0,1.61-0.72,1.61-1.61V34.7C129.92,33.81,129.2,33.1,128.32,33.09z"/>
			<path id="Caminho_7092" class="st2" d="M138.89,48.49h-29.64c-0.4,0-0.73,0.33-0.73,0.73c0,0.4,0.33,0.73,0.73,0.73h29.64
				c0.4,0,0.73-0.33,0.73-0.73C139.61,48.81,139.29,48.49,138.89,48.49z"/>
			<path id="Caminho_7093" class="st2" d="M120.5,51.91h-11.26c-0.4,0-0.73,0.33-0.73,0.73c0,0.4,0.33,0.73,0.73,0.73h11.26
				c0.4,0,0.73-0.33,0.73-0.73C121.23,52.24,120.9,51.91,120.5,51.91z"/>
			<path id="Caminho_7094" class="st4" d="M128.32,64.93h-8.5c-0.89,0-1.61,0.72-1.61,1.61v7.36c0,0.89,0.72,1.61,1.61,1.61h8.5
				c0.89,0,1.61-0.72,1.61-1.61v-7.36C129.92,65.65,129.2,64.93,128.32,64.93L128.32,64.93z"/>
			<path id="Caminho_7095" class="st2" d="M138.89,80.33h-29.64c-0.4,0-0.73,0.33-0.73,0.73c0,0.4,0.33,0.73,0.73,0.73h29.64
				c0.4,0,0.73-0.33,0.73-0.73C139.62,80.65,139.29,80.33,138.89,80.33z"/>
			<path id="Caminho_7096" class="st2" d="M120.5,83.75h-11.26c-0.4,0-0.73,0.33-0.73,0.73c0,0.4,0.33,0.73,0.73,0.73h11.26
				c0.4,0,0.73-0.33,0.73-0.73C121.23,84.07,120.91,83.75,120.5,83.75L120.5,83.75z"/>
			<path id="Caminho_7097" class="st1" d="M88.12-14.81c0-0.37-0.3-0.67-0.67-0.67H-31.43c-0.37,0-0.67,0.3-0.67,0.67v3.92
				c0,0.16,0.06,0.32,0.17,0.44c-0.11,2.66-0.17,6.16-0.17,10.01v88.41c0,8.29,0.3,15.03,0.67,15.03H87.45
				c0.37,0,0.67-6.74,0.67-15.03V-0.45c0-3.84-0.06-7.35-0.17-10.01c0.11-0.12,0.17-0.28,0.17-0.44L88.12-14.81z"/>
			<path id="Caminho_7098" class="st2" d="M87.45,103.32H-31.43c-0.36,0-0.58,0-0.79-4.71c-0.13-2.85-0.2-6.63-0.2-10.64V-0.45
				c0-3.7,0.06-7.26,0.17-10.02c0.21-5.33,0.45-5.33,0.82-5.33H87.45c0.36,0,0.61,0,0.82,5.33l0,0c0.11,2.76,0.17,6.32,0.17,10.02
				v88.41c0,4.01-0.07,7.79-0.2,10.64C88.03,103.32,87.81,103.32,87.45,103.32z M-31.25,102.68H87.26
				c0.26-1.01,0.53-6.67,0.53-14.71V-0.45c0-3.7-0.06-7.24-0.17-9.99l0,0c-0.01-1.58-0.13-3.15-0.36-4.71h-118.5
				c-0.24,1.56-0.36,3.14-0.36,4.71c-0.11,2.75-0.17,6.3-0.17,9.99v88.41C-31.78,96.01-31.51,101.67-31.25,102.68L-31.25,102.68z"/>
			<path id="Caminho_7099" class="st3" d="M87.45-15.48H-31.43c-0.37,0-0.67,0.3-0.67,0.67v3.92c0,0.16,0.06,0.32,0.17,0.44
				c0.13,0.14,0.31,0.23,0.5,0.23H87.45c0.19,0,0.37-0.08,0.5-0.23c0.11-0.12,0.17-0.28,0.17-0.44v-3.92
				C88.12-15.18,87.82-15.48,87.45-15.48C87.45-15.48,87.45-15.48,87.45-15.48z"/>
			<circle id="Ellipse_90-2" class="st1" cx="-28.23" cy="-13.04" r="0.94"/>
			<circle id="Ellipse_91-2" class="st1" cx="-24.65" cy="-13.04" r="0.94"/>
			<circle id="Ellipse_92-2" class="st1" cx="-21.06" cy="-13.04" r="0.94"/>
			<path id="Caminho_7100" class="st1" d="M83.94-14.31H79.8c-0.17,0.01-0.3,0.15-0.29,0.32c0.01,0.16,0.13,0.28,0.29,0.29h4.13
				c0.17,0.01,0.31-0.12,0.32-0.29c0.01-0.17-0.12-0.31-0.29-0.32C83.95-14.31,83.94-14.31,83.94-14.31L83.94-14.31z"/>
			<path id="Caminho_7101" class="st1" d="M83.94-13.16H79.8c-0.17,0.01-0.3,0.15-0.29,0.32c0.01,0.16,0.13,0.28,0.29,0.29h4.13
				c0.17,0.01,0.31-0.12,0.32-0.29c0.01-0.17-0.12-0.31-0.29-0.32C83.95-13.16,83.94-13.16,83.94-13.16L83.94-13.16z"/>
			<path id="Caminho_7102" class="st1" d="M83.94-12.01H79.8c-0.17,0.01-0.3,0.15-0.29,0.32c0.01,0.16,0.13,0.28,0.29,0.29h4.13
				c0.17,0.01,0.31-0.12,0.32-0.29c0.01-0.17-0.12-0.31-0.29-0.32C83.95-12.01,83.94-12.01,83.94-12.01L83.94-12.01z"/>
			<path id="Caminho_7103" class="st4" d="M6.99,4.15H-6.92c-1.45,0-2.63,1.18-2.63,2.63v12.05c0,1.45,1.18,2.63,2.63,2.63H6.99
				c1.45,0,2.63-1.18,2.63-2.63V6.78C9.62,5.33,8.44,4.15,6.99,4.15z"/>
			<path id="Caminho_7104" class="st2" d="M64.38,8.81H15.88c-0.66,0-1.2,0.54-1.2,1.2s0.54,1.2,1.2,1.2h48.49
				c0.66,0,1.2-0.54,1.2-1.2S65.04,8.81,64.38,8.81L64.38,8.81L64.38,8.81z"/>
			<path id="Caminho_7105" class="st2" d="M34.3,14.41H15.88c-0.66,0-1.2,0.54-1.2,1.2c0,0.66,0.54,1.2,1.2,1.2H34.3
				c0.66,0,1.2-0.54,1.2-1.2C35.5,14.94,34.96,14.41,34.3,14.41z"/>
			<path id="Caminho_7106" class="st4" d="M6.99,36.31H-6.92c-1.45,0-2.63,1.18-2.63,2.63v12.05c0,1.45,1.18,2.63,2.63,2.63H6.99
				c1.45,0,2.63-1.18,2.63-2.63V38.94C9.62,37.49,8.44,36.31,6.99,36.31z"/>
			<path id="Caminho_7107" class="st2" d="M64.38,40.97H15.88c-0.66,0-1.2,0.54-1.2,1.2s0.54,1.2,1.2,1.2h48.49
				c0.66,0,1.2-0.54,1.2-1.2S65.04,40.97,64.38,40.97L64.38,40.97L64.38,40.97z"/>
			<path id="Caminho_7108" class="st2" d="M34.3,46.57H15.88c-0.66,0-1.2,0.54-1.2,1.2s0.54,1.2,1.2,1.2H34.3
				c0.66,0,1.2-0.54,1.2-1.2S34.96,46.57,34.3,46.57z"/>
			<path id="Caminho_7109" class="st4" d="M6.99,68.47H-6.92c-1.45,0-2.63,1.18-2.63,2.63v12.05c0,1.45,1.18,2.63,2.63,2.63H6.99
				c1.45,0,2.63-1.18,2.63-2.63V71.1C9.62,69.65,8.44,68.47,6.99,68.47z"/>
			<path id="Caminho_7110" class="st2" d="M64.38,73.13H15.88c-0.66,0-1.2,0.54-1.2,1.2s0.54,1.2,1.2,1.2h48.49
				c0.66,0,1.2-0.54,1.2-1.2S65.04,73.13,64.38,73.13L64.38,73.13L64.38,73.13z"/>
			<path id="Caminho_7111" class="st2" d="M34.3,78.73H15.88c-0.66,0-1.2,0.54-1.2,1.2s0.54,1.2,1.2,1.2H34.3
				c0.66,0,1.2-0.54,1.2-1.2S34.96,78.73,34.3,78.73z"/>
			<path id="Caminho_7112" class="st1" d="M108.68,124.23H29.03c-0.37,0-0.67-5.64-0.67-12.58V37.63c0-6.94,0.3-12.58,0.67-12.58
				h79.65c0.37,0,0.67,5.64,0.67,12.58v74.01C109.34,118.58,109.04,124.23,108.68,124.23z"/>
			<path id="Caminho_7113" class="st2" d="M108.68,124.55H29.03c-0.34,0-0.58,0-0.79-3.99c-0.13-2.39-0.2-5.55-0.2-8.91V37.63
				c0-3.36,0.07-6.52,0.2-8.91c0.21-3.99,0.45-3.99,0.79-3.99h79.65c0.34,0,0.58,0,0.79,3.99c0.13,2.39,0.2,5.55,0.2,8.91v74.01
				c0,3.36-0.07,6.53-0.2,8.91C109.26,124.55,109.01,124.55,108.68,124.55z M29.21,123.9h79.29c0.23-0.83,0.52-5.27,0.52-12.26
				V37.63c0-6.99-0.29-11.43-0.52-12.26H29.21c-0.23,0.83-0.52,5.27-0.52,12.26v74.01C28.69,118.63,28.98,123.07,29.21,123.9
				L29.21,123.9z"/>
			<path id="Caminho_7114" class="st3" d="M108.68,30.3H29.03c-0.37,0-0.67-0.3-0.67-0.67v-3.92c0-0.37,0.3-0.67,0.67-0.67h79.65
				c0.37,0,0.67,0.3,0.67,0.67v3.92C109.34,30,109.04,30.3,108.68,30.3z"/>
			<circle id="Ellipse_90-3" class="st1" cx="32.23" cy="27.48" r="0.94"/>
			<circle id="Ellipse_91-3" class="st1" cx="35.82" cy="27.48" r="0.94"/>
			<circle id="Ellipse_92-3" class="st1" cx="39.41" cy="27.48" r="0.94"/>
			<path id="Caminho_7115" class="st1" d="M105.16,26.83h-4.14c-0.17,0-0.31-0.14-0.31-0.31c0-0.17,0.14-0.31,0.31-0.31h4.13
				c0.17,0,0.31,0.14,0.31,0.31C105.46,26.69,105.33,26.83,105.16,26.83C105.16,26.83,105.16,26.83,105.16,26.83L105.16,26.83z"/>
			<path id="Caminho_7116" class="st1" d="M105.16,27.98h-4.14c-0.17,0-0.31-0.14-0.31-0.31c0-0.17,0.14-0.31,0.31-0.31h4.13
				c0.17,0,0.31,0.14,0.31,0.31C105.46,27.84,105.33,27.98,105.16,27.98C105.16,27.98,105.16,27.98,105.16,27.98L105.16,27.98z"/>
			<path id="Caminho_7117" class="st1" d="M105.16,29.13h-4.14c-0.17,0-0.31-0.14-0.31-0.31c0-0.17,0.14-0.31,0.31-0.31h4.13
				c0.17,0,0.31,0.14,0.31,0.31C105.46,28.99,105.33,29.13,105.16,29.13C105.16,29.13,105.16,29.13,105.16,29.13L105.16,29.13z"/>
			<path id="Caminho_7118" class="st4" d="M53.51,54.61H43.34c-1.06,0-1.92-0.86-1.92-1.92v-8.8c0-1.06,0.86-1.92,1.92-1.92h10.16
				c1.06,0,1.92,0.86,1.92,1.92v8.8C55.43,53.75,54.57,54.61,53.51,54.61z"/>
			<path id="Caminho_7119" class="st2" d="M95.41,47.12H60c-0.48,0-0.87-0.39-0.87-0.87s0.39-0.87,0.87-0.87h35.41
				c0.48,0,0.87,0.39,0.87,0.87S95.89,47.12,95.41,47.12L95.41,47.12L95.41,47.12z"/>
			<path id="Caminho_7120" class="st2" d="M73.45,51.2H60c-0.48,0-0.87-0.39-0.87-0.87s0.39-0.87,0.87-0.87h13.45
				c0.48,0,0.87,0.39,0.87,0.87S73.93,51.2,73.45,51.2L73.45,51.2z"/>
			<path id="Caminho_7121" class="st4" d="M53.51,80.66H43.34c-1.06,0-1.92-0.86-1.92-1.92v-8.8c0-1.06,0.86-1.92,1.92-1.92h10.16
				c1.06,0,1.92,0.86,1.92,1.92v8.8C55.43,79.8,54.57,80.66,53.51,80.66z"/>
			<path id="Caminho_7122" class="st2" d="M95.41,73.17H60c-0.48,0-0.87-0.39-0.87-0.87s0.39-0.87,0.87-0.87h35.41
				c0.48,0,0.87,0.39,0.87,0.87S95.89,73.17,95.41,73.17L95.41,73.17L95.41,73.17z"/>
			<path id="Caminho_7123" class="st2" d="M73.45,77.25H60c-0.48,0-0.87-0.39-0.87-0.87s0.39-0.87,0.87-0.87h13.45
				c0.48,0,0.87,0.39,0.87,0.87S73.93,77.25,73.45,77.25L73.45,77.25z"/>
			<path id="Caminho_7124" class="st4" d="M53.51,106.71H43.34c-1.06,0-1.92-0.86-1.92-1.92v-8.8c0-1.06,0.86-1.92,1.92-1.92h10.16
				c1.06,0,1.92,0.86,1.92,1.92v8.8C55.43,105.85,54.57,106.71,53.51,106.71z"/>
			<path id="Caminho_7125" class="st2" d="M95.41,99.22H60c-0.48,0-0.87-0.39-0.87-0.87s0.39-0.87,0.87-0.87h35.41
				c0.48,0,0.87,0.39,0.87,0.87S95.89,99.22,95.41,99.22L95.41,99.22L95.41,99.22z"/>
			<path id="Caminho_7126" class="st2" d="M73.45,103.31H60c-0.48,0-0.87-0.39-0.87-0.87s0.39-0.87,0.87-0.87h13.45
				c0.48,0,0.87,0.39,0.87,0.87S73.93,103.31,73.45,103.31L73.45,103.31z"/>
		</g>
	</g>
	<g id="undraw_Confirm_re_69me" transform="translate(628.742 2157.638)">
		<rect id="Retângulo_191" x="-54.75" y="104.11" class="st5" width="174.47" height="0.48"/>
		<path id="Caminho_6988" class="st5" d="M15.2-8.84H-3.5c-0.13,0-0.24-0.11-0.24-0.24c0-0.13,0.11-0.24,0.24-0.24H15.2
			c0.13,0,0.24,0.11,0.24,0.24C15.44-8.95,15.33-8.84,15.2-8.84z"/>
	</g>
</g>
</svg>
