<?xml version="1.0" encoding="utf-8"?>
<!-- Generator: Adobe Illustrator 23.0.2, SVG Export Plug-In . SVG Version: 6.00 Build 0)  -->
<svg version="1.1" id="Camada_1" xmlns="http://www.w3.org/2000/svg" xmlns:xlink="http://www.w3.org/1999/xlink" x="0px" y="0px"
	 viewBox="0 0 183.15 147.56" style="enable-background:new 0 0 183.15 147.56;" xml:space="preserve">
<style type="text/css">
	.st0{fill:#3F3D56;}
	.st1{fill:#A0616A;}
	.st2{fill:#2F2E41;}
	.st3{fill:#D0CDE1;}
	.st4{fill:#F2F2F2;}
	.st5{fill:#9ECC4D;}
	.st6{opacity:0.1;enable-background:new    ;}
</style>
<g id="Card_1" transform="translate(-222 -2107.157)">
	<g id="undraw_business_shop_qw5t" transform="translate(306 2112.751)">
		<ellipse id="Elipse_106" class="st0" cx="8.66" cy="134.9" rx="90.49" ry="7.07"/>
		<path id="Caminho_7046" class="st1" d="M85.53,121.77l0.85,6.22l-5.94,0.57l0.85-7.63L85.53,121.77z"/>
		<path id="Caminho_7047" class="st1" d="M57.54,36.39c0,0,0.57,7.63,0.57,7.92s-3.96,19.79-3.96,19.79s-5.65,10.74,0,10.46
			s3.96-10.18,3.96-10.18l5.94-16.4L61.5,36.39L57.54,36.39z"/>
		<path id="Caminho_7048" class="st1" d="M66.87,121.77l-0.85,6.22l5.94,0.57l-0.85-7.63L66.87,121.77z"/>
		<path id="Caminho_7049" class="st2" d="M60.37,63.53l-1.41,1.98c0,0-0.85,8.48,0,11.31S61.5,92.65,61.5,93.5s0.28,1.41,0,1.7
			s-1.13,0.28-0.57,0.85s0.57,2.26,0.57,2.26v1.41l3.67,20.92c0,0-2.26,2.54-0.57,2.54s7.92,0,7.63-2.83l-0.57-0.28
			c0,0-0.85-18.66-0.57-19.51c0.15-0.84,0.15-1.7,0-2.54c0,0-0.57-0.85,0-1.13s0.57-2.54,0.57-2.54l2.54-17.24
			c0,0,2.26,11.59,3.67,12.72s1.13,3.96,1.13,3.96l1.13,24.88c0,0-1.13,2.83,0,3.39s5.94,2.54,6.22-0.28s1.7-27.42,1.7-28.55
			s-0.28-1.7,0-2.54s-0.28-0.85,0-0.85s-0.57-0.85-0.57-1.41V74.55c0.09-1.14,0.28-2.28,0.57-3.39c0.28-0.57-0.28-1.13,0-1.98
			s-0.57-3.67-0.57-3.67l-12.72-3.39L60.37,63.53z"/>
		<path id="Caminho_7050" class="st2" d="M70.26,126.85c0,0,1.41-1.41-0.57-1.41c-1.27,0.03-2.52,0.31-3.67,0.85l-1.41,5.09
			c0,0-5.8,4.66,0.71,4.1s5.51-0.14,5.51-0.14s1.98-0.57,2.26-1.13s-0.57-8.76-0.57-8.76S71.67,127.7,70.26,126.85z"/>
		<path id="Caminho_7051" class="st2" d="M82.42,126.86c0,0-1.41-1.41,0.57-1.41c1.27,0.03,2.52,0.31,3.67,0.85l1.41,5.09
			c0,0,5.8,4.66-0.71,4.1S81,135.34,81,135.34s-1.98-0.57-2.26-1.13s1.41-8.76,1.41-8.76S81.01,127.7,82.42,126.86z"/>
		<circle id="Elipse_107" class="st1" cx="64.04" cy="6.71" r="7.35"/>
		<path id="Caminho_7052" class="st1" d="M61.5,12.08c0,0,1.13,5.65,1.13,6.5s4.81,3.39,4.81,3.39l5.37-6.79
			c0,0-3.39-4.81-3.39-5.94L61.5,12.08z"/>
		<path id="Caminho_7053" class="st3" d="M65.74,19.43c0,0-2.46-0.66-3.21-1.74c0,0-7.82,7.68-7.82,9.09l6.22,11.02
			c0,0,0,3.96,0.57,4.24s0,0,0,1.13s-1.7,8.48-1.13,9.61s1.13,0.28,0.57,1.98s-1.98,10.74-1.98,10.74s5.09-1.7,12.44,1.13
			c7.35,2.83,16.11-1.13,16.11-1.13s-2.26-5.09-1.7-6.78s-1.41-4.81-1.41-4.81l-1.41-26.01c0,0,1.98-11.59,0.57-12.16l-2.83-1.13
			l-9.05-1.11C71.66,13.51,69.41,19.15,65.74,19.43z"/>
		<path id="Caminho_7054" class="st3" d="M57.54,24.8l-2.83,1.98c0,0-1.41,4.24,0,6.22c0.94,1.47,1.61,3.1,1.98,4.81l5.65-0.57
			L57.54,24.8z"/>
		<path id="Caminho_7055" class="st2" d="M58.43-1.06l-1.28-0.51c1.66-1.74,3.97-2.71,6.38-2.68L62.49-5.4c0,0,2.55-1.02,4.87,1.66
			c1.38,1.48,2.56,3.14,3.51,4.93h1.36l-0.57,1.25l1.99,1.25L71.6,3.47c0.19,1.08,0.13,2.2-0.19,3.25l0.05,0.99
			c0,0-2.37-3.67-2.37-4.18v1.28c0,0-1.28-1.15-1.28-1.91l-0.7,0.89l-0.35-1.4l-4.29,1.4l0.7-1.15l-2.67,0.38l1.04-1.4
			c0,0-3.01,1.66-3.13,3.06c-0.28,1.18-0.83,2.27-1.62,3.19L56.1,6.6C56.1,6.6,55.07,0.85,58.43-1.06z"/>
		<rect id="Retângulo_193" x="-52.21" y="55.93" class="st4" width="112.34" height="78.92"/>
		<rect id="Retângulo_194" x="-42.75" y="86.04" class="st0" width="28.21" height="49.24"/>
		<rect id="Retângulo_195" x="-37.53" y="88.99" class="st4" width="7.6" height="7.08"/>
		<rect id="Retângulo_196" x="-27.36" y="88.99" class="st4" width="7.6" height="7.08"/>
		<rect id="Retângulo_197" x="-37.53" y="98.65" class="st4" width="7.6" height="7.34"/>
		<rect id="Retângulo_198" x="-27.36" y="98.65" class="st4" width="7.6" height="7.34"/>
		<circle id="Elipse_108" class="st5" cx="-18.13" cy="113.98" r="1.79"/>
		<rect id="Retângulo_199" x="-5.08" y="81.37" class="st0" width="55.76" height="46.79"/>
		<path id="Caminho_7056" class="st0" d="M71.88,70.79H-63.94l9.06-18.93l2.03-4.24l2.65-5.54l2.03-4.24l2.35-4.91H61.17l1.39,4.91
			l1.2,4.24l1.57,5.54l1.2,4.24L71.88,70.79z"/>
		<rect id="Retângulo_200" x="-3.13" y="100.77" class="st5" width="1.96" height="12.07"/>
		<rect id="Retângulo_201" x="-3.13" y="102.56" class="st4" width="1.96" height="1.47"/>
		<rect id="Retângulo_202" x="-3.13" y="109.57" class="st4" width="1.96" height="1.47"/>
		<rect id="Retângulo_203" x="-0.19" y="100.77" class="st5" width="4.73" height="12.07"/>
		<rect id="Retângulo_204" x="-0.19" y="102.56" class="st4" width="4.73" height="1.47"/>
		<rect id="Retângulo_205" x="-0.19" y="109.57" class="st4" width="4.73" height="1.47"/>
		<rect id="Retângulo_206" x="5.68" y="100.77" class="st5" width="1.96" height="12.07"/>
		<rect id="Retângulo_207" x="5.68" y="102.56" class="st4" width="1.96" height="1.47"/>
		<rect id="Retângulo_208" x="5.68" y="109.57" class="st4" width="1.96" height="1.47"/>
		<rect id="Retângulo_209" x="8.61" y="100.77" class="st5" width="1.96" height="12.07"/>
		<rect id="Retângulo_210" x="8.61" y="102.56" class="st4" width="1.96" height="1.47"/>
		<rect id="Retângulo_211" x="8.61" y="109.57" class="st4" width="1.96" height="1.47"/>
		
			<rect id="Retângulo_212" x="12.69" y="100.77" transform="matrix(0.9357 -0.3527 0.3527 0.9357 -36.7932 11.6853)" class="st5" width="1.96" height="12.07"/>
		
			<rect id="Retângulo_213" x="11.45" y="102.79" transform="matrix(0.9357 -0.3527 0.3527 0.9357 -35.7154 11.0384)" class="st4" width="1.96" height="1.47"/>
		
			<rect id="Retângulo_214" x="13.93" y="109.35" transform="matrix(0.9357 -0.3527 0.3527 0.9357 -37.8706 12.3324)" class="st4" width="1.96" height="1.47"/>
		<rect id="Retângulo_215" x="44.16" y="100.77" class="st5" width="4.73" height="12.07"/>
		<rect id="Retângulo_216" x="44.16" y="102.56" class="st4" width="4.73" height="1.47"/>
		<rect id="Retângulo_217" x="44.16" y="109.57" class="st4" width="4.73" height="1.47"/>
		<rect id="Retângulo_218" x="41.06" y="100.77" class="st5" width="1.96" height="12.07"/>
		<rect id="Retângulo_219" x="41.06" y="102.56" class="st4" width="1.96" height="1.47"/>
		<rect id="Retângulo_220" x="41.06" y="109.57" class="st4" width="1.96" height="1.47"/>
		<rect id="Retângulo_221" x="38.12" y="100.77" class="st5" width="1.96" height="12.07"/>
		<rect id="Retângulo_222" x="38.12" y="102.56" class="st4" width="1.96" height="1.47"/>
		<rect id="Retângulo_223" x="38.12" y="109.57" class="st4" width="1.96" height="1.47"/>
		
			<rect id="Retângulo_224" x="28.99" y="105.82" transform="matrix(0.3527 -0.9357 0.9357 0.3527 -77.2649 101.9066)" class="st5" width="12.07" height="1.96"/>
		
			<rect id="Retângulo_225" x="35.53" y="102.54" transform="matrix(0.3527 -0.9357 0.9357 0.3527 -73.3957 100.9398)" class="st4" width="1.47" height="1.96"/>
		
			<rect id="Retângulo_226" x="33.06" y="109.1" transform="matrix(0.3527 -0.9357 0.9357 0.3527 -81.1351 102.8734)" class="st4" width="1.47" height="1.96"/>
		<rect id="Retângulo_227" x="-5.08" y="112.83" class="st4" width="55.76" height="1.14"/>
		<rect id="Retângulo_228" x="19.21" y="100.77" class="st5" width="10.27" height="12.07"/>
		<rect id="Retângulo_229" x="21.74" y="103.38" class="st4" width="5.22" height="2.28"/>
		<rect id="Retângulo_230" x="22.31" y="81.37" class="st4" width="0.98" height="10.44"/>
		<circle id="Elipse_109" class="st4" cx="22.8" cy="91.8" r="1.63"/>
		<path id="Caminho_7057" class="st5" d="M63.76,42.07H-50.21l2.03-4.24H62.56L63.76,42.07z"/>
		<path id="Caminho_7058" class="st5" d="M66.53,51.85H-54.89l2.03-4.24H65.33L66.53,51.85z"/>
		<path id="Caminho_7059" class="st1" d="M78.46,27.34c-0.98,2.68-1.42,5.52-1.3,8.38c0.06,0.75,0.31,1.46,0.73,2.08l0,0
			l-20.05,9.52c0,0-9.06,0.94-6.8,4.9s10.46-1.98,10.46-1.98s21.48-3.11,23.18-6.22s2.83-16.11,2.83-16.11L78.46,27.34z"/>
		<path id="Caminho_7060" class="st3" d="M79.31,15.75h4.24c0,0,3.11,0.57,3.96,6.22s1.7,7.07,0.85,7.07s-11.03-0.28-11.03-0.57
			S79.31,15.75,79.31,15.75z"/>
		<circle id="Elipse_110" class="st5" cx="-62.25" cy="78.45" r="21.75"/>
		<circle id="Elipse_111" class="st6" cx="-62.25" cy="78.45" r="18.71"/>
		<path id="Caminho_7061" class="st4" d="M-63.14,89.49v-2.72c-1.3-0.01-2.57-0.43-3.63-1.19l0.57-1.81
			c0.99,0.74,2.18,1.15,3.42,1.16c1.44,0.12,2.7-0.96,2.82-2.4c0.01-0.08,0.01-0.16,0.01-0.24c0-1.48-0.93-2.4-2.68-3.21
			c-2.42-1.08-3.92-2.32-3.92-4.66c-0.08-2.15,1.46-4.01,3.58-4.34v-2.72h1.47v2.61c1.1,0.01,2.17,0.34,3.08,0.94l-0.59,1.78
			c-0.88-0.6-1.92-0.92-2.99-0.92c-1.25-0.13-2.37,0.78-2.5,2.03c-0.01,0.1-0.01,0.19-0.01,0.29c0,1.4,0.88,2.1,2.94,3.07
			c2.44,1.13,3.68,2.53,3.68,4.93c0.07,2.25-1.53,4.2-3.75,4.58v2.8L-63.14,89.49z"/>
	</g>
</g>
</svg>
