<?xml version="1.0" encoding="utf-8"?>
<!-- Generator: Adobe Illustrator 23.0.2, SVG Export Plug-In . SVG Version: 6.00 Build 0)  -->
<svg version="1.1" id="Camada_1" xmlns="http://www.w3.org/2000/svg" xmlns:xlink="http://www.w3.org/1999/xlink" x="0px" y="0px"
	 viewBox="0 0 197.61 131.18" style="enable-background:new 0 0 197.61 131.18;" xml:space="preserve">
<style type="text/css">
	.st0{fill:#F0F0F0;}
	.st1{fill:#CACACA;}
	.st2{fill:#FFFFFF;}
	.st3{fill:#E6E6E6;}
	.st4{fill:#9ECC4D;}
	.st5{fill:#FFB6B6;}
	.st6{fill:#2F2E41;}
</style>
<g id="Card_3" transform="translate(-946 -2129.222)">
	<g id="undraw_Social_share_re_qb4v" transform="translate(1023.197 2145.104)">
		<path id="Caminho_7010" class="st0" d="M-66.26,115.23c4.38-1.31,6.87-5.92,5.56-10.3c-0.04-0.14-0.08-0.27-0.13-0.4
			c-0.79-2.24-2.59-3.89-3.67-5.98c-2.18-4.25-0.75-9.46,3.29-12c0.22-0.14,0.45-0.28,0.69-0.4c0.22-0.12,0.03-0.45-0.2-0.34
			c-4.15,2.15-6.15,6.98-4.73,11.44c0.38,1.12,0.93,2.18,1.63,3.13c0.67,0.96,1.41,1.88,1.99,2.9c1.21,2.1,1.41,4.63,0.54,6.9
			c-0.8,1.99-2.36,3.58-4.34,4.41c-0.24,0.1-0.49,0.19-0.74,0.26c-0.1,0.04-0.15,0.15-0.11,0.25
			C-66.45,115.19-66.36,115.24-66.26,115.23L-66.26,115.23z"/>
		<circle id="Elipse_101" class="st0" cx="-60.61" cy="85.93" r="3.85"/>
		<circle id="Elipse_102" class="st0" cx="-62.78" cy="97" r="2.41"/>
		<path id="Caminho_7011" class="st0" d="M57.44,54.81c-4.38-1.31-6.87-5.92-5.56-10.3c0.04-0.13,0.08-0.27,0.13-0.4
			c0.79-2.24,2.59-3.89,3.67-5.98c2.18-4.25,0.75-9.46-3.29-12c-0.22-0.14-0.45-0.28-0.69-0.4c-0.22-0.12-0.03-0.45,0.2-0.34
			c4.15,2.15,6.15,6.98,4.73,11.44c-0.38,1.12-0.93,2.18-1.63,3.13c-0.67,0.96-1.41,1.88-1.99,2.9c-1.21,2.1-1.41,4.63-0.54,6.9
			c0.8,1.99,2.36,3.58,4.34,4.41c0.24,0.1,0.49,0.19,0.74,0.26c0.1,0.04,0.15,0.15,0.11,0.25C57.63,54.77,57.54,54.82,57.44,54.81
			L57.44,54.81z"/>
		<circle id="Elipse_103" class="st0" cx="51.79" cy="25.52" r="3.85"/>
		<circle id="Elipse_104" class="st0" cx="53.96" cy="36.59" r="2.41"/>
		<path id="Caminho_7012" class="st1" d="M22.5,15.16h-0.72V-4.5c0-6.28-5.09-11.38-11.38-11.38h-41.65
			c-6.28,0-11.38,5.09-11.38,11.38v107.86c0,6.28,5.09,11.38,11.38,11.38H10.4c6.28,0,11.38-5.09,11.38-11.38v-74.2h0.72V15.16z"/>
		<path id="Caminho_7013" class="st2" d="M10.86-12.92H5.42c0.84,2.06-0.15,4.42-2.21,5.26c-0.48,0.2-1,0.3-1.53,0.3h-23.86
			c-2.23,0-4.04-1.81-4.04-4.04c0-0.52,0.1-1.04,0.3-1.53H-31c-4.69,0-8.5,3.81-8.5,8.5v107.7c0,4.69,3.81,8.5,8.5,8.5h41.86
			c4.69,0,8.5-3.81,8.5-8.5l0,0V-4.42C19.36-9.12,15.55-12.92,10.86-12.92z"/>
		<path id="Caminho_7014" class="st2" d="M6.63,77.85c-7.26-0.13-7.26-10.92,0-11.05C13.89,66.93,13.89,77.72,6.63,77.85z"/>
		<path id="Caminho_7015" class="st3" d="M6.63,77.85c-7.26-0.13-7.26-10.92,0-11.05C13.89,66.93,13.89,77.72,6.63,77.85z
			 M6.63,67.13c-6.82,0.12-6.82,10.26,0,10.38C13.45,77.39,13.45,67.26,6.63,67.13z"/>
		<path id="Caminho_7016" class="st1" d="M7.81,69.49c-1.36,0.04-4.01-0.45-4.01,1.65c0.04,1.36-0.45,4.01,1.65,4.01
			c1.36-0.04,4.01,0.45,4.01-1.65C9.42,72.14,9.91,69.49,7.81,69.49z"/>
		<path id="Caminho_7017" class="st2" d="M8.16,71.15C7.97,71.15,7.8,71,7.8,70.8s0.15-0.36,0.34-0.36c0.2-0.01,0.36,0.15,0.36,0.34
			c0,0,0,0.01,0,0.01C8.51,70.98,8.35,71.14,8.16,71.15z"/>
		<path id="Caminho_7018" class="st2" d="M6.63,71.38c0.52,0.02,0.93,0.45,0.91,0.98c-0.02,0.5-0.42,0.9-0.91,0.91
			c-0.52-0.02-0.93-0.45-0.91-0.98C5.73,71.8,6.13,71.4,6.63,71.38z M6.63,70.91c-0.78,0.02-1.4,0.67-1.38,1.45
			c0.02,0.75,0.63,1.36,1.38,1.38c0.78-0.05,1.38-0.72,1.33-1.5C7.92,71.53,7.34,70.96,6.63,70.91L6.63,70.91z"/>
		<path id="Caminho_7019" class="st2" d="M-26.81,77.85c-7.26-0.13-7.26-10.92,0-11.05C-19.55,66.93-19.55,77.72-26.81,77.85z"/>
		<path id="Caminho_7020" class="st3" d="M-26.81,77.85c-7.26-0.13-7.26-10.92,0-11.05C-19.55,66.93-19.55,77.72-26.81,77.85z
			 M-26.81,67.13c-6.82,0.12-6.82,10.26,0,10.38C-19.99,77.39-19.99,67.26-26.81,67.13z"/>
		<path id="Caminho_7021" class="st1" d="M-23.81,70.93c-0.17,0.2-0.36,0.39-0.56,0.56c-0.25,2.7-1.93,3.31-3.29,3.31
			c-0.61,0.05-1.22-0.09-1.75-0.4c1.44,0.03,1.57-0.56,1.57-0.56c-0.44-0.01-0.83-0.27-1.01-0.67c0.16,0.08,0.35,0.03,0.45-0.11
			c-0.51-0.12-0.85-0.6-0.78-1.12c0.16,0.12,0.35,0.19,0.55,0.21c-0.1-0.12-0.95-1.14-0.44-1.66c0.54,0.77,1.44,1.22,2.38,1.19
			c-0.13-0.64,0.28-1.27,0.92-1.4c0.07-0.02,0.15-0.02,0.23-0.02c0.78,0,0.95,0.45,0.95,0.45l0.56-0.34c-0.01,0-0.07,0.56-0.35,0.67
			L-23.81,70.93z"/>
		<path id="Caminho_7022" class="st2" d="M-10.09,77.85c-7.26-0.13-7.26-10.92,0-11.05C-2.83,66.93-2.83,77.72-10.09,77.85z"/>
		<path id="Caminho_7023" class="st3" d="M-10.09,77.85c-7.26-0.13-7.26-10.92,0-11.05C-2.83,66.93-2.83,77.72-10.09,77.85z
			 M-10.09,67.13c-6.82,0.12-6.82,10.26,0,10.38C-3.27,77.39-3.27,67.26-10.09,67.13z"/>
		<path id="Caminho_7024" class="st1" d="M-7.05,72.34c0,1.51-1.1,2.8-2.59,3.03v-2.15h0.71l0.14-0.89h-0.85
			c-0.03-0.74-0.06-1.16,0.89-1.05v-0.76c-1.42-0.31-2.01,0.41-1.85,1.81h-0.78v0.89h0.78v2.14c-3.67-0.57-3.24-6.12,0.48-6.1
			C-8.42,69.27-7.05,70.65-7.05,72.34C-7.05,72.34-7.05,72.34-7.05,72.34L-7.05,72.34z"/>
		<path id="Caminho_7025" class="st2" d="M11.09,45.5h-42.33c-0.54,0-0.98-0.44-0.98-0.98V18.34c0-0.54,0.44-0.98,0.98-0.98h42.32
			c0.54,0,0.98,0.44,0.98,0.98v26.18C12.07,45.06,11.63,45.5,11.09,45.5z"/>
		<path id="Caminho_7026" class="st1" d="M11.09,45.5h-42.33c-0.54,0-0.98-0.44-0.98-0.98V18.34c0-0.54,0.44-0.98,0.98-0.98h42.32
			c0.54,0,0.98,0.44,0.98,0.98v26.18C12.07,45.06,11.63,45.5,11.09,45.5z M-31.23,17.75c-0.33,0-0.59,0.26-0.59,0.59l0,0v26.18
			c0,0.33,0.26,0.59,0.59,0.59l0,0h42.33c0.33,0,0.59-0.26,0.59-0.59l0,0V18.34c0-0.33-0.26-0.59-0.59-0.59l0,0L-31.23,17.75z"/>
		<path id="Caminho_7027" class="st4" d="M2.73,29.26h-25.59c-0.49,0-0.89-0.4-0.89-0.89c0-0.49,0.4-0.89,0.89-0.89H2.73
			c0.49,0,0.89,0.4,0.89,0.89C3.61,28.87,3.22,29.26,2.73,29.26z"/>
		<path id="Caminho_7028" class="st4" d="M2.73,35.36h-25.59c-0.49,0-0.89-0.4-0.89-0.89c0-0.49,0.4-0.89,0.89-0.89H2.73
			c0.49,0,0.89,0.4,0.89,0.89C3.61,34.97,3.22,35.36,2.73,35.36z"/>
		<path id="Caminho_7029" class="st5" d="M56.97,57.25c-0.05,0.18-0.08,0.37-0.1,0.56l-15.19,7.97l-3.53-2.22l-4.05,4.88l5.86,4.54
			c0.97,0.75,2.32,0.77,3.32,0.05l15.79-11.47c1.85,0.77,3.98-0.1,4.75-1.95c0.77-1.85-0.1-3.98-1.95-4.75s-3.98,0.1-4.75,1.95
			C57.07,56.96,57.02,57.1,56.97,57.25L56.97,57.25z"/>
		<path id="Caminho_7030" class="st5" d="M75.28,111.29l3.04-1.96l-6.1-12.68l-4.49,2.89L75.28,111.29z"/>
		<path id="Caminho_7031" class="st6" d="M73.86,110.79l6-3.86l0,0c2.11-1.36,4.92-0.75,6.28,1.36l0.08,0.12l-9.82,6.31
			L73.86,110.79z"/>
		<path id="Caminho_7032" class="st6" d="M31.41,89.51l23.37-14.96c0,0,4.29-0.41,6.87,4.66l15.57,22.36l-6.64,4.49L53.31,88.13
			L41.46,99.85c0,0,17.46-2.86,16.87,8.65c-0.47,9.14-24.37,6-34.22,4.32c-3.79-0.62-7.1-2.89-9.05-6.19
			c-1.06-1.83-1.62-3.91-0.74-5.88C16.69,95.51,31.41,89.51,31.41,89.51z"/>
		<path id="Caminho_7033" class="st4" d="M19.82,102.02l-6.73-1.36l1.92-33.06l7.75-9.49l4.62-0.82c2.85-0.52,5.63,1.24,6.38,4.04
			l2.03,7.43c3.45,5.85-1.38,12.63-1.83,13.23l0.25,10.25L19.82,102.02z"/>
		<path id="Caminho_7034" class="st4" d="M26.1,59.4l0.43-1.51c0,0,4.64-3.42,11.72,5.44l-3.4,6.05l-7.38-0.3L26.1,59.4z"/>
		<path id="Caminho_7035" class="st6" d="M36.77,47.63c1.31,5.39-3.86,5.79-10.01,7.29s-10.92,3.53-12.24-1.86S13.31,37.53,22,35.41
			C30.99,33.22,35.45,42.25,36.77,47.63z"/>
		<ellipse id="Elipse_105" class="st5" cx="24.89" cy="47.43" rx="7.7" ry="7.7"/>
		<path id="Caminho_7036" class="st6" d="M16.06,48.81L16.06,48.81l2.96-0.72l0.41-3.98l1.15,3.59l1.41-0.35l0.24-2.32l0.67,2.1
			l10.51-2.57l0,0c-1.07-4.38-5.48-7.06-9.86-5.99c0,0,0,0,0,0l-1.52,0.37C17.68,40.02,15,44.43,16.06,48.81z"/>
		<path id="Caminho_7037" class="st2" d="M112.22,58.2H60.29c-0.67,0-1.21-0.54-1.21-1.21V24.87c0-0.67,0.54-1.21,1.21-1.21h51.92
			c0.67,0,1.21,0.54,1.21,1.21v32.12C113.42,57.66,112.88,58.2,112.22,58.2z"/>
		<path id="Caminho_7038" class="st1" d="M112.22,58.2H60.29c-0.67,0-1.21-0.54-1.21-1.21V24.87c0-0.67,0.54-1.21,1.21-1.21h51.92
			c0.67,0,1.21,0.54,1.21,1.21v32.12C113.42,57.66,112.88,58.2,112.22,58.2z M60.29,24.15c-0.4,0-0.72,0.32-0.72,0.73v32.12
			c0,0.4,0.32,0.73,0.72,0.73h51.92c0.4,0,0.72-0.32,0.72-0.73V24.87c0-0.4-0.32-0.72-0.72-0.73H60.29z"/>
		<path id="Caminho_7039" class="st4" d="M101.95,38.27h-31.4c-0.6,0-1.09-0.49-1.09-1.09s0.49-1.09,1.09-1.09h31.4
			c0.6,0,1.09,0.49,1.09,1.09S102.55,38.27,101.95,38.27z"/>
		<path id="Caminho_7040" class="st4" d="M101.95,45.76h-31.4c-0.6,0-1.09-0.49-1.09-1.09s0.49-1.09,1.09-1.09h31.4
			c0.6,0,1.09,0.49,1.09,1.09S102.55,45.76,101.95,45.76z"/>
		<path id="Caminho_7041" class="st5" d="M38.09,85.53c-0.19,0.05-0.37,0.11-0.54,0.19l-14.46-9.23l0.18-4.16l-6.25-1.09l-1.04,7.34
			c-0.17,1.22,0.48,2.4,1.6,2.91l17.79,8.03c0.25,1.99,2.06,3.4,4.05,3.15c1.99-0.25,3.4-2.06,3.15-4.05
			c-0.25-1.99-2.06-3.4-4.05-3.15C38.38,85.47,38.23,85.5,38.09,85.53L38.09,85.53z"/>
		<path id="Caminho_7042" class="st4" d="M23.93,59.61l-1.09-1.37c0,0-4.37-1.41-6.74,4.5c-1.38,3.76-1.43,7.87-0.15,11.66
			l10.34,0.89l0.74-9.6L23.93,59.61z"/>
		<path id="Caminho_7043" class="st1" d="M120.18,115.29H-76.94c-0.13,0.01-0.25-0.09-0.26-0.23c-0.01-0.13,0.09-0.25,0.23-0.26
			c0.01,0,0.02,0,0.03,0h197.12c0.13,0.01,0.23,0.12,0.23,0.26C120.4,115.19,120.3,115.29,120.18,115.29z"/>
	</g>
</g>
</svg>
