<?xml version="1.0" encoding="utf-8"?>
<!-- Generator: Adobe Illustrator 23.0.2, SVG Export Plug-In . SVG Version: 6.00 Build 0)  -->
<svg version="1.1" id="Camada_1" xmlns="http://www.w3.org/2000/svg" xmlns:xlink="http://www.w3.org/1999/xlink" x="0px" y="0px"
	 viewBox="0 0 141.91 141.76" style="enable-background:new 0 0 141.91 141.76;" xml:space="preserve">
<style type="text/css">
	.st0{fill:#F2F2F2;}
	.st1{fill:#FFFFFF;}
	.st2{fill:#CCCCCC;}
	.st3{fill:#E6E6E6;}
	.st4{fill:#9ECC4D;}
	.st5{fill:#3F3D56;}
	.st6{fill:#A0616A;}
	.st7{fill:#2F2E41;}
</style>
<g id="Card_1" transform="translate(-222 -2107.157)">
	<g id="undraw_File_searching_re_3evy" transform="translate(332.121 2116.531)">
		<path id="Caminho_6955" class="st0" d="M-26.55,71.06L-83.5,85.72c-4.02,1.03-8.12-1.39-9.16-5.41l-17.22-66.88
			c-1.03-4.02,1.39-8.12,5.41-9.16l52.98-13.64l13.56,6.07l16.79,65.2C-20.11,65.92-22.53,70.02-26.55,71.06z"/>
		<path id="Caminho_6956" class="st1" d="M-103.94,6.37c-2.86,0.74-4.59,3.66-3.85,6.52l17.23,66.89c0.74,2.86,3.66,4.59,6.52,3.85
			l56.95-14.67c2.86-0.74,4.59-3.66,3.85-6.52L-39.76-1.75l-11.92-5.34L-103.94,6.37z"/>
		<path id="Caminho_6957" class="st0" d="M-38.07-2.96l-8.81,2.27c-1.34,0.35-2.71-0.46-3.05-1.8L-51.61-9
			c-0.02-0.08,0.03-0.17,0.11-0.19c0.03-0.01,0.07-0.01,0.1,0.01l13.35,5.93c0.08,0.04,0.11,0.13,0.08,0.21
			C-37.99-3-38.02-2.97-38.07-2.96L-38.07-2.96z"/>
		<path id="Caminho_6958" class="st2" d="M-42.71,54.16l-25.93,6.68c-0.67,0.19-1.36-0.2-1.55-0.86c-0.19-0.67,0.2-1.36,0.86-1.55
			c0.02-0.01,0.04-0.01,0.06-0.02l25.93-6.68c0.67-0.16,1.35,0.26,1.5,0.94C-41.68,53.32-42.07,53.98-42.71,54.16z"/>
		<path id="Caminho_6959" class="st2" d="M-36.65,56.97l-30.93,7.97c-0.67,0.19-1.36-0.2-1.55-0.86c-0.19-0.67,0.2-1.36,0.86-1.55
			c0.02-0.01,0.04-0.01,0.06-0.02l30.93-7.97c0.67-0.19,1.36,0.2,1.55,0.86c0.19,0.67-0.2,1.36-0.86,1.55
			C-36.61,56.96-36.63,56.96-36.65,56.97z"/>
		<circle id="Ellipse_44" class="st3" cx="-79.22" cy="64.45" r="4.43"/>
		<path id="Caminho_6960" class="st1" d="M-45.47,42.57l-34.44,8.86c-2.07,0.53-4.18-0.72-4.72-2.79l-7.22-28.04
			c-0.53-2.07,0.72-4.18,2.79-4.72l34.44-8.86c2.07-0.53,4.18,0.72,4.72,2.79l7.22,28.04C-42.15,39.93-43.4,42.04-45.47,42.57z"/>
		<path id="Caminho_6961" class="st3" d="M-45.47,42.57l-34.44,8.86c-2.07,0.53-4.18-0.72-4.72-2.79l-7.22-28.04
			c-0.53-2.07,0.72-4.18,2.79-4.72l34.44-8.86c2.07-0.53,4.18,0.72,4.72,2.79l7.22,28.04C-42.15,39.93-43.4,42.04-45.47,42.57z
			 M-88.94,16.34c-1.83,0.47-2.93,2.34-2.46,4.16l7.22,28.04c0.47,1.83,2.34,2.93,4.16,2.46l34.44-8.87
			c1.83-0.47,2.93-2.34,2.46-4.16l-7.22-28.04C-50.81,8.1-52.68,7-54.5,7.47L-88.94,16.34z"/>
		<path id="Path_411" class="st0" d="M-56.36,16.46l-17.38,4.47c-0.32,0.09-0.64-0.08-0.75-0.39c-0.1-0.32,0.08-0.65,0.39-0.75
			c0.01,0,0.02-0.01,0.03-0.01l17.69-4.55C-55.67,15.59-55.86,16.33-56.36,16.46L-56.36,16.46z"/>
		<path id="Path_412" class="st0" d="M-55.58,19.51l-17.38,4.47c-0.32,0.09-0.65-0.08-0.75-0.39c-0.1-0.32,0.08-0.65,0.39-0.75
			c0.01,0,0.02-0.01,0.03-0.01l17.69-4.55C-54.89,18.64-55.07,19.38-55.58,19.51L-55.58,19.51z"/>
		<path id="Path_413" class="st3" d="M-76.27,26.68l-5.3,1.36c-0.36,0.09-0.73-0.12-0.82-0.48L-84,21.31
			c-0.09-0.36,0.12-0.73,0.48-0.82l5.3-1.36c0.36-0.09,0.73,0.12,0.82,0.48l1.61,6.26C-75.69,26.22-75.91,26.59-76.27,26.68z"/>
		<path id="Path_414" class="st0" d="M-54.02,25.76l-26.52,6.83c-0.32,0.09-0.65-0.08-0.75-0.39c-0.1-0.32,0.08-0.65,0.39-0.75
			c0.01,0,0.02-0.01,0.03-0.01l26.84-6.91C-53.33,24.89-53.52,25.63-54.02,25.76z"/>
		<path id="Path_415" class="st0" d="M-53.24,28.81l-26.52,6.83c-0.32,0.09-0.65-0.08-0.75-0.39c-0.1-0.32,0.08-0.65,0.39-0.75
			c0.01,0,0.02-0.01,0.03-0.01l26.84-6.91C-52.54,27.94-52.73,28.68-53.24,28.81z"/>
		<path id="Path_416" class="st0" d="M-52.45,31.86l-26.52,6.83c-0.32,0.09-0.65-0.08-0.75-0.39c-0.1-0.32,0.08-0.65,0.39-0.75
			c0.01,0,0.02-0.01,0.03-0.01l26.84-6.91C-51.76,30.99-51.95,31.73-52.45,31.86z"/>
		<path id="Path_417" class="st0" d="M-51.67,34.91l-26.52,6.83c-0.32,0.09-0.65-0.08-0.75-0.39c-0.1-0.32,0.08-0.65,0.39-0.75
			c0.01,0,0.02-0.01,0.03-0.01l26.84-6.91C-50.97,34.04-51.16,34.78-51.67,34.91z"/>
		<path id="Path_418" class="st0" d="M-50.88,37.95l-26.52,6.83c-0.32,0.09-0.64-0.08-0.75-0.39c-0.1-0.32,0.08-0.65,0.39-0.75
			c0.01,0,0.02-0.01,0.03-0.01l26.84-6.91C-50.19,37.08-50.38,37.83-50.88,37.95z"/>
		<path id="Path_395" class="st1" d="M-78.9,66c-0.1,0.02-0.2,0.02-0.29-0.02h-0.01l-1.21-0.51c-0.24-0.1-0.34-0.37-0.24-0.61
			s0.37-0.34,0.61-0.24l0,0l0.78,0.33l1.02-2.41c0.1-0.23,0.37-0.34,0.61-0.24l0,0l-0.01,0.02l0.01-0.02
			c0.23,0.1,0.34,0.37,0.24,0.61l-1.2,2.83C-78.64,65.87-78.75,65.97-78.9,66L-78.9,66z"/>
		<path id="Caminho_6962" class="st3" d="M-4.7,96.55h-58.81c-4.15,0-7.52-3.37-7.52-7.52V19.96c0-4.15,3.37-7.52,7.52-7.52H-8.8
			L2.82,21.7v67.32C2.82,93.17-0.55,96.54-4.7,96.55z"/>
		<path id="Caminho_6963" class="st1" d="M-63.51,14.6c-2.96,0-5.35,2.4-5.36,5.36v69.07c0,2.96,2.4,5.35,5.36,5.36H-4.7
			c2.96,0,5.35-2.4,5.36-5.36V22.74L-9.56,14.6H-63.51z"/>
		<path id="Caminho_6964" class="st4" d="M-16.14,34.68h-26.78c-0.69,0.02-1.27-0.53-1.29-1.22c-0.02-0.69,0.53-1.27,1.22-1.29
			c0.02,0,0.05,0,0.07,0h26.78c0.69-0.02,1.27,0.53,1.29,1.22c0.02,0.69-0.53,1.27-1.22,1.29C-16.1,34.68-16.12,34.68-16.14,34.68z"
			/>
		<path id="Caminho_6965" class="st4" d="M-10.98,38.91h-31.94c-0.69,0.02-1.27-0.53-1.29-1.22c-0.02-0.69,0.53-1.27,1.22-1.29
			c0.02,0,0.05,0,0.07,0h31.94c0.69-0.02,1.27,0.53,1.29,1.22c0.02,0.69-0.53,1.27-1.22,1.29C-10.93,38.91-10.95,38.91-10.98,38.91z
			"/>
		<path id="Caminho_6966" class="st2" d="M-16.14,51.12h-26.77c-0.69-0.02-1.27,0.53-1.29,1.22c-0.02,0.69,0.53,1.27,1.22,1.29
			c0.02,0,0.05,0,0.07,0h26.77c0.69-0.02,1.24-0.6,1.22-1.29C-14.94,51.68-15.48,51.14-16.14,51.12L-16.14,51.12z"/>
		<path id="Caminho_6967" class="st2" d="M-10.97,55.35h-31.94c-0.69-0.02-1.27,0.53-1.29,1.22c-0.02,0.69,0.53,1.27,1.22,1.29
			c0.02,0,0.05,0,0.07,0h31.94c0.69-0.02,1.24-0.6,1.22-1.29C-9.78,55.9-10.31,55.37-10.97,55.35z"/>
		<path id="Caminho_6968" class="st2" d="M-16.14,72.57h-26.78c-0.69,0.02-1.27-0.53-1.29-1.22c-0.02-0.69,0.53-1.27,1.22-1.29
			c0.02,0,0.05,0,0.07,0h26.78c0.69-0.02,1.27,0.53,1.29,1.22c0.02,0.69-0.53,1.27-1.22,1.29C-16.1,72.58-16.12,72.58-16.14,72.57z"
			/>
		<path id="Caminho_6969" class="st2" d="M-10.98,76.8h-31.94c-0.69-0.02-1.24-0.6-1.22-1.29c0.02-0.66,0.55-1.2,1.22-1.22h31.94
			c0.69,0.02,1.24,0.6,1.22,1.29C-9.78,76.25-10.31,76.78-10.98,76.8z"/>
		<circle id="Ellipse_44-2" class="st4" cx="-54.07" cy="35.54" r="4.43"/>
		<path id="Path_395-2" class="st1" d="M-54.51,37.23c-0.1,0-0.2-0.03-0.28-0.09l0,0l-1.04-0.8c-0.2-0.16-0.24-0.45-0.09-0.65
			s0.45-0.24,0.65-0.09l0.67,0.52l1.59-2.08c0.16-0.2,0.45-0.24,0.65-0.09c0,0,0,0,0,0l0,0l-0.01,0.01l0.01-0.01
			c0.2,0.16,0.24,0.45,0.09,0.65l-1.87,2.44C-54.22,37.16-54.36,37.23-54.51,37.23L-54.51,37.23z"/>
		<path id="Caminho_6970" class="st2" d="M-49.18,54.49c0,2.44-1.98,4.43-4.42,4.43c0,0,0,0,0,0c-0.04,0-0.08,0-0.11,0
			c-2.44-0.06-4.37-2.1-4.31-4.54s2.1-4.37,4.54-4.31C-51.1,50.13-49.18,52.09-49.18,54.49L-49.18,54.49z"/>
		<circle id="Ellipse_44-3" class="st2" cx="-54.07" cy="73.44" r="4.43"/>
		<path id="Caminho_6971" class="st2" d="M2.59,21.99h-9.1c-1.38,0-2.51-1.12-2.51-2.5c0,0,0,0,0,0v-6.72
			c0-0.09,0.07-0.16,0.16-0.16c0.04,0,0.07,0.01,0.1,0.03l11.45,9.07c0.07,0.05,0.08,0.15,0.02,0.22C2.68,21.97,2.64,22,2.59,21.99
			L2.59,21.99z"/>
		<path id="Caminho_6972" class="st4" d="M-49.19,54.49c0,2.44-1.98,4.43-4.42,4.43c0,0,0,0,0,0c-0.04,0-0.08,0-0.11,0
			c-1.16-2.89-0.84-6.17,0.86-8.79C-50.74,50.49-49.19,52.33-49.19,54.49z"/>
		<path id="Caminho_6973" class="st4" d="M-44.17,52.38c0-0.69,0.56-1.25,1.25-1.25h6.67c0.39,0.79,0.67,1.64,0.82,2.51h-7.49
			C-43.61,53.63-44.17,53.07-44.17,52.38z"/>
		<path id="Caminho_6974" class="st4" d="M-35.27,55.35c0,0.85-0.11,1.69-0.33,2.51h-7.32c-0.69,0.02-1.27-0.53-1.29-1.22
			c-0.02-0.69,0.53-1.27,1.22-1.29c0.02,0,0.05,0,0.07,0H-35.27z"/>
		<path id="Caminho_6975" class="st5" d="M-18.91,55.07c-0.49,0.81-1.55,1.07-2.36,0.57c0,0,0,0,0,0l-20.05-12.23
			c-0.81-0.49-1.07-1.55-0.57-2.36c0.49-0.81,1.55-1.07,2.36-0.57l20.05,12.23C-18.67,53.21-18.41,54.26-18.91,55.07
			C-18.91,55.07-18.91,55.07-18.91,55.07z"/>
		<path id="Caminho_6976" class="st5" d="M-38.95,42.85c-3.95,6.48-12.41,8.53-18.89,4.58s-8.53-12.41-4.58-18.89
			c3.95-6.48,12.41-8.53,18.89-4.58c0,0,0,0,0,0C-37.05,27.91-35,36.37-38.95,42.85z M-59.49,30.32c-2.96,4.86-1.43,11.2,3.43,14.17
			s11.2,1.43,14.17-3.43c2.96-4.86,1.43-11.2-3.43-14.17C-50.18,23.92-56.52,25.46-59.49,30.32
			C-59.49,30.32-59.49,30.32-59.49,30.32z"/>
		<ellipse id="Elipse_97" class="st6" cx="5.09" cy="30.86" rx="7.03" ry="7.03"/>
		<path id="Caminho_6977" class="st6" d="M4.63,70.29c-0.53-1.66,0.38-3.43,2.04-3.96c0.11-0.04,0.23-0.07,0.34-0.09
			c0.14-0.03,0.28-0.04,0.42-0.05l7.41-11.89l-6.77-6.43c-1.07-1.04-1.1-2.75-0.06-3.82c1.04-1.07,2.75-1.1,3.82-0.06l9.34,9.21
			l0.02,0.02c0.59,0.9,0.52,2.09-0.17,2.92L10.64,68.41c0.03,0.1,0.06,0.2,0.08,0.3c0.34,1.71-0.77,3.37-2.47,3.71
			c-0.12,0.02-0.23,0.04-0.35,0.05c-0.09,0.01-0.18,0.01-0.27,0.01C6.26,72.47,5.05,71.59,4.63,70.29z"/>
		<path id="Caminho_6978" class="st6" d="M-6.5,128.75h-3.51l-1.67-13.54h5.18L-6.5,128.75z"/>
		<path id="Caminho_6979" class="st7" d="M-5.6,132.15h-11.32v-0.14c0-2.43,1.97-4.41,4.41-4.41l0,0h6.91V132.15z"/>
		<path id="Caminho_6980" class="st6" d="M28.4,123.89l-3.02,1.8l-8.36-10.78l4.45-2.65L28.4,123.89z"/>
		<path id="Caminho_6981" class="st7" d="M30.91,126.36l-9.73,5.79l-0.07-0.12c-1.24-2.09-0.56-4.79,1.53-6.04c0,0,0,0,0,0l0,0
			l5.94-3.54L30.91,126.36z"/>
		<path id="Caminho_6982" class="st7" d="M-12.12,122.78c-2.35-27.69-3.75-53.42,4.85-63.92l0.07-0.08l14.47,5.79l0.02,0.05
			c0.05,0.11,4.86,10.69,3.74,17.81l3.57,16.42l11.63,19.48c0.37,0.61,0.17,1.4-0.45,1.77c-0.05,0.03-0.09,0.05-0.14,0.07
			l-5.06,2.22c-0.59,0.25-1.28,0.04-1.62-0.51L6.31,101.26l-7.15-15.83c-0.1-0.22-0.35-0.31-0.57-0.21
			c-0.14,0.06-0.23,0.19-0.25,0.34l-3.96,37.26c-0.07,0.66-0.62,1.15-1.28,1.15h-3.93C-11.5,123.96-12.06,123.45-12.12,122.78z"/>
		<path id="Caminho_6983" class="st4" d="M-7.22,59.09l-0.07-0.03l-0.01-0.08c-0.47-4.26,0.18-8.57,1.9-12.49
			c1.84-4.56,6.73-7.09,11.51-5.94l0,0c2.69,0.66,4.98,2.43,6.32,4.86c1.32,2.41,1.56,5.26,0.68,7.85
			c-2.27,6.64-5.22,12.86-5.25,12.92l-0.06,0.13L-7.22,59.09z"/>
		<path id="Caminho_6984" class="st6" d="M-23.01,49.66c1.37-1.08,3.35-0.84,4.43,0.52c0.07,0.09,0.14,0.19,0.2,0.29
			c0.07,0.12,0.14,0.24,0.2,0.37l13.73,2.78l3.66-8.59c0.6-1.37,2.19-1.99,3.56-1.4c1.37,0.6,1.99,2.19,1.4,3.56l0,0L-1.2,59.17
			l-0.02,0.03c-0.64,0.87-1.77,1.22-2.79,0.86l-15.14-5.42c-0.08,0.06-0.17,0.12-0.25,0.18c-1.48,0.92-3.42,0.46-4.34-1.02
			c-0.06-0.1-0.12-0.21-0.17-0.31c-0.04-0.08-0.07-0.16-0.1-0.25C-24.48,51.95-24.08,50.51-23.01,49.66z"/>
		<path id="Caminho_6985" class="st7" d="M30.5,38.39c-0.62-1.24-1.68-2.22-2.97-2.74c-1.68-0.57-3.51,0.04-5.24,0.44
			c-1.33,0.37-2.71,0.45-4.08,0.24c-1.37-0.22-2.57-1.06-3.26-2.27c-0.9-1.8-0.14-3.96-0.2-5.97c-0.1-4.01-3.43-7.17-7.44-7.07
			c-0.58,0.01-1.15,0.1-1.7,0.25c-1.66-0.48-3.16-0.52-4.19,0.75c-2.69,0-4.87,2.18-4.87,4.87h4.66c-0.22,1.19,0.03,2.41,0.7,3.42
			c0.82,1.21,2.25,2.08,2.53,3.52c0.27,1.39-0.68,2.71-1.67,3.72s-2.14,2.01-2.45,3.39c-0.19,1.05,0.02,2.13,0.6,3.02
			c0.58,0.88,1.29,1.67,2.11,2.33c3.72,3.19,8.14,5.45,12.9,6.6c3.35,0.81,7.02,1.02,10.13-0.47c5.01-2.39,7.14-8.4,4.75-13.41
			C30.71,38.8,30.61,38.59,30.5,38.39L30.5,38.39z"/>
		<path id="Caminho_6986" class="st2" d="M21.4,132.39h-43.31c-0.13,0-0.23-0.1-0.23-0.23s0.1-0.23,0.23-0.23c0,0,0,0,0,0H21.4
			c0.13,0,0.23,0.1,0.23,0.23S21.53,132.39,21.4,132.39C21.4,132.39,21.4,132.39,21.4,132.39z"/>
	</g>
</g>
</svg>
