<?xml version="1.0" encoding="utf-8"?>
<!-- Generator: Adobe Illustrator 23.0.2, SVG Export Plug-In . SVG Version: 6.00 Build 0)  -->
<svg version="1.1" id="Camada_1" xmlns="http://www.w3.org/2000/svg" xmlns:xlink="http://www.w3.org/1999/xlink" x="0px" y="0px"
	 viewBox="0 0 174.47 132.92" style="enable-background:new 0 0 174.47 132.92;" xml:space="preserve">
<style type="text/css">
	.st0{display:none;fill:#FFFFFF;}
	.st1{fill:#CACACA;}
	.st2{fill:#FFFFFF;}
	.st3{fill:#CCCCCC;}
	.st4{fill:#9ECC4D;}
	.st5{fill:#3F3D56;}
	.st6{fill:#A0616A;}
	.st7{fill:#2F2E41;}
	.st8{fill:#E6E6E6;}
</style>
<g id="Card_2" transform="translate(-543 -2129.222)">
	<path id="Retângulo_44" class="st0" d="M494.01,2113.34h272c22.09,0,40,17.91,40,40v400c0,22.09-17.91,40-40,40h-272
		c-22.09,0-40-17.91-40-40v-400C454.01,2131.25,471.92,2113.34,494.01,2113.34z"/>
	<g id="Grupo_10016">
		<g id="Grupo_10014" transform="translate(628.742 2157.638)">
			<path id="Caminho_7044" class="st1" d="M6.14,2.62H5.42v-19.66c0-6.28-5.09-11.38-11.38-11.38h-41.65
				c-6.28,0-11.38,5.09-11.38,11.38V90.82c0,6.28,5.09,11.38,11.38,11.38h41.65c6.28,0,11.38-5.09,11.38-11.38v-74.2h0.72V2.62z"/>
			<path id="Caminho_7045" class="st2" d="M-5.5-25.46h-5.44c0.84,2.06-0.15,4.42-2.21,5.26c-0.48,0.2-1,0.3-1.53,0.3h-23.86
				c-2.23,0-4.04-1.81-4.04-4.04c0-0.52,0.1-1.04,0.3-1.53h-5.08c-4.69,0-8.5,3.81-8.5,8.5v107.7c0,4.69,3.81,8.5,8.5,8.5H-5.5
				c4.69,0,8.5-3.81,8.5-8.5l0,0v-107.7C3-21.65-0.8-25.46-5.5-25.46z"/>
			<path id="Caminho_6992" class="st3" d="M-7.27,34.96h-35.98c-0.79,0-1.44-0.64-1.44-1.44s0.64-1.44,1.44-1.44c0,0,0,0,0.01,0
				h35.98c0.79,0,1.44,0.64,1.44,1.44S-6.47,34.96-7.27,34.96C-7.27,34.96-7.27,34.96-7.27,34.96L-7.27,34.96z"/>
			<path id="Caminho_6993" class="st3" d="M-7.27,41.44h-35.98c-0.79,0-1.44-0.64-1.44-1.44s0.64-1.44,1.44-1.44c0,0,0,0,0.01,0
				h35.98c0.79,0,1.44,0.64,1.44,1.44S-6.47,41.44-7.27,41.44C-7.27,41.44-7.27,41.44-7.27,41.44L-7.27,41.44z"/>
			<path id="Caminho_6994" class="st3" d="M-7.27,47.92h-35.98c-0.79,0-1.44-0.64-1.44-1.44s0.64-1.44,1.44-1.44c0,0,0,0,0.01,0
				h35.98c0.79,0,1.44,0.64,1.44,1.44S-6.47,47.91-7.27,47.92C-7.27,47.92-7.27,47.92-7.27,47.92L-7.27,47.92z"/>
			<path id="Caminho_6995" class="st4" d="M-20.08,28.49h-11.64c-1.46,0-2.64-1.18-2.64-2.64s1.18-2.64,2.64-2.64h11.64
				c1.46,0,2.64,1.18,2.64,2.64S-18.62,28.49-20.08,28.49L-20.08,28.49z"/>
			<path id="Caminho_6996" class="st5" d="M-36.3,69.74c-2.89,0-5.23-2.34-5.23-5.23c0-2.89,2.34-5.23,5.23-5.23
				c2.89,0,5.23,2.34,5.23,5.23l0,0C-31.08,67.4-33.42,69.73-36.3,69.74z M-36.3,59.84c-2.58,0-4.68,2.09-4.68,4.67
				s2.09,4.68,4.67,4.68s4.68-2.09,4.68-4.67v0C-31.63,61.93-33.72,59.84-36.3,59.84C-36.3,59.84-36.3,59.84-36.3,59.84L-36.3,59.84
				z"/>
			<path id="Caminho_6997" class="st4" d="M-36.29,66.32c-0.16,0-0.31-0.06-0.42-0.18l-1.92-1.92c-0.23-0.23-0.23-0.61,0-0.85
				l0.1-0.1c0.23-0.23,0.61-0.23,0.85,0l1,1c0.14,0.14,0.37,0.14,0.51,0c0.01-0.01,0.03-0.03,0.04-0.05l4.24-6.03
				c0.19-0.27,0.57-0.34,0.84-0.14l0.11,0.08c0.27,0.19,0.34,0.56,0.14,0.83l-5,7.1c-0.1,0.14-0.26,0.24-0.44,0.25H-36.29z"/>
			<path id="Caminho_6998" class="st5" d="M-15.68,69.74c-2.89,0-5.23-2.34-5.23-5.23c0-2.89,2.34-5.23,5.23-5.23
				c2.89,0,5.23,2.34,5.23,5.23l0,0C-10.46,67.4-12.79,69.73-15.68,69.74z M-15.68,59.84c-2.58,0-4.67,2.09-4.67,4.68
				c0,2.58,2.09,4.67,4.68,4.67S-11,67.09-11,64.51C-11,61.93-13.09,59.84-15.68,59.84C-15.68,59.84-15.68,59.84-15.68,59.84
				L-15.68,59.84z"/>
			<path id="Caminho_6999" class="st3" d="M-14,66.9L-14,66.9c-0.16,0-0.31-0.06-0.42-0.18l-0.99-1c-0.14-0.14-0.37-0.14-0.51,0
				l-0.99,1c-0.11,0.11-0.26,0.18-0.42,0.18l0,0c-0.16,0-0.31-0.06-0.42-0.17l-0.1-0.1c-0.23-0.23-0.23-0.61,0-0.85l1-1
				c0.14-0.14,0.14-0.37,0-0.51l-1.02-1.03c-0.23-0.23-0.23-0.61,0-0.85l0.1-0.1c0.11-0.11,0.26-0.17,0.42-0.17l0,0
				c0.16,0,0.31,0.06,0.42,0.18l1.02,1.02c0.14,0.14,0.37,0.14,0.51,0l1.02-1.02c0.11-0.11,0.26-0.18,0.42-0.18l0,0
				c0.16,0,0.31,0.06,0.42,0.17l0.1,0.1c0.23,0.23,0.23,0.61,0,0.85l-1.02,1.03c-0.14,0.14-0.14,0.37,0,0.51l1,1
				c0.23,0.23,0.23,0.61,0,0.85l-0.1,0.1C-13.69,66.84-13.84,66.9-14,66.9z"/>
			<g id="Grupo_10013" transform="translate(-11.261)">
				<path id="Caminho_7000" class="st6" d="M42.24,101.06h3.3l1.57-12.73h-4.87V101.06z"/>
				<path id="Caminho_7001" class="st7" d="M51.91,104.13H41.54v-4.01h6.42c2.18,0,3.95,1.77,3.95,3.95V104.13z"/>
				<path id="Caminho_7002" class="st6" d="M43.4,81.34l-2.28,2.39l-10.3-7.64l3.36-3.53L43.4,81.34z"/>
				<path id="Caminho_7003" class="st7" d="M38.78,84.82l4.43-4.65l2.9,2.76l-7.16,7.51l-0.04-0.04
					C37.34,88.9,37.28,86.4,38.78,84.82z"/>
				<path id="Caminho_7004" class="st6" d="M66.38,46.46c0.79-1.27,0.4-2.94-0.87-3.73c-0.14-0.08-0.28-0.16-0.43-0.22L52.12,9.49
					l-5.05,3.02L61.46,44.2c-0.46,1.43,0.32,2.96,1.75,3.43C64.41,48.01,65.71,47.53,66.38,46.46L66.38,46.46z"/>
				<path id="Caminho_7005" class="st6" d="M17.19,48.83c1.49-0.11,2.61-1.4,2.51-2.89c-0.01-0.16-0.04-0.32-0.08-0.47l19.11-29.88
					l-5.41-2.31L16.14,43.53c-1.43,0.47-2.2,2.01-1.73,3.44C14.8,48.15,15.95,48.92,17.19,48.83L17.19,48.83z"/>
				<path id="Caminho_7006" class="st7" d="M52,43.15l-3.38,50.29l-8.09-0.71l-1.66-37.1l-4.52,15.93l-9.75,0.71l3.86-31.5L52,43.15
					z"/>
				<path id="Caminho_7007" class="st7" d="M32.92,69.18l1.43,2.38l9.99,6.9l-7.14,3.8c0,0-13.79-7.61-12.6-9.99L32.92,69.18z"/>
				<path id="Caminho_7008" class="st8" d="M59.08,22.81l-2.82-7.93c-1.26-3.56-3.9-6.48-7.33-8.08l0,0
					c-3.81-1.4-7.95-1.63-11.89-0.65l-1.02,0.25c-2.73,0.66-5.29,1.9-7.51,3.63c-1.73,1.37-3.29,3.1-3.43,4.96v0.01
					c-0.48,2.11-0.72,13.05-0.72,13.05h4.24l-0.67,14.74l0.05-0.11c0,0,24.44,4.63,24.44,2.25V29.7l0.5-5.51L59.08,22.81z"/>
				<ellipse id="Elipse_100" class="st6" cx="36.26" cy="-2.69" rx="6.77" ry="6.77"/>
				<path id="Caminho_7009" class="st7" d="M35.68-5.5l-5.7-0.02c-0.66,0.07-1.33-0.09-1.89-0.45c-0.66-0.78-0.75-1.9-0.22-2.77
					c1.25-2.56,3.87-4.15,6.72-4.07c2.82,0.15,5.4,1.66,6.9,4.05c1.46,2.4,1.94,5.27,1.34,8.01c-1.32-2.81-4.04-4.71-7.14-4.98V-5.5
					z"/>
			</g>
		</g>
	</g>
	<g id="undraw_Confirm_re_69me" transform="translate(628.742 2157.638)">
		<rect id="Retângulo_191" x="-85.74" y="104.02" class="st5" width="174.47" height="0.48"/>
		<path id="Caminho_6988" class="st5" d="M-15.79-8.93H-34.5c-0.13,0-0.24-0.11-0.24-0.24c0-0.13,0.11-0.24,0.24-0.24h18.71
			c0.13,0,0.24,0.11,0.24,0.24C-15.55-9.03-15.66-8.93-15.79-8.93z"/>
	</g>
</g>
</svg>
