<svg xmlns="http://www.w3.org/2000/svg" width="68.818" height="68.818" viewBox="0 0 68.818 68.818">
  <g id="Icon_Youtube" transform="translate(1 1)">
    <circle id="Oval" cx="33.409" cy="33.409" r="33.409" fill="none" stroke="#fafafa" stroke-width="2"/>
    <path id="Youtube" d="M15.42,23.986h0c-.08,0-8.058-.058-10.475-.327-.13-.031-.288-.053-.471-.08a4.324,4.324,0,0,1-2.932-1.392,8.2,8.2,0,0,1-1.223-3.38A54.6,54.6,0,0,1,0,13.3V10.739C0,8,.316,5.207.319,5.179A7.457,7.457,0,0,1,1.542,1.8,4.2,4.2,0,0,1,4.533.39H4.54L4.626.382C8.882.059,15.355,0,15.42,0s6.538.059,10.794.382l.146.012A3.926,3.926,0,0,1,29.3,1.8a8.2,8.2,0,0,1,1.223,3.38c0,.028.319,2.815.319,5.56V13.3c0,2.689-.316,5.478-.319,5.506a8.2,8.2,0,0,1-1.223,3.38A4.2,4.2,0,0,1,26.306,23.6H26.3l-.086.008C21.956,23.982,15.484,23.986,15.42,23.986ZM11.7,6.487v11.83l10.1-5.778Z" transform="translate(17.989 21.416)" fill="#fafafa"/>
  </g>
</svg>
