<svg id="Icon_Instagram" xmlns="http://www.w3.org/2000/svg" width="66.818" height="66.818" viewBox="0 0 66.818 66.818">
  <g id="Oval" fill="none" stroke="#fafafa" stroke-width="2">
    <circle cx="33.409" cy="33.409" r="33.409" stroke="none"/>
    <circle cx="33.409" cy="33.409" r="32.409" fill="none"/>
  </g>
  <path id="Instagram" d="M20.449,29.126H8.677A8.686,8.686,0,0,1,0,20.449V8.677A8.686,8.686,0,0,1,8.677,0H20.449a8.686,8.686,0,0,1,8.677,8.677V20.449A8.686,8.686,0,0,1,20.449,29.126ZM8.677,2.93A5.753,5.753,0,0,0,2.93,8.677V20.449A5.753,5.753,0,0,0,8.677,26.2H20.449A5.753,5.753,0,0,0,26.2,20.449V8.677A5.753,5.753,0,0,0,20.449,2.93ZM14.563,22.1A7.533,7.533,0,1,1,22.1,14.563,7.541,7.541,0,0,1,14.563,22.1Zm0-12.135a4.6,4.6,0,1,0,4.6,4.6A4.608,4.608,0,0,0,14.563,9.96ZM22.11,8.892a1.805,1.805,0,1,1,1.806-1.8A1.807,1.807,0,0,1,22.11,8.892Z" transform="translate(18.847 18.846)" fill="#fafafa"/>
</svg>
