<svg id="Oferta" xmlns="http://www.w3.org/2000/svg" width="34" height="34" viewBox="0 0 34 34">
  <path id="percent" d="M23.563,29a5.439,5.439,0,0,1-5.438-5.452,5.415,5.415,0,0,1,5.438-5.423A5.415,5.415,0,0,1,29,23.548,5.277,5.277,0,0,1,27.415,27.4,5.213,5.213,0,0,1,23.563,29Zm.015-7.25a1.781,1.781,0,0,0-1.289.524,1.712,1.712,0,0,0-.538,1.274,1.836,1.836,0,0,0,1.826,1.826,1.715,1.715,0,0,0,1.274-.538,1.784,1.784,0,0,0,.524-1.289,1.727,1.727,0,0,0-.524-1.274A1.744,1.744,0,0,0,23.577,21.75ZM11.215,27.187a3.346,3.346,0,0,1-1.232,1.289,3.023,3.023,0,0,1-1.6.524H4.73a.986.986,0,0,1-1.006-.538,1.415,1.415,0,0,1,.156-1.274L17.785,1.813A3.346,3.346,0,0,1,19.018.525,3.029,3.029,0,0,1,20.617,0h3.654a.991.991,0,0,1,1.006.524,1.451,1.451,0,0,1-.156,1.289ZM5.438,10.875a5.222,5.222,0,0,1-3.852-1.6A5.274,5.274,0,0,1,0,5.423,5.225,5.225,0,0,1,1.586,1.586,5.248,5.248,0,0,1,5.438,0,5.24,5.24,0,0,1,9.29,1.586a5.229,5.229,0,0,1,1.586,3.837A5.277,5.277,0,0,1,9.29,9.275,5.213,5.213,0,0,1,5.438,10.875Zm-.015-7.25a1.79,1.79,0,0,0-1.8,1.8,1.778,1.778,0,0,0,.524,1.289,1.727,1.727,0,0,0,1.289.538,1.735,1.735,0,0,0,1.289-.538,1.775,1.775,0,0,0,.524-1.289,1.713,1.713,0,0,0-.538-1.274,1.788,1.788,0,0,0-1.289-.524Z" transform="translate(2 3)" fill="#fff"/>
  <rect id="Retângulo_25" data-name="Retângulo 25" width="34" height="34" fill="none"/>
</svg>
