<svg id="Photo" xmlns="http://www.w3.org/2000/svg" width="34" height="34" viewBox="0 0 34 34">
  <rect id="Retângulo_25" data-name="Retângulo 25" width="34" height="34" fill="none"/>
  <g id="Grupo_27" data-name="Grupo 27" transform="translate(-267.75 -1481.25)">
    <path id="Caminho_3" data-name="Caminho 3" d="M25.857,25.866A3.366,3.366,0,1,1,22.491,22.5,3.366,3.366,0,0,1,25.857,25.866Z" transform="translate(262.759 1473.356)" fill="#fff"/>
    <path id="Caminho_4" data-name="Caminho 4" d="M36.225,18.975H31.469l-.788-2.368a2.9,2.9,0,0,0-2.752-1.982H21.32a2.9,2.9,0,0,0-2.752,1.984l-.788,2.366H13.025a2.9,2.9,0,0,0-2.9,2.9v13.05a2.9,2.9,0,0,0,2.9,2.9h23.2a2.9,2.9,0,0,0,2.9-2.9V21.875a2.9,2.9,0,0,0-2.9-2.9Zm-11.6,14.5a5.8,5.8,0,1,1,5.8-5.8,5.8,5.8,0,0,1-5.8,5.8Z" transform="translate(260.625 1471.625)" fill="#fff"/>
  </g>
</svg>
