<svg xmlns="http://www.w3.org/2000/svg" xmlns:xlink="http://www.w3.org/1999/xlink" width="522.448" height="708.247" viewBox="0 0 522.448 708.247">
  <defs>
    <clipPath id="clip-path">
      <path id="Caminho_111" data-name="Caminho 111" d="M784.012,1475.594s3.961,115.3-21.4,144.231c-14.158,16.142-44.266,21.362-62.6,21.393-18.943.031-47.031-5.658-57.451-15.849-36.451-35.66-23.379-149.774-23.379-149.774Z" transform="translate(-616.899 -1475.594)" fill="none"/>
    </clipPath>
    <clipPath id="clip-path-2">
      <rect id="Retângulo_69" data-name="Retângulo 69" width="522.448" height="50.184" fill="#d5dde0"/>
    </clipPath>
  </defs>
  <g id="Vector_FiltroBarro" transform="translate(-517.856 -130.582)">
    <g id="Grupo_4029" data-name="Grupo 4029" transform="translate(931.659 661.424)">
      <g id="Grupo_4028" data-name="Grupo 4028" transform="translate(0 0)">
        <path id="Caminho_32" data-name="Caminho 32" d="M1671.1,1726.7h44.572a7.816,7.816,0,0,0,7.806-7.411l4.563-87.916h-70.653l5.913,88.034A7.817,7.817,0,0,0,1671.1,1726.7Z" transform="translate(-1654.929 -1613.983)" fill="#ced5d8"/>
        <path id="Caminho_33" data-name="Caminho 33" d="M1677.42,1735.66h41.918a7.585,7.585,0,0,0,7.341-7.45l3.694-76.074-65.106-.481,4.819,76.675A7.575,7.575,0,0,0,1677.42,1735.66Z" transform="translate(-1659.927 -1626.858)" fill="#fff"/>
        <path id="Caminho_34" data-name="Caminho 34" d="M1678.6,1755.982h41.86a7.575,7.575,0,0,0,7.331-7.44l3.168-65.237-63.819-.455,4.135,65.811A7.565,7.565,0,0,0,1678.6,1755.982Z" transform="translate(-1661.118 -1646.659)" fill="#e4f5f9"/>
        <path id="Caminho_35" data-name="Caminho 35" d="M1795.7,1756.59h6.36a7.575,7.575,0,0,0,7.331-7.44l3.168-65.237-14.709-.1Z" transform="translate(-1742.712 -1647.267)" fill="#edf7f9"/>
        <g id="Grupo_4025" data-name="Grupo 4025" transform="translate(31.727 39.195)">
          <path id="Caminho_36" data-name="Caminho 36" d="M1795.035,1861.945a.945.945,0,1,1-.945-.945A.944.944,0,0,1,1795.035,1861.945Z" transform="translate(-1772.82 -1798.926)" fill="#cee8ef"/>
          <path id="Caminho_37" data-name="Caminho 37" d="M1823.856,1836.161a.945.945,0,1,1-.945-.944A.944.944,0,0,1,1823.856,1836.161Z" transform="translate(-1791.113 -1782.561)" fill="#cee8ef"/>
          <path id="Caminho_38" data-name="Caminho 38" d="M1833.515,1792.909a.945.945,0,1,1-.945-.945A.944.944,0,0,1,1833.515,1792.909Z" transform="translate(-1797.243 -1755.108)" fill="#cee8ef"/>
          <path id="Caminho_39" data-name="Caminho 39" d="M1836.594,1748.915a.945.945,0,1,1-.945-.945A.945.945,0,0,1,1836.594,1748.915Z" transform="translate(-1799.197 -1727.185)" fill="#cee8ef"/>
          <path id="Caminho_40" data-name="Caminho 40" d="M1823.856,1692.015a.945.945,0,1,1-.945-.945A.945.945,0,0,1,1823.856,1692.015Z" transform="translate(-1791.113 -1691.07)" fill="#cee8ef"/>
          <path id="Caminho_41" data-name="Caminho 41" d="M1739.393,1700.09a.945.945,0,1,1-.945-.945A.945.945,0,0,1,1739.393,1700.09Z" transform="translate(-1737.503 -1696.196)" fill="#cee8ef"/>
          <path id="Caminho_42" data-name="Caminho 42" d="M1757.986,1736.467a.945.945,0,1,1-.945-.945A.945.945,0,0,1,1757.986,1736.467Z" transform="translate(-1749.305 -1719.284)" fill="#cee8ef"/>
          <path id="Caminho_43" data-name="Caminho 43" d="M1792.449,1844.836a.944.944,0,1,1-.944-.945A.944.944,0,0,1,1792.449,1844.836Z" transform="translate(-1771.179 -1788.066)" fill="#cee8ef"/>
          <path id="Caminho_44" data-name="Caminho 44" d="M1823.856,1859.359a.945.945,0,1,1-.945-.944A.945.945,0,0,1,1823.856,1859.359Z" transform="translate(-1791.113 -1797.285)" fill="#cee8ef"/>
          <path id="Caminho_45" data-name="Caminho 45" d="M1763.651,1854.188a.945.945,0,1,1-.944-.944A.944.944,0,0,1,1763.651,1854.188Z" transform="translate(-1752.901 -1794.002)" fill="#cee8ef"/>
          <path id="Caminho_46" data-name="Caminho 46" d="M1815.125,1809.136a.945.945,0,1,1-.945-.945A.945.945,0,0,1,1815.125,1809.136Z" transform="translate(-1785.571 -1765.407)" fill="#cee8ef"/>
          <path id="Caminho_47" data-name="Caminho 47" d="M1789.033,1783.217a2.069,2.069,0,1,1-2.069-2.069A2.069,2.069,0,0,1,1789.033,1783.217Z" transform="translate(-1767.583 -1748.243)" fill="#cee8ef"/>
          <path id="Caminho_48" data-name="Caminho 48" d="M1815.125,1748.915a.945.945,0,1,1-.945-.945A.945.945,0,0,1,1815.125,1748.915Z" transform="translate(-1785.571 -1727.185)" fill="#cee8ef"/>
          <path id="Caminho_49" data-name="Caminho 49" d="M1785.955,1810.26a2.069,2.069,0,1,1-2.069-2.069A2.069,2.069,0,0,1,1785.955,1810.26Z" transform="translate(-1765.629 -1765.407)" fill="#cee8ef"/>
          <circle id="Elipse_6" data-name="Elipse 6" cx="0.945" cy="0.945" r="0.945" transform="translate(25.37 8.168)" fill="#cee8ef"/>
          <path id="Caminho_50" data-name="Caminho 50" d="M1762.822,1762.214a2.069,2.069,0,1,1-2.069-2.069A2.07,2.07,0,0,1,1762.822,1762.214Z" transform="translate(-1750.946 -1734.912)" fill="#cee8ef"/>
          <path id="Caminho_51" data-name="Caminho 51" d="M1762.822,1712.42a2.069,2.069,0,1,1-2.069-2.069A2.069,2.069,0,0,1,1762.822,1712.42Z" transform="translate(-1750.946 -1703.308)" fill="#cee8ef"/>
          <path id="Caminho_52" data-name="Caminho 52" d="M1830.1,1715.5a2.069,2.069,0,1,1-2.069-2.069A2.07,2.07,0,0,1,1830.1,1715.5Z" transform="translate(-1793.648 -1705.262)" fill="#cee8ef"/>
          <path id="Caminho_53" data-name="Caminho 53" d="M1819.011,1771.046a1.595,1.595,0,1,1-1.595-1.595A1.595,1.595,0,0,1,1819.011,1771.046Z" transform="translate(-1787.212 -1740.819)" fill="#cee8ef"/>
        </g>
        <g id="Grupo_4026" data-name="Grupo 4026" transform="translate(8.34 40.139)">
          <path id="Caminho_54" data-name="Caminho 54" d="M1694.04,1866.753a.945.945,0,1,1-.945-.945A.945.945,0,0,1,1694.04,1866.753Z" transform="translate(-1685.33 -1802.922)" fill="#cee8ef"/>
          <path id="Caminho_55" data-name="Caminho 55" d="M1722.861,1840.97a.945.945,0,1,1-.945-.945A.945.945,0,0,1,1722.861,1840.97Z" transform="translate(-1703.623 -1786.557)" fill="#cee8ef"/>
          <path id="Caminho_56" data-name="Caminho 56" d="M1732.52,1797.717a.945.945,0,1,1-.945-.945A.945.945,0,0,1,1732.52,1797.717Z" transform="translate(-1709.753 -1759.104)" fill="#cee8ef"/>
          <path id="Caminho_57" data-name="Caminho 57" d="M1751.213,1776.984a.945.945,0,1,1-.945-.945A.945.945,0,0,1,1751.213,1776.984Z" transform="translate(-1721.618 -1745.945)" fill="#cee8ef"/>
          <path id="Caminho_58" data-name="Caminho 58" d="M1722.861,1696.823a.945.945,0,1,1-.945-.945A.945.945,0,0,1,1722.861,1696.823Z" transform="translate(-1703.623 -1695.067)" fill="#cee8ef"/>
          <path id="Caminho_59" data-name="Caminho 59" d="M1675.368,1694.6a.945.945,0,1,1-.945-.945A.944.944,0,0,1,1675.368,1694.6Z" transform="translate(-1673.479 -1693.656)" fill="#cee8ef"/>
          <path id="Caminho_60" data-name="Caminho 60" d="M1675.368,1716.6a.945.945,0,1,1-.945-.944A.945.945,0,0,1,1675.368,1716.6Z" transform="translate(-1673.479 -1707.617)" fill="#cee8ef"/>
          <path id="Caminho_61" data-name="Caminho 61" d="M1691.453,1849.644a.945.945,0,1,1-.945-.945A.945.945,0,0,1,1691.453,1849.644Z" transform="translate(-1683.688 -1792.063)" fill="#cee8ef"/>
          <circle id="Elipse_7" data-name="Elipse 7" cx="0.945" cy="0.945" r="0.945" transform="translate(17.349 61.942)" fill="#cee8ef"/>
          <path id="Caminho_62" data-name="Caminho 62" d="M1751.213,1859.359a.945.945,0,1,1-.945-.944A.945.945,0,0,1,1751.213,1859.359Z" transform="translate(-1721.618 -1798.229)" fill="#cee8ef"/>
          <path id="Caminho_63" data-name="Caminho 63" d="M1714.129,1813.944a.945.945,0,1,1-.945-.945A.945.945,0,0,1,1714.129,1813.944Z" transform="translate(-1698.081 -1769.404)" fill="#cee8ef"/>
          <path id="Caminho_64" data-name="Caminho 64" d="M1688.039,1788.026a2.069,2.069,0,1,1-2.069-2.069A2.069,2.069,0,0,1,1688.039,1788.026Z" transform="translate(-1680.094 -1752.24)" fill="#cee8ef"/>
          <circle id="Elipse_8" data-name="Elipse 8" cx="0.945" cy="0.945" r="0.945" transform="translate(14.159 21.597)" fill="#cee8ef"/>
          <path id="Caminho_65" data-name="Caminho 65" d="M1684.959,1815.069a2.069,2.069,0,1,1-2.069-2.069A2.069,2.069,0,0,1,1684.959,1815.069Z" transform="translate(-1678.139 -1769.404)" fill="#cee8ef"/>
          <path id="Caminho_66" data-name="Caminho 66" d="M1707.848,1719.182a.945.945,0,1,1-.945-.945A.944.944,0,0,1,1707.848,1719.182Z" transform="translate(-1694.094 -1709.258)" fill="#cee8ef"/>
          <path id="Caminho_67" data-name="Caminho 67" d="M1746.884,1826.4a2.069,2.069,0,1,1-2.069-2.07A2.069,2.069,0,0,1,1746.884,1826.4Z" transform="translate(-1717.443 -1776.594)" fill="#cee8ef"/>
          <path id="Caminho_68" data-name="Caminho 68" d="M1684.959,1737.1a2.069,2.069,0,1,1-2.069-2.069A2.069,2.069,0,0,1,1684.959,1737.1Z" transform="translate(-1678.139 -1719.916)" fill="#cee8ef"/>
          <path id="Caminho_69" data-name="Caminho 69" d="M1729.1,1720.307a2.069,2.069,0,1,1-2.069-2.069A2.069,2.069,0,0,1,1729.1,1720.307Z" transform="translate(-1706.158 -1709.258)" fill="#cee8ef"/>
          <path id="Caminho_70" data-name="Caminho 70" d="M1718.016,1775.854a1.595,1.595,0,1,1-1.595-1.595A1.595,1.595,0,0,1,1718.016,1775.854Z" transform="translate(-1699.722 -1744.815)" fill="#cee8ef"/>
        </g>
        <g id="Grupo_4027" data-name="Grupo 4027" transform="translate(8.805 16.907)">
          <path id="Caminho_71" data-name="Caminho 71" d="M1796.84,1723.238a3.225,3.225,0,0,1-.933-2.369l3.373-85.318a5.756,5.756,0,0,1,5.68-5.494,5.123,5.123,0,0,1,3.779,1.613,5.192,5.192,0,0,1,1.39,3.928l-5.293,85.318c-.125,2.014-2.2,3.652-4.626,3.652A4.657,4.657,0,0,1,1796.84,1723.238Zm3.4-87.649-3.373,85.318a2.243,2.243,0,0,0,.666,1.667,3.7,3.7,0,0,0,2.679,1.038c1.93,0,3.577-1.235,3.671-2.754l5.293-85.318a4.25,4.25,0,0,0-1.132-3.214,4.177,4.177,0,0,0-3.082-1.311A4.787,4.787,0,0,0,1800.237,1635.589Z" transform="translate(-1751.649 -1630.058)" fill="#d5dde0"/>
          <path id="Caminho_72" data-name="Caminho 72" d="M1680.637,1720.921l-5.87-85.318a5.171,5.171,0,0,1,1.367-3.932,5.091,5.091,0,0,1,3.767-1.613,5.8,5.8,0,0,1,5.714,5.491l3.949,85.317a3.209,3.209,0,0,1-.918,2.372,4.633,4.633,0,0,1-3.361,1.332C1682.86,1724.57,1680.775,1722.933,1680.637,1720.921Zm-3.8-88.6a4.229,4.229,0,0,0-1.111,3.213l5.87,85.318c.1,1.521,1.761,2.757,3.692,2.757a3.673,3.673,0,0,0,2.668-1.036,2.229,2.229,0,0,0,.656-1.666l-3.949-85.318a4.832,4.832,0,0,0-4.759-4.577A4.145,4.145,0,0,0,1676.833,1632.324Z" transform="translate(-1674.754 -1630.058)" fill="#d5dde0"/>
          <path id="Caminho_73" data-name="Caminho 73" d="M1762.381,1723.243a3.326,3.326,0,0,1-1.01-2.357l.334-85.317a5.527,5.527,0,0,1,5.5-5.511,5.294,5.294,0,0,1,3.826,1.61,5.363,5.363,0,0,1,1.522,3.916L1770.3,1720.9c-.053,2.023-2.078,3.669-4.514,3.669A4.807,4.807,0,0,1,1762.381,1723.243Zm.282-87.671-.334,85.318a2.34,2.34,0,0,0,.731,1.677,3.843,3.843,0,0,0,2.727,1.045c1.921,0,3.517-1.228,3.556-2.737l2.255-85.318a4.414,4.414,0,0,0-1.25-3.223,4.35,4.35,0,0,0-3.141-1.319A4.567,4.567,0,0,0,1762.662,1635.573Z" transform="translate(-1729.73 -1630.058)" fill="#d5dde0"/>
          <path id="Caminho_74" data-name="Caminho 74" d="M1720.332,1720.9l-2.842-85.318a5.326,5.326,0,0,1,1.5-3.918,5.264,5.264,0,0,1,3.818-1.611,5.571,5.571,0,0,1,5.536,5.508l.921,85.317a3.308,3.308,0,0,1-.995,2.36,4.782,4.782,0,0,1-3.4,1.327C1722.434,1724.57,1720.4,1722.926,1720.332,1720.9Zm-.657-88.57a4.375,4.375,0,0,0-1.227,3.22l2.842,85.318c.05,1.511,1.655,2.74,3.578,2.74a3.819,3.819,0,0,0,2.718-1.043,2.322,2.322,0,0,0,.718-1.676l-.921-85.318a4.61,4.61,0,0,0-4.579-4.56A4.313,4.313,0,0,0,1719.675,1632.334Z" transform="translate(-1701.877 -1630.058)" fill="#d5dde0"/>
        </g>
        <path id="Caminho_75" data-name="Caminho 75" d="M1726.072,1604.889a.615.615,0,0,0,.6-.6l.83-11.469c0-2.937-2.067-5.318-4.617-5.318H1659.6c-2.549,0-4.616,2.381-4.616,5.318l.982,11.477c.019.332.511,5.905.83,5.905Z" transform="translate(-1653.401 -1586.14)" fill="#b3babc"/>
        <path id="Caminho_76" data-name="Caminho 76" d="M1724.714,1601.161a.628.628,0,0,0,.628-.6l.865-11.469a5.083,5.083,0,0,0-4.81-5.318h-65.937a5.083,5.083,0,0,0-4.81,5.318l1.023,11.477a.629.629,0,0,0,.627.591Z" transform="translate(-1650.649 -1583.774)" fill="#e0ebf1"/>
        <path id="Caminho_77" data-name="Caminho 77" d="M1818.735,1601.161a.629.629,0,0,0,.628-.6l.865-11.469c0-2.937.251-5.318-2.405-5.318h-12.366v5.311c-.133,6-.332,12.076,0,12.076Z" transform="translate(-1748.79 -1583.774)" fill="#f0f5f7"/>
        <path id="Caminho_78" data-name="Caminho 78" d="M1661.671,1601.639c-1.258-1.7-2.216-16.863,1.125-17.865h-7.337a5.083,5.083,0,0,0-4.81,5.318l1.023,11.478a.628.628,0,0,0,.627.59h.813l5.913,88.035a7.816,7.816,0,0,0,7.8,7.293,19.14,19.14,0,0,1-1.7-6.284C1664.865,1686.8,1661.671,1612.96,1661.671,1601.639Z" transform="translate(-1650.649 -1583.774)" fill="#aab5ba" opacity="0.55"/>
        <path id="Caminho_79" data-name="Caminho 79" d="M1664.512,1631.848l-.235-.479c-4.83.021-9.454,0-9.136,0h.812l5.913,88.035a7.817,7.817,0,0,0,7.8,7.293,19.14,19.14,0,0,1-1.7-6.284C1667.706,1717.009,1664.512,1643.169,1664.512,1631.848Z" transform="translate(-1653.49 -1613.983)" fill="#828b8e" opacity="0.32"/>
      </g>
    </g>
    <g id="Grupo_4049" data-name="Grupo 4049" transform="translate(522.308 196.655)">
      <g id="Grupo_4048" data-name="Grupo 4048" transform="translate(0)">
        <g id="Grupo_4030" data-name="Grupo 4030" transform="translate(4.287 22.562)">
          <path id="Caminho_80" data-name="Caminho 80" d="M618.743,793.1s3.11-34.532-14.81-99.287-25.26-106.983-21.494-145.456,2.305-116.149-21.782-175.13C560.657,373.222,491.2,573.589,618.743,793.1Z" transform="translate(-541.78 -373.222)" fill="#0f5d62"/>
          <path id="Caminho_81" data-name="Caminho 81" d="M560.657,373.222c2.644,6.465,5,13.167,7.113,20-13.02,56.748-33.754,204.575,49.586,367.462,2.378,21.344,1.387,32.408,1.387,32.408C491.2,573.589,560.657,373.222,560.657,373.222Z" transform="translate(-541.78 -373.222)" fill="#bdccd8" style="mix-blend-mode: multiply;isolation: isolate"/>
        </g>
        <g id="Grupo_4031" data-name="Grupo 4031" transform="translate(141.44 30.892)">
          <path id="Caminho_82" data-name="Caminho 82" d="M917.367,819.893s-2.781-34.649,17.729-100.268,29.166-108.28,25.749-146.87S960.352,456,987.425,396.026C987.425,396.026,1059.154,595.642,917.367,819.893Z" transform="translate(-917.24 -396.026)" fill="#0f5d62"/>
          <path id="Caminho_83" data-name="Caminho 83" d="M987.424,396.026c-2.97,6.578-5.629,13.377-8.04,20.318,13.119,56.712,33.021,204.813-59.966,370.911-2.944,21.53-2.052,32.638-2.052,32.638C1059.154,595.642,987.424,396.026,987.424,396.026Z" transform="translate(-917.24 -396.026)" fill="#bdccd8" style="mix-blend-mode: multiply;isolation: isolate"/>
        </g>
        <g id="Grupo_4032" data-name="Grupo 4032" transform="translate(86.946)">
          <path id="Caminho_84" data-name="Caminho 84" d="M803.754,798.375s-6.671-22.087-1.672-42.07,8.331-59.954-1.662-91.51-11.661-150.411,13.32-232.452-.828-97.822-11.658-118.859S795.06,441,780.435,493.346c-24.982,89.4-3.606,166.457-8.324,213.523C764.608,781.546,803.754,798.375,803.754,798.375Z" transform="translate(-768.061 -311.458)" fill="#439879"/>
          <path id="Caminho_85" data-name="Caminho 85" d="M780.435,493.346c14.625-52.343,10.82-200.9,21.647-179.863a99.349,99.349,0,0,0,5.364,8.9c-3.2,44.6-4.728,128.687-14.519,166.376-24.985,96.065-3.612,178.866-8.331,229.432-3.305,35.364,2.455,58.65,9.922,73.643-11.057-10.184-27.507-34.2-22.409-84.965C776.829,659.8,755.454,582.749,780.435,493.346Z" transform="translate(-768.061 -311.458)" fill="#aebfd0" style="mix-blend-mode: multiply;isolation: isolate"/>
        </g>
        <g id="Grupo_4033" data-name="Grupo 4033" transform="translate(128.368 109.261)">
          <path id="Caminho_86" data-name="Caminho 86" d="M881.455,931.837s7.167-13.273,6.367-27.49,2.008-41.3,12.566-60.176,26.542-97.127,20.3-156.37,12.806-64.517,22.6-76.263-11.323,85.728-8.2,123.26c5.313,64.11-18.473,110.791-21.238,142.852C909.442,928.53,881.455,931.837,881.455,931.837Z" transform="translate(-881.455 -610.561)" fill="#439879"/>
          <path id="Caminho_87" data-name="Caminho 87" d="M947.106,734.8c-3.12-37.532,17.994-135.006,8.2-123.26a56.845,56.845,0,0,1-4.664,4.813c-3.465,30.13-12.988,86.039-11.227,112.915,4.485,68.519-20.024,119-23.23,153.374-2.247,24.046-8.97,38.3-15.788,46.718,8.6-4.526,22.476-17.121,25.468-51.709C928.633,845.588,952.419,798.906,947.106,734.8Z" transform="translate(-893.48 -610.561)" fill="#aebfd0" style="mix-blend-mode: multiply;isolation: isolate"/>
        </g>
        <g id="Grupo_4034" data-name="Grupo 4034" transform="translate(68.328 92.932)">
          <path id="Caminho_88" data-name="Caminho 88" d="M746.817,896.4s-5.073-14.726-2.193-28.5c2.9-13.777,4.137-41.053-3.443-62.083s-11.732-101.677,3.146-158.409c14.893-56.728-3.04-66.4-10.933-80.249-7.876-13.85-1.531,86.891-10.133,123.026-14.7,61.731,1.761,113.2-.246,145.351C719.815,886.559,746.817,896.4,746.817,896.4Z" transform="translate(-717.093 -565.861)" fill="#439879"/>
          <path id="Caminho_89" data-name="Caminho 89" d="M723.261,690.185c8.6-36.135,2.257-136.876,10.133-123.026a66.629,66.629,0,0,0,3.877,5.826c-1.036,30.421.051,87.59-5.651,113.577-14.529,66.257,2.087,121.625.169,156.161-1.349,24.15,3.149,39.733,8.6,49.609-7.771-6.465-19.544-22.111-17.373-56.8C725.022,803.383,708.559,751.916,723.261,690.185Z" transform="translate(-717.093 -565.861)" fill="#aebfd0" style="mix-blend-mode: multiply;isolation: isolate"/>
        </g>
        <g id="Grupo_4035" data-name="Grupo 4035" transform="translate(97.904 26.505)">
          <path id="Caminho_90" data-name="Caminho 90" d="M798.059,796.155s16.1-29.259,20.427-82.332,3.146-64.279,23.406-104.548,27.737-122.3,13.845-205.136,57.469,109.128,9.635,229.642S874.155,768.092,798.059,796.155Z" transform="translate(-798.059 -384.016)" fill="#6bb86f"/>
          <path id="Caminho_91" data-name="Caminho 91" d="M887.17,388.523c14.362,48.741,33.293,161.531.758,243.5-40.613,102.331-10.945,132.842-37.478,156.059,46.614-23.763,5.147-45.822,48.174-154.226C942.242,523.961,886.758,354.71,887.17,388.523Z" transform="translate(-831.312 -384.092)" fill="#d4dde5" style="mix-blend-mode: multiply;isolation: isolate"/>
        </g>
        <g id="Grupo_4036" data-name="Grupo 4036" transform="translate(163.001 148.625)">
          <path id="Caminho_92" data-name="Caminho 92" d="M976.262,1003.133s12.854-19.208,18.7-56.134,5.6-44.9,21.964-71.495,25.944-83.6,20.551-142.977,34.629,81.516-5.338,162.177S1031.219,989.82,976.262,1003.133Z" transform="translate(-976.262 -718.323)" fill="#6bb86f"/>
          <path id="Caminho_93" data-name="Caminho 93" d="M1061.143,721.4c7.518,35.461,14.871,116.311-12.313,171.169-33.939,68.486-14.7,92.419-34.572,106.5,34.006-12.772,6.032-31.762,41.994-104.315C1092.7,821.2,1062.642,697.6,1061.143,721.4Z" transform="translate(-1000.378 -718.373)" fill="#d4dde5" style="mix-blend-mode: multiply;isolation: isolate"/>
        </g>
        <g id="Grupo_4037" data-name="Grupo 4037" transform="translate(0 164.402)">
          <path id="Caminho_94" data-name="Caminho 94" d="M603.879,1046.321s-12.857-19.2-18.7-56.13-5.6-44.905-21.97-71.495-25.941-83.608-20.545-142.981-34.626,81.521,5.348,162.177S548.926,1033.008,603.879,1046.321Z" transform="translate(-530.049 -761.511)" fill="#6bb86f"/>
          <path id="Caminho_95" data-name="Caminho 95" d="M543.109,764.594c-7.522,35.457-14.877,116.311,12.313,171.165,33.939,68.486,14.7,92.423,34.572,106.5-34.006-12.772-6.032-31.762-41.985-104.314C511.555,864.4,541.61,740.8,543.109,764.594Z" transform="translate(-530.044 -761.567)" fill="#d4dde5" style="mix-blend-mode: multiply;isolation: isolate"/>
        </g>
        <g id="Grupo_4038" data-name="Grupo 4038" transform="translate(101.295 87.749)">
          <path id="Caminho_96" data-name="Caminho 96" d="M832.931,926.125s8.791-28.564,5.019-88.854-2.506-98.374,7.531-130.1c10.054-31.733,22.61-98.375,12.566-155.494C858.047,551.673,763.212,702.8,832.931,926.125Z" transform="translate(-807.34 -551.673)" fill="#0f5d62"/>
          <path id="Caminho_97" data-name="Caminho 97" d="M858.047,551.673c1.1,6.263,1.915,12.643,2.512,19.075C839.366,615.435,795.409,735.582,837.5,898.1c-1.761,18.869-4.571,28.027-4.571,28.027C763.212,702.8,858.047,551.673,858.047,551.673Z" transform="translate(-807.34 -551.673)" fill="#bdccd8" style="mix-blend-mode: multiply;isolation: isolate"/>
        </g>
        <g id="Grupo_4039" data-name="Grupo 4039" transform="translate(6.049 91.867)">
          <path id="Caminho_98" data-name="Caminho 98" d="M638.938,954.015s-9.363-15.857-8.97-33.4-4.165-50.683-17.933-73.2-36.662-117.741-31.42-191.032-18.413-78.524-30.94-92.33,17.473,104.71,15.181,151.093c-3.906,79.215,27.274,135.075,32.011,174.339C604.373,951.786,638.938,954.015,638.938,954.015Z" transform="translate(-546.603 -562.946)" fill="#439879"/>
          <path id="Caminho_99" data-name="Caminho 99" d="M564.855,715.15c2.292-46.383-27.712-164.9-15.181-151.093a68.886,68.886,0,0,0,5.936,5.617c5.508,36.833,19.532,104.989,18.467,138.168-2.688,84.581,29.531,145.065,34.9,187.151,3.756,29.432,12.614,46.516,21.35,56.425-10.75-5-28.354-19.579-33.459-61.929C592.129,850.225,560.949,794.365,564.855,715.15Z" transform="translate(-546.603 -562.946)" fill="#aebfd0" style="mix-blend-mode: multiply;isolation: isolate"/>
        </g>
        <g id="Grupo_4040" data-name="Grupo 4040" transform="translate(130.954 93.442)">
          <path id="Caminho_100" data-name="Caminho 100" d="M888.534,958.331s9.37-15.857,8.967-33.4,4.168-50.683,17.933-73.2S952.1,733.995,946.857,660.7s18.409-78.524,30.937-92.334-17.463,104.714-15.175,151.093c3.9,79.219-27.286,135.079-32.011,174.339C923.1,956.1,888.534,958.331,888.534,958.331Z" transform="translate(-888.534 -567.259)" fill="#439879"/>
          <path id="Caminho_101" data-name="Caminho 101" d="M977.588,719.462c-2.288-46.379,27.712-164.895,15.175-151.093a68.184,68.184,0,0,1-5.927,5.621c-5.511,36.829-19.532,104.984-18.474,138.164,2.695,84.581-29.54,145.069-34.9,187.151-3.753,29.436-12.6,46.52-21.344,56.429,10.754-5,28.354-19.583,33.459-61.933C950.3,854.541,981.488,798.682,977.588,719.462Z" transform="translate(-903.503 -567.259)" fill="#aebfd0" style="mix-blend-mode: multiply;isolation: isolate"/>
        </g>
        <g id="Grupo_4041" data-name="Grupo 4041" transform="translate(46.93 61.597)">
          <path id="Caminho_102" data-name="Caminho 102" d="M724.739,896.966s-13.989-30.942-14.58-84.287,1.352-64.38-16.012-106.753S675.076,581,694.7,500.048s-64.876,102.283-25.656,227.667S650.909,860.525,724.739,896.966Z" transform="translate(-658.523 -480.082)" fill="#6bb86f"/>
          <path id="Caminho_103" data-name="Caminho 103" d="M697.6,484.681c-17.713,46.952-44.462,157.19-17.786,242.47,33.306,106.458,1.624,133.537,26.427,159.629-44.775-28.871-1.921-46.213-37.2-159C633.273,613.449,700.373,451.05,697.6,484.681Z" transform="translate(-658.516 -480.148)" fill="#d4dde5" style="mix-blend-mode: multiply;isolation: isolate"/>
        </g>
        <g id="Grupo_4042" data-name="Grupo 4042" transform="translate(57.295 249.956)">
          <path id="Caminho_104" data-name="Caminho 104" d="M728.408,1222.236s1.682-18.63-7.982-53.566-13.627-57.714-11.6-78.468,1.237-62.664-11.754-94.482C697.075,995.719,659.606,1103.817,728.408,1222.236Z" transform="translate(-686.891 -995.719)" fill="#0f5d62"/>
          <path id="Caminho_105" data-name="Caminho 105" d="M697.075,995.719c1.425,3.489,2.691,7.1,3.839,10.793-7.029,30.611-18.211,110.363,26.743,198.239,1.288,11.516.751,17.484.751,17.484C659.606,1103.817,697.075,995.719,697.075,995.719Z" transform="translate(-686.891 -995.719)" fill="#bdccd8" style="mix-blend-mode: multiply;isolation: isolate"/>
        </g>
        <g id="Grupo_4043" data-name="Grupo 4043" transform="translate(143.299 241.671)">
          <path id="Caminho_106" data-name="Caminho 106" d="M922.622,1201.08s-2.33-18.522,6.106-53.958,11.585-58.42,8.832-79.041-3.44-62.526,8.427-95.043C945.987,973.037,987.211,1078.926,922.622,1201.08Z" transform="translate(-922.327 -973.037)" fill="#0f5d62"/>
          <path id="Caminho_107" data-name="Caminho 107" d="M945.992,973.037c-1.308,3.562-2.449,7.244-3.459,10.995,8.091,30.187,22.063,109.233-19.768,199.54-.879,11.573-.138,17.508-.138,17.508C987.216,1078.926,945.992,973.037,945.992,973.037Z" transform="translate(-922.332 -973.037)" fill="#bdccd8" style="mix-blend-mode: multiply;isolation: isolate"/>
        </g>
        <g id="Grupo_4047" data-name="Grupo 4047" transform="translate(31.728 425.252)">
          <path id="Caminho_108" data-name="Caminho 108" d="M784.012,1475.594s3.961,115.3-21.4,144.231c-14.158,16.142-44.266,21.362-62.6,21.393-18.943.031-47.031-5.658-57.451-15.849-36.451-35.66-23.379-149.774-23.379-149.774Z" transform="translate(-616.899 -1475.594)" fill="#5aacd8"/>
          <path id="Caminho_109" data-name="Caminho 109" d="M619.18,1475.594h23.443c1.631,35.392,6.7,70.48,22.448,102.691,11.767,24.082,28.906,47.445,55.973,54.9a84.143,84.143,0,0,0,14.386,2.6,123.883,123.883,0,0,1-35.42,5.424c-18.943.031-47.031-5.658-57.451-15.849C606.108,1589.708,619.18,1475.594,619.18,1475.594Z" transform="translate(-616.899 -1475.594)" fill="#4482a3"/>
          <g id="Grupo_4046" data-name="Grupo 4046" transform="translate(0 0)">
            <g id="Grupo_4045" data-name="Grupo 4045" clip-path="url(#clip-path)">
              <g id="Grupo_4044" data-name="Grupo 4044" transform="translate(62.627 -191.785)">
                <path id="Caminho_110" data-name="Caminho 110" d="M888.894,950.579c-4.382,0-100.56-.236-100.551,7.8l9.409,200.673a55.3,55.3,0,0,0,55.234,52.705h5.457a6.688,6.688,0,0,1,6.689,6.688v14.7a15.647,15.647,0,0,1-8.921,14.231,23.988,23.988,0,0,0-13.886,21.761v26.68a3.8,3.8,0,0,0,3.8,3.8l95.374.236c0-3.694-2.553-34.962,4.086-42.495s14.71-7,18.509-16.777-.237-29.659-3.188-41.3c-4.339-17.126-59.411,2.82-62.305-45.453C893.1,1062.056,888.894,950.579,888.894,950.579Z" transform="translate(-788.343 -950.578)" fill="#4482a3"/>
              </g>
            </g>
          </g>
        </g>
      </g>
    </g>
    <g id="Grupo_4060" data-name="Grupo 4060" transform="translate(623.851 130.581)">
      <g id="Grupo_4058" data-name="Grupo 4058" transform="translate(0 0)">
        <g id="Grupo_4050" data-name="Grupo 4050" transform="translate(0 32.774)">
          <path id="Caminho_112" data-name="Caminho 112" d="M1067.216,220.3h-203.9a55.294,55.294,0,0,0-55.234,57.884L817.1,470.651a5.7,5.7,0,0,0,5.692,5.432h284.937a5.7,5.7,0,0,0,5.693-5.432l9.024-192.465A55.294,55.294,0,0,0,1067.216,220.3Z" transform="translate(-808.019 -220.302)" fill="#aa6333"/>
          <path id="Caminho_113" data-name="Caminho 113" d="M1122.188,935.933H843a7.679,7.679,0,0,0-7.67,8.039l9.409,200.673a55.3,55.3,0,0,0,55.234,52.7h5.457a6.689,6.689,0,0,1,6.689,6.689v14.7a15.647,15.647,0,0,1-8.921,14.231,23.988,23.988,0,0,0-13.885,21.761v26.68a3.8,3.8,0,0,0,3.8,3.8h178.971a3.8,3.8,0,0,0,3.8-3.8v-26.68a23.988,23.988,0,0,0-13.885-21.761,15.647,15.647,0,0,1-8.921-14.231v-14.7a6.689,6.689,0,0,1,6.688-6.689h5.457a55.3,55.3,0,0,0,55.234-52.7l9.409-200.673A7.679,7.679,0,0,0,1122.188,935.933Z" transform="translate(-825.347 -674.517)" fill="#aa6333"/>
        </g>
        <g id="Grupo_4051" data-name="Grupo 4051" transform="translate(90.549 32.774)">
          <path id="Caminho_114" data-name="Caminho 114" d="M1456.352,220.3h-35.237s26.755,4.531,28.233,36.051v16.47c.142,3.04,0,70.477,0,115.418v87.841h47.522a5.7,5.7,0,0,0,5.693-5.432l9.024-192.465A55.294,55.294,0,0,0,1456.352,220.3Z" transform="translate(-1287.703 -220.302)" fill="#c97943"/>
          <path id="Caminho_115" data-name="Caminho 115" d="M1262.191,935.933h-44.648l-10.887,219.584c1.383,29.5-50.9,42.426-21.369,42.426l-21.473.96c3.694,0-1.078,34.868-1.078,34.868,0,6.062-112.169-1.567-106.639.917,12.04,5.407,11.69,9.212,129.219,9.537a12.275,12.275,0,0,1,12.187,11.1L1199,1285.2h8.337a3.8,3.8,0,0,0,3.8-3.8v-26.68c0-9.639-11.165-17.949-19.365-21.761a15.646,15.646,0,0,1-8.921-14.231v-14.7a6.688,6.688,0,0,1,6.688-6.689h15.686a55.3,55.3,0,0,0,55.234-52.7l9.409-200.673A7.679,7.679,0,0,0,1262.191,935.933Z" transform="translate(-1055.898 -674.517)" fill="#c97943"/>
        </g>
        <g id="Grupo_4052" data-name="Grupo 4052" transform="translate(0 32.774)">
          <path id="Caminho_116" data-name="Caminho 116" d="M863.314,220.3a55.294,55.294,0,0,0-55.234,57.884L817.1,470.651a5.7,5.7,0,0,0,5.692,5.432H831s-5.3-179.295-2.3-207.6C832.6,231.712,863.314,220.3,863.314,220.3Z" transform="translate(-808.019 -220.302)" fill="#7f4924"/>
          <path id="Caminho_117" data-name="Caminho 117" d="M848.343,935.933c-4.382,0-13.009,0-13,8.039l9.409,200.673a55.3,55.3,0,0,0,55.234,52.7h5.457a6.689,6.689,0,0,1,6.689,6.689v14.7a15.647,15.647,0,0,1-8.921,14.231,23.988,23.988,0,0,0-13.886,21.761v26.68a3.8,3.8,0,0,0,3.8,3.8h7.822c0-3.694-2.553-34.962,4.086-42.495s14.71-7,18.509-16.777-.237-29.659-3.188-41.305c-4.339-17.126-59.411,2.82-62.305-45.453C852.545,1047.41,848.343,935.933,848.343,935.933Z" transform="translate(-825.362 -674.517)" fill="#7f4924"/>
        </g>
        <g id="Grupo_4053" data-name="Grupo 4053" transform="translate(27.873 529.264)">
          <path id="Caminho_118" data-name="Caminho 118" d="M884.461,1580.26a55.269,55.269,0,0,0,46.612,25.535h5.457a6.689,6.689,0,0,1,6.689,6.689s143.948-6.689,147.642-6.689h5.457a55.271,55.271,0,0,0,46.713-25.695c.9-1.418-9.18,2.723-18.8,4.12-17.552,2.548-48.123,4.12-110.656,3.873C911.953,1587.692,881.983,1576.386,884.461,1580.26Z" transform="translate(-884.321 -1579.453)" fill="#683c1e"/>
        </g>
        <rect id="Retângulo_61" data-name="Retângulo 61" width="281.618" height="10.657" transform="translate(16.874 285.908)" fill="#633211"/>
        <rect id="Retângulo_62" data-name="Retângulo 62" width="190.306" height="10.657" transform="translate(61.888 22.117)" fill="#633211"/>
        <path id="Caminho_119" data-name="Caminho 119" d="M1165.038,185.692H967.4a14.739,14.739,0,0,1,14.74-14.74H1150.3a14.739,14.739,0,0,1,14.74,14.74Z" transform="translate(-909.176 -156.205)" fill="#e05f1e"/>
        <path id="Caminho_120" data-name="Caminho 120" d="M1007.746,170.952h168.163a14.669,14.669,0,0,1,8.012,2.366C1187.969,175.944,1095.737,175.961,1007.746,170.952Z" transform="translate(-934.787 -156.205)" fill="#ef874d"/>
        <path id="Retângulo_63" data-name="Retângulo 63" d="M14.739,0h.142A14.739,14.739,0,0,1,29.621,14.739v0a0,0,0,0,1,0,0H0a0,0,0,0,1,0,0v0A14.739,14.739,0,0,1,14.739,0Z" transform="translate(142.23 0.008)" fill="#e05f1e"/>
        <path id="Caminho_121" data-name="Caminho 121" d="M1241.156,145.329s-3.895-13.129-21.131-12.908c-1.66.021,3.107-1.979,6.249-1.831h.142a14.739,14.739,0,0,1,14.74,14.739Z" transform="translate(-1069.305 -130.581)" fill="#ef874d"/>
        <path id="Retângulo_64" data-name="Retângulo 64" d="M4.116,0H296.587A4.116,4.116,0,0,1,300.7,4.116v0a8.566,8.566,0,0,1-8.566,8.566H8.566A8.566,8.566,0,0,1,0,4.116v0A4.116,4.116,0,0,1,4.116,0Z" transform="translate(6.77 275.873)" fill="#e05f1e"/>
        <path id="Caminho_122" data-name="Caminho 122" d="M836.189,885.789h293.662a3.52,3.52,0,0,1,3.52,3.52S869.649,890.13,836.189,885.789Z" transform="translate(-825.899 -609.916)" fill="#ef874d"/>
        <path id="Caminho_123" data-name="Caminho 123" d="M1123.856,479.517H813.006l.541,12.258h309.633Z" transform="translate(-811.184 -352.053)" fill="#633211"/>
        <path id="Caminho_124" data-name="Caminho 124" d="M1122.84,498.027H813.319l-.863-11.169a1.176,1.176,0,0,1,1.187-1.254h308.873a1.176,1.176,0,0,1,1.187,1.254Z" transform="translate(-810.833 -355.916)" fill="#e05f1e"/>
        <path id="Caminho_125" data-name="Caminho 125" d="M829.427,485.6H1133.29c1.944,0-.211,1.853-7.178,1.791C1126.112,487.4,862.887,489.944,829.427,485.6Z" transform="translate(-821.607 -355.916)" fill="#ef874d"/>
        <path id="Retângulo_65" data-name="Retângulo 65" d="M8.566,0h283.57A8.566,8.566,0,0,1,300.7,8.566v0a4.116,4.116,0,0,1-4.116,4.116H4.116A4.116,4.116,0,0,1,0,8.566v0A8.566,8.566,0,0,1,8.566,0Z" transform="translate(6.77 294.19)" fill="#e05f1e"/>
        <path id="Caminho_126" data-name="Caminho 126" d="M1132.587,935.933H846.538c-4.047,0,292.419,3.178,290.9,1.836A7.3,7.3,0,0,0,1132.587,935.933Z" transform="translate(-832.441 -641.743)" fill="#ef874d"/>
        <path id="Caminho_127" data-name="Caminho 127" d="M1066.306,1751.272H1197.3s-9.958,4.979-60.135,4.979S1066.306,1751.272,1066.306,1751.272Z" transform="translate(-971.955 -1159.243)" fill="#7f4924"/>
        <path id="Caminho_128" data-name="Caminho 128" d="M1134.115,1293.222H851.008l1.222,12.258H1133.5Z" transform="translate(-835.304 -868.516)" fill="#633211"/>
        <path id="Caminho_129" data-name="Caminho 129" d="M1133.468,1311.084H851.8l-.785-11.169a1.134,1.134,0,0,1,1.08-1.254h281.082a1.134,1.134,0,0,1,1.08,1.254Z" transform="translate(-835.305 -871.968)" fill="#e05f1e"/>
        <path id="Caminho_130" data-name="Caminho 130" d="M867.255,1298.309h275.774c1.765,0-.192,1.853-6.514,1.791C1136.514,1300.1,897.622,1302.649,867.255,1298.309Z" transform="translate(-845.616 -871.745)" fill="#ef874d"/>
        <g id="Grupo_4057" data-name="Grupo 4057" transform="translate(124.235 443.616)">
          <g id="Grupo_4054" data-name="Grupo 4054" transform="translate(0 3.659)">
            <circle id="Elipse_9" data-name="Elipse 9" cx="25.797" cy="25.797" r="25.797" transform="translate(0.103 38.725) rotate(-45)" fill="#aa431a"/>
            <circle id="Elipse_10" data-name="Elipse 10" cx="25.797" cy="25.797" r="25.797" transform="translate(0.103 38.725) rotate(-45)" fill="#633211"/>
            <path id="Caminho_131" data-name="Caminho 131" d="M1210.495,1404.806a29.2,29.2,0,0,1-16.765,26.058c-2.393,1.092,2.149,5.838-13.768,5.249-10.521-.389-6.689-3.608-11.126-4.573-13.588-2.955-19.481-14.186-20.606-25.982-1.2-12.545,7.034-24,20.428-27.441,2.958-.76,7.668-8.908,10.915-8.908C1197.52,1369.209,1210.495,1389.421,1210.495,1404.806Z" transform="translate(-1148.114 -1364.021)" fill="#7f4924"/>
            <circle id="Elipse_11" data-name="Elipse 11" cx="25.797" cy="25.797" r="25.797" transform="translate(1.715 36.482) rotate(-45)" fill="#e05f1e"/>
            <circle id="Elipse_12" data-name="Elipse 12" cx="24.081" cy="24.081" r="24.081" transform="translate(14.698 12.402)" fill="#ef874d"/>
          </g>
          <path id="Caminho_132" data-name="Caminho 132" d="M1210.483,1390.515c-2.318,1.836-5.749,4.182-5.439,6.238,0,0-.988,5.351,1.39,21.517a199.988,199.988,0,0,0,4.27,20.1,2.219,2.219,0,0,0,2.2,1.916h.814s-4.928-39.776-4.5-45.01A10.613,10.613,0,0,1,1210.483,1390.515Z" transform="translate(-1184.119 -1373.884)" fill="#633211"/>
          <g id="Grupo_4056" data-name="Grupo 4056" transform="translate(22.897)">
            <path id="Caminho_133" data-name="Caminho 133" d="M1240.67,1364.6h-14.7c-1.606,0-2.843-.887-2.624-1.883l3.079-14c.073-.331.525-.578,1.06-.578h11.665c.535,0,.987.247,1.06.578l3.079,14C1243.513,1363.717,1242.276,1364.6,1240.67,1364.6Z" transform="translate(-1218.748 -1346.989)" fill="#633211"/>
            <path id="Caminho_134" data-name="Caminho 134" d="M1246.508,1363.953H1232.68c-1.511,0-.64-.906-.434-1.9l.182-13.983c.069-.331,1.175-.578,1.678-.578h10.976a.96.96,0,0,1,1,.578l2.9,14C1249.183,1363.065,1248.02,1363.953,1246.508,1363.953Z" transform="translate(-1224.133 -1346.575)" fill="#aa431a"/>
            <path id="Caminho_135" data-name="Caminho 135" d="M1229.468,1516.2l.835,6.073a1.72,1.72,0,0,0,1.7,1.486h18.749a1.72,1.72,0,0,0,1.7-1.486l.923-6.708Z" transform="translate(-1222.647 -1453.251)" fill="#e05f1e"/>
            <path id="Caminho_136" data-name="Caminho 136" d="M1229.468,1517.2l.835,6.073a1.72,1.72,0,0,0,1.7,1.486h.221l-.565-7.617Z" transform="translate(-1222.647 -1454.253)" fill="#aa431a"/>
            <path id="Caminho_137" data-name="Caminho 137" d="M1229.134,1516.169l.333,2.276a.688.688,0,0,0,.693.569h21.892a.688.688,0,0,0,.693-.569l.426-2.913Z" transform="translate(-1222.435 -1453.233)" fill="#633211"/>
            <path id="Caminho_138" data-name="Caminho 138" d="M1243.385,1387.352h-27.613a4.976,4.976,0,0,0-4.93,5.655l5.785,42.058a2.011,2.011,0,0,0,1.992,1.737h21.92a2.011,2.011,0,0,0,1.992-1.737l5.785-42.058A4.977,4.977,0,0,0,1243.385,1387.352Z" transform="translate(-1210.795 -1371.877)" fill="#e05f1e"/>
            <path id="Caminho_139" data-name="Caminho 139" d="M1283.677,1387.352h-3.23s3.965,2.734,3.965,5.587c-1.519,27.667-4.242,43.863-4.242,43.863h1.665c1,0,.851-.742.987-1.737l5.785-42.058A4.976,4.976,0,0,0,1283.677,1387.352Z" transform="translate(-1254.828 -1371.877)" fill="#ef874d"/>
            <path id="Caminho_140" data-name="Caminho 140" d="M1215.772,1387.352a4.976,4.976,0,0,0-4.93,5.655l5.785,42.058a2.011,2.011,0,0,0,1.992,1.737h.738s-5.121-40.386-4.735-45.131A9.619,9.619,0,0,1,1215.772,1387.352Z" transform="translate(-1210.795 -1371.877)" fill="#aa431a"/>
            <path id="Caminho_141" data-name="Caminho 141" d="M1248.7,1414.385h-36.189l-.1-.71H1248.8Z" transform="translate(-1211.823 -1388.584)" fill="#633211"/>
            <g id="Grupo_4055" data-name="Grupo 4055" transform="translate(7.092)">
              <path id="Caminho_142" data-name="Caminho 142" d="M1264.045,1365.337h-19.992c-2.116,0-4.549-.786-5.163-1.669l-8.63-12.414c-.2-.294.218-3.275.922-3.275l15.137,2.762h.181a3.671,3.671,0,0,1,1.921.513l18.548,10.189S1266.97,1365.172,1264.045,1365.337Z" transform="translate(-1230.209 -1346.887)" fill="#633211"/>
              <path id="Caminho_143" data-name="Caminho 143" d="M1264.8,1362.758h-19.6c-2.142,0-4.606-.792-5.227-1.682l-8.739-12.51c-.207-.3.221-3.3.934-3.3l15.328,2.784h.183a67.562,67.562,0,0,1,8.309,1.93l11.409,8.578a.847.847,0,0,1,.333.777C1267.608,1360.364,1267.086,1362.631,1264.8,1362.758Z" transform="translate(-1230.825 -1345.165)" fill="#e05f1e"/>
              <path id="Caminho_144" data-name="Caminho 144" d="M1266.532,1359.7h-19.446c-2.125,0-4.569-.793-5.186-1.682l-8.668-12.51c-.205-.3.169-.516.876-.516h15.436a3.678,3.678,0,0,1,1.929.516l16.817,12.51C1269.486,1358.9,1268.657,1359.7,1266.532,1359.7Z" transform="translate(-1232.092 -1344.988)" fill="#ef874d"/>
            </g>
          </g>
        </g>
      </g>
      <g id="Grupo_4059" data-name="Grupo 4059" transform="translate(141.799 213.84)">
        <circle id="Elipse_13" data-name="Elipse 13" cx="22.854" cy="22.854" r="22.854" fill="#b27908"/>
        <circle id="Elipse_14" data-name="Elipse 14" cx="20.539" cy="20.539" r="20.539" transform="translate(2.316 2.316)" fill="#fecd51"/>
        <path id="Caminho_145" data-name="Caminho 145" d="M1223.074,763.389a20.538,20.538,0,1,1,0-41.077Z" transform="translate(-1200.22 -719.996)" fill="#efac14"/>
        <circle id="Elipse_15" data-name="Elipse 15" cx="15.828" cy="15.828" r="15.828" transform="translate(7.027 7.027)" fill="#cee8ef"/>
      </g>
    </g>
    <g id="Grupo_4079" data-name="Grupo 4079" transform="translate(517.856 773.672)">
      <rect id="Retângulo_66" data-name="Retângulo 66" width="522.448" height="28.599" transform="translate(0 36.556)" fill="#a4b4ba"/>
      <rect id="Retângulo_67" data-name="Retângulo 67" width="522.448" height="19.826" transform="translate(0 36.556)" fill="#7b8a8e"/>
      <g id="Grupo_4078" data-name="Grupo 4078" transform="translate(0)">
        <g id="Grupo_4077" data-name="Grupo 4077">
          <rect id="Retângulo_68" data-name="Retângulo 68" width="522.448" height="50.184" fill="#d5dde0"/>
          <g id="Grupo_4076" data-name="Grupo 4076" clip-path="url(#clip-path-2)">
            <g id="Grupo_4075" data-name="Grupo 4075" transform="translate(-103.835 -61.452)">
              <g id="Grupo_4067" data-name="Grupo 4067" transform="translate(0 83.438)">
                <g id="Grupo_4063" data-name="Grupo 4063" transform="translate(95.108)">
                  <g id="Grupo_4061" data-name="Grupo 4061" transform="translate(0 5.373)">
                    <path id="Caminho_146" data-name="Caminho 146" d="M519.125,2100.354l1.869-3.381,1.968,2.095-.624,1.714Z" transform="translate(-509.934 -2049.111)" fill="#c7cfd1"/>
                    <path id="Caminho_147" data-name="Caminho 147" d="M712.571,2071.74l2.245-1.8,1.592.517,1.916,1.714Z" transform="translate(-632.715 -2031.952)" fill="#c7cfd1"/>
                    <path id="Caminho_148" data-name="Caminho 148" d="M1183.137,2178.715l2.259-3.931,5.136,3.713-4.182.645Z" transform="translate(-931.386 -2098.498)" fill="#c7cfd1"/>
                    <path id="Caminho_149" data-name="Caminho 149" d="M1048.031,2016.409l2.112-2.862,3.356,2.291-2.255,1Z" transform="translate(-845.634 -1996.16)" fill="#c7cfd1"/>
                    <path id="Caminho_150" data-name="Caminho 150" d="M895.56,2119.167l-2.793,3.05,6.856-.308-1.523-2.437Z" transform="translate(-747.087 -2063.198)" fill="#c7cfd1"/>
                    <path id="Caminho_151" data-name="Caminho 151" d="M1088.458,2170.107l-2.793,3.05,6.856-.3-1.523-2.44Z" transform="translate(-869.52 -2095.53)" fill="#c7cfd1"/>
                    <path id="Caminho_152" data-name="Caminho 152" d="M627.055,2083.858l-2.793,3.05,6.856-.3-1.524-2.44Z" transform="translate(-576.665 -2040.787)" fill="#c7cfd1"/>
                    <path id="Caminho_153" data-name="Caminho 153" d="M493.965,2209.889l.813-.033-.813-1.305Z" transform="translate(-493.965 -2119.93)" fill="#c7cfd1"/>
                    <path id="Caminho_154" data-name="Caminho 154" d="M501.1,1994.474l-2.793,3.05,6.857-.3-1.524-2.44Z" transform="translate(-496.719 -1984.055)" fill="#c7cfd1"/>
                    <path id="Caminho_155" data-name="Caminho 155" d="M781.075,2160.693l-2.793,3.052,6.855-.3L783.615,2161Z" transform="translate(-674.422 -2089.555)" fill="#c7cfd1"/>
                    <path id="Caminho_156" data-name="Caminho 156" d="M966.441,2048.607l1.964-4.288,1.873,3-.624,1.717Z" transform="translate(-793.848 -2015.691)" fill="#c7cfd1"/>
                    <path id="Caminho_157" data-name="Caminho 157" d="M1190.291,2084.961l2.408-3.218,8.811,3.648Z" transform="translate(-935.927 -2039.445)" fill="#c7cfd1"/>
                    <path id="Caminho_158" data-name="Caminho 158" d="M818.3,2065.079l1.963-2.93,1.874,1.643-.624,1.714Z" transform="translate(-699.819 -2027.008)" fill="#c7cfd1"/>
                    <path id="Caminho_159" data-name="Caminho 159" d="M603.582,2205.813l2.057-3.161,1.78,1.872-.625,1.717Z" transform="translate(-563.539 -2116.186)" fill="#c7cfd1"/>
                    <path id="Caminho_160" data-name="Caminho 160" d="M1315.928,2129.561l1.964-4.288,1.873,3-.624,1.717Z" transform="translate(-1015.67 -2067.073)" fill="#c7cfd1"/>
                    <path id="Caminho_161" data-name="Caminho 161" d="M1253.512,2160.693l-2.794,3.052,6.856-.3-1.523-2.443Z" transform="translate(-974.28 -2089.555)" fill="#c7cfd1"/>
                    <path id="Caminho_162" data-name="Caminho 162" d="M1290.734,2065.079l1.964-2.93,1.873,1.643-.624,1.714Z" transform="translate(-999.679 -2027.008)" fill="#c7cfd1"/>
                    <path id="Caminho_163" data-name="Caminho 163" d="M1437.87,2083.08l2.407-3.221,8.811,3.648Z" transform="translate(-1093.067 -2038.249)" fill="#c7cfd1"/>
                    <path id="Caminho_164" data-name="Caminho 164" d="M1012.167,2218.44l-2.793,3.052,6.855-.3-1.523-2.443Z" transform="translate(-821.098 -2126.207)" fill="#c7cfd1"/>
                    <path id="Caminho_165" data-name="Caminho 165" d="M766.968,2016.347l-2.793,3.052,6.856-.3-1.524-2.443Z" transform="translate(-665.469 -1997.937)" fill="#c7cfd1"/>
                    <path id="Caminho_166" data-name="Caminho 166" d="M1401.589,2170.717l-2.793,3.052,6.856-.3-1.524-2.443Z" transform="translate(-1068.266 -2095.917)" fill="#c7cfd1"/>
                    <path id="Caminho_167" data-name="Caminho 167" d="M1365.167,2080.138l1.962-2.93,1.874,1.643-.625,1.717Z" transform="translate(-1046.922 -2036.566)" fill="#c7cfd1"/>
                    <path id="Caminho_168" data-name="Caminho 168" d="M577.369,2021.381l-2.793,3.053,6.856-.3-1.524-2.44Z" transform="translate(-545.129 -2001.133)" fill="#c7cfd1"/>
                    <path id="Caminho_169" data-name="Caminho 169" d="M1107,2077.863l-2.793,3.053,6.856-.308-1.524-2.441Z" transform="translate(-881.29 -2036.982)" fill="#c7cfd1"/>
                    <path id="Caminho_170" data-name="Caminho 170" d="M922.1,2168.23l-2.794,3.05,6.856-.308-1.523-2.438Z" transform="translate(-763.932 -2094.339)" fill="#c7cfd1"/>
                    <path id="Caminho_171" data-name="Caminho 171" d="M1562.988,2081.631l-2.794,3.05,6.856-.3-1.523-2.44Z" transform="translate(-1170.706 -2039.373)" fill="#c7cfd1"/>
                    <path id="Caminho_172" data-name="Caminho 172" d="M1612.007,2071.74l2.245-1.8,1.592.517,1.916,1.714Z" transform="translate(-1203.593 -2031.952)" fill="#c7cfd1"/>
                    <path id="Caminho_173" data-name="Caminho 173" d="M1526.49,2083.858l-2.793,3.05,6.857-.3-1.524-2.44Z" transform="translate(-1147.542 -2040.787)" fill="#c7cfd1"/>
                    <path id="Caminho_174" data-name="Caminho 174" d="M1680.51,2160.693l-2.793,3.052,6.856-.3-1.524-2.443Z" transform="translate(-1245.299 -2089.555)" fill="#c7cfd1"/>
                    <path id="Caminho_175" data-name="Caminho 175" d="M1717.733,2065.079l1.962-2.93,1.874,1.643-.625,1.714Z" transform="translate(-1270.698 -2027.008)" fill="#c7cfd1"/>
                    <path id="Caminho_176" data-name="Caminho 176" d="M1503.02,2205.813l2.057-3.161,1.779,1.872-.624,1.717Z" transform="translate(-1134.418 -2116.186)" fill="#c7cfd1"/>
                    <path id="Caminho_177" data-name="Caminho 177" d="M1666.405,2016.347l-2.793,3.052,6.855-.3-1.523-2.443Z" transform="translate(-1236.346 -1997.937)" fill="#c7cfd1"/>
                    <path id="Caminho_178" data-name="Caminho 178" d="M1589.628,2153.164l-2.793,3.05,6.855-.3-1.523-2.437Z" transform="translate(-1187.616 -2084.776)" fill="#c7cfd1"/>
                    <path id="Caminho_179" data-name="Caminho 179" d="M1752.83,2162.146l2.407-3.219,8.811,3.648Z" transform="translate(-1292.973 -2088.434)" fill="#c7cfd1"/>
                    <path id="Caminho_180" data-name="Caminho 180" d="M1813.8,2115.4l-2.793,3.05,6.856-.3-1.524-2.44Z" transform="translate(-1329.899 -2060.806)" fill="#c7cfd1"/>
                    <path id="Caminho_181" data-name="Caminho 181" d="M1884.679,2044.842l1.964-4.291,1.874,3-.625,1.714Z" transform="translate(-1376.659 -2013.3)" fill="#c7cfd1"/>
                    <path id="Caminho_182" data-name="Caminho 182" d="M1910.437,2154.05l-.813.887.813-.035Z" transform="translate(-1392.492 -2085.338)" fill="#c7cfd1"/>
                    <path id="Caminho_183" data-name="Caminho 183" d="M1840.341,2164.462l-2.792,3.052,6.855-.307-1.523-2.44Z" transform="translate(-1346.745 -2091.946)" fill="#c7cfd1"/>
                    <path id="Caminho_184" data-name="Caminho 184" d="M1468.828,1970.24l1.964-4.291,1.873,3-.624,1.714Z" transform="translate(-1112.716 -1965.95)" fill="#c7cfd1"/>
                    <path id="Caminho_185" data-name="Caminho 185" d="M1336.615,2214.263l1.964-4.29,1.873,3-.624,1.714Z" transform="translate(-1028.8 -2120.832)" fill="#c7cfd1"/>
                    <path id="Caminho_186" data-name="Caminho 186" d="M1154.933,1988.387l1.964-4.287,1.873,3-.624,1.717Z" transform="translate(-913.485 -1977.47)" fill="#c7cfd1"/>
                    <path id="Caminho_187" data-name="Caminho 187" d="M1360.237,1974.418l-2.793,3.052,6.857-.3-1.524-2.443Z" transform="translate(-1042.02 -1971.325)" fill="#c7cfd1"/>
                    <path id="Caminho_188" data-name="Caminho 188" d="M1746.982,2230.543l-2.793,3.05,6.855-.305-1.523-2.437Z" transform="translate(-1287.49 -2133.889)" fill="#c7cfd1"/>
                    <path id="Caminho_189" data-name="Caminho 189" d="M1832.428,1980.465l-2.793,3.053,6.855-.3-1.523-2.441Z" transform="translate(-1341.722 -1975.163)" fill="#c7cfd1"/>
                    <path id="Caminho_190" data-name="Caminho 190" d="M1611.173,2234.579l-2.793,3.05,6.855-.3-1.523-2.44Z" transform="translate(-1201.29 -2136.451)" fill="#c7cfd1"/>
                    <path id="Caminho_191" data-name="Caminho 191" d="M1567.1,1994.585l-2.793,3.052,6.857-.3-1.524-2.443Z" transform="translate(-1173.317 -1984.125)" fill="#c7cfd1"/>
                    <path id="Caminho_192" data-name="Caminho 192" d="M838.581,2224.5l-2.793,3.05,6.856-.3-1.523-2.44Z" transform="translate(-710.922 -2130.05)" fill="#c7cfd1"/>
                    <path id="Caminho_193" data-name="Caminho 193" d="M694.676,2190.215l-2.793,3.05,6.856-.3-1.524-2.441Z" transform="translate(-619.584 -2108.292)" fill="#c7cfd1"/>
                  </g>
                  <g id="Grupo_4062" data-name="Grupo 4062" transform="translate(9.504)">
                    <path id="Caminho_194" data-name="Caminho 194" d="M1850.505,2085.641l-1.868-3.385-1.968,2.1.625,1.714Z" transform="translate(-1362.037 -2034.397)" fill="#e0ebf1"/>
                    <path id="Caminho_195" data-name="Caminho 195" d="M1653.73,2057.039l-2.245-1.8-1.592.514-1.916,1.717Z" transform="translate(-1235.927 -2017.249)" fill="#e0ebf1"/>
                    <path id="Caminho_196" data-name="Caminho 196" d="M1180.311,2164.006l-2.26-3.931-5.136,3.714,4.183.648Z" transform="translate(-934.402 -2083.789)" fill="#e0ebf1"/>
                    <path id="Caminho_197" data-name="Caminho 197" d="M1318.765,2001.7l-2.111-2.865-3.356,2.288,2.256,1Z" transform="translate(-1023.504 -1981.452)" fill="#e0ebf1"/>
                    <path id="Caminho_198" data-name="Caminho 198" d="M1468.823,2104.45l2.793,3.052-6.856-.3,1.524-2.443Z" transform="translate(-1119.638 -2048.484)" fill="#e0ebf1"/>
                    <path id="Caminho_199" data-name="Caminho 199" d="M1275.926,2155.4l2.792,3.05-6.855-.3,1.523-2.44Z" transform="translate(-997.205 -2080.821)" fill="#e0ebf1"/>
                    <path id="Caminho_200" data-name="Caminho 200" d="M1737.329,2069.15l2.793,3.052-6.857-.3,1.524-2.443Z" transform="translate(-1290.06 -2026.079)" fill="#e0ebf1"/>
                    <path id="Caminho_201" data-name="Caminho 201" d="M1884.17,2189.9l2.793,3.05-6.856-.3,1.523-2.44Z" transform="translate(-1383.261 -2102.716)" fill="#e0ebf1"/>
                    <path id="Caminho_202" data-name="Caminho 202" d="M1863.286,1979.766l2.792,3.052-6.855-.3,1.523-2.443Z" transform="translate(-1370.006 -1969.346)" fill="#e0ebf1"/>
                    <path id="Caminho_203" data-name="Caminho 203" d="M1583.31,2145.992l2.793,3.05-6.857-.308,1.524-2.437Z" transform="translate(-1192.303 -2074.851)" fill="#e0ebf1"/>
                    <path id="Caminho_204" data-name="Caminho 204" d="M1403.19,2033.9l-1.964-4.288-1.874,3,.625,1.717Z" transform="translate(-1078.123 -2000.983)" fill="#e0ebf1"/>
                    <path id="Caminho_205" data-name="Caminho 205" d="M1166.513,2070.255l-2.408-3.221-8.811,3.648Z" transform="translate(-923.218 -2024.736)" fill="#e0ebf1"/>
                    <path id="Caminho_206" data-name="Caminho 206" d="M1551.334,2050.365l-1.962-2.933-1.874,1.649.625,1.714Z" transform="translate(-1172.152 -2012.294)" fill="#e0ebf1"/>
                    <path id="Caminho_207" data-name="Caminho 207" d="M1766.048,2191.107l-2.057-3.156-1.78,1.872.625,1.714Z" transform="translate(-1308.431 -2101.482)" fill="#e0ebf1"/>
                    <path id="Caminho_208" data-name="Caminho 208" d="M1053.7,2114.845l-1.963-4.288-1.874,3,.624,1.714Z" transform="translate(-856.301 -2052.36)" fill="#e0ebf1"/>
                    <path id="Caminho_209" data-name="Caminho 209" d="M1110.872,2145.992l2.793,3.05-6.856-.308,1.524-2.437Z" transform="translate(-892.444 -2074.851)" fill="#e0ebf1"/>
                    <path id="Caminho_210" data-name="Caminho 210" d="M1078.9,2050.365l-1.963-2.933-1.873,1.649.625,1.714Z" transform="translate(-872.293 -2012.294)" fill="#e0ebf1"/>
                    <path id="Caminho_211" data-name="Caminho 211" d="M918.933,2068.373l-2.407-3.216-8.811,3.646Z" transform="translate(-766.078 -2023.544)" fill="#e0ebf1"/>
                    <path id="Caminho_212" data-name="Caminho 212" d="M1352.217,2203.74l2.793,3.05-6.857-.3,1.524-2.44Z" transform="translate(-1045.627 -2111.504)" fill="#e0ebf1"/>
                    <path id="Caminho_213" data-name="Caminho 213" d="M1597.415,2001.646l2.793,3.05-6.856-.307,1.524-2.438Z" transform="translate(-1201.255 -1983.233)" fill="#e0ebf1"/>
                    <path id="Caminho_214" data-name="Caminho 214" d="M962.8,2156.009l2.794,3.05-6.856-.3,1.524-2.44Z" transform="translate(-798.459 -2081.208)" fill="#e0ebf1"/>
                    <path id="Caminho_215" data-name="Caminho 215" d="M1004.465,2065.428l-1.963-2.93-1.874,1.646.624,1.714Z" transform="translate(-825.051 -2021.857)" fill="#e0ebf1"/>
                    <path id="Caminho_216" data-name="Caminho 216" d="M1787.016,2006.68l2.793,3.053-6.855-.308,1.523-2.44Z" transform="translate(-1321.597 -1986.429)" fill="#e0ebf1"/>
                    <path id="Caminho_217" data-name="Caminho 217" d="M1257.383,2063.161l2.793,3.047-6.856-.3,1.523-2.437Z" transform="translate(-985.436 -2022.278)" fill="#e0ebf1"/>
                    <path id="Caminho_218" data-name="Caminho 218" d="M1442.285,2153.514l2.792,3.052-6.855-.3,1.523-2.441Z" transform="translate(-1102.793 -2079.625)" fill="#e0ebf1"/>
                    <path id="Caminho_219" data-name="Caminho 219" d="M801.4,2066.923l2.793,3.05-6.855-.3,1.523-2.44Z" transform="translate(-696.019 -2024.665)" fill="#e0ebf1"/>
                    <path id="Caminho_220" data-name="Caminho 220" d="M754.3,2057.039l-2.245-1.8-1.592.514-1.915,1.717Z" transform="translate(-665.051 -2017.249)" fill="#e0ebf1"/>
                    <path id="Caminho_221" data-name="Caminho 221" d="M837.893,2069.15l2.793,3.052-6.856-.3,1.524-2.443Z" transform="translate(-719.183 -2026.079)" fill="#e0ebf1"/>
                    <path id="Caminho_222" data-name="Caminho 222" d="M683.875,2145.992l2.793,3.05-6.856-.308,1.524-2.437Z" transform="translate(-621.426 -2074.851)" fill="#e0ebf1"/>
                    <path id="Caminho_223" data-name="Caminho 223" d="M651.9,2050.365l-1.964-2.933-1.873,1.649.624,1.714Z" transform="translate(-601.275 -2012.294)" fill="#e0ebf1"/>
                    <path id="Caminho_224" data-name="Caminho 224" d="M866.612,2191.107l-2.057-3.156-1.78,1.872.625,1.714Z" transform="translate(-737.554 -2101.482)" fill="#e0ebf1"/>
                    <path id="Caminho_225" data-name="Caminho 225" d="M697.979,2001.646l2.793,3.05-6.856-.307,1.524-2.438Z" transform="translate(-630.379 -1983.233)" fill="#e0ebf1"/>
                    <path id="Caminho_226" data-name="Caminho 226" d="M774.758,2138.455l2.793,3.052-6.856-.3,1.524-2.443Z" transform="translate(-679.111 -2070.067)" fill="#e0ebf1"/>
                    <path id="Caminho_227" data-name="Caminho 227" d="M603.974,2147.438l-2.408-3.219-8.811,3.648Z" transform="translate(-566.171 -2073.726)" fill="#e0ebf1"/>
                    <path id="Caminho_228" data-name="Caminho 228" d="M550.584,2100.689l2.793,3.05-6.856-.3,1.524-2.44Z" transform="translate(-536.826 -2046.097)" fill="#e0ebf1"/>
                    <path id="Caminho_229" data-name="Caminho 229" d="M524.044,2149.753l2.793,3.05-6.857-.3,1.524-2.44Z" transform="translate(-519.981 -2077.237)" fill="#e0ebf1"/>
                    <path id="Caminho_230" data-name="Caminho 230" d="M900.8,1955.529l-1.963-4.288-1.874,3,.625,1.717Z" transform="translate(-759.255 -1951.241)" fill="#e0ebf1"/>
                    <path id="Caminho_231" data-name="Caminho 231" d="M1033.015,2199.552l-1.963-4.287-1.874,3,.625,1.714Z" transform="translate(-843.171 -2106.124)" fill="#e0ebf1"/>
                    <path id="Caminho_232" data-name="Caminho 232" d="M1214.694,1973.679l-1.963-4.288-1.874,3,.625,1.714Z" transform="translate(-958.484 -1962.761)" fill="#e0ebf1"/>
                    <path id="Caminho_233" data-name="Caminho 233" d="M1004.147,1959.717l2.793,3.047-6.856-.3,1.524-2.437Z" transform="translate(-824.705 -1956.621)" fill="#e0ebf1"/>
                    <path id="Caminho_234" data-name="Caminho 234" d="M617.4,2215.833l2.793,3.053-6.855-.3,1.523-2.443Z" transform="translate(-579.237 -2119.18)" fill="#e0ebf1"/>
                    <path id="Caminho_235" data-name="Caminho 235" d="M531.958,1965.764l2.793,3.05-6.855-.3,1.523-2.44Z" transform="translate(-525.005 -1960.459)" fill="#e0ebf1"/>
                    <path id="Caminho_236" data-name="Caminho 236" d="M753.213,2219.87l2.793,3.05-6.856-.3,1.523-2.44Z" transform="translate(-665.436 -2121.742)" fill="#e0ebf1"/>
                    <path id="Caminho_237" data-name="Caminho 237" d="M797.283,1979.885l2.793,3.047-6.856-.3,1.524-2.437Z" transform="translate(-693.408 -1969.421)" fill="#e0ebf1"/>
                    <path id="Caminho_238" data-name="Caminho 238" d="M1525.8,2209.787l2.793,3.052-6.856-.308,1.524-2.44Z" transform="translate(-1155.803 -2115.342)" fill="#e0ebf1"/>
                    <path id="Caminho_239" data-name="Caminho 239" d="M1669.709,2175.5l2.793,3.052-6.857-.3,1.524-2.443Z" transform="translate(-1247.141 -2093.579)" fill="#e0ebf1"/>
                  </g>
                </g>
                <g id="Grupo_4066" data-name="Grupo 4066" transform="translate(0 3.013)">
                  <g id="Grupo_4064" data-name="Grupo 4064" transform="translate(10.452 5.191)">
                    <path id="Caminho_240" data-name="Caminho 240" d="M518.591,2075.815l4.171-1.748,2.957.5,3.56,1.651Z" transform="translate(-424.939 -2037.404)" fill="#a4b4ba"/>
                    <path id="Caminho_241" data-name="Caminho 241" d="M1141.827,2022.4l3.924-2.764,6.235,2.208-4.191.978Z" transform="translate(-820.51 -2002.853)" fill="#a4b4ba"/>
                    <path id="Caminho_242" data-name="Caminho 242" d="M858.56,2121.593l-5.189,2.952,12.736-.3-2.829-2.356Z" transform="translate(-637.426 -2067.569)" fill="#a4b4ba"/>
                    <path id="Caminho_243" data-name="Caminho 243" d="M1216.936,2170.765l-5.19,2.946,12.739-.292-2.831-2.356Z" transform="translate(-864.889 -2098.779)" fill="#a4b4ba"/>
                    <path id="Caminho_244" data-name="Caminho 244" d="M359.715,2087.518l-5.189,2.945,12.737-.3-2.83-2.356Z" transform="translate(-320.806 -2045.942)" fill="#a4b4ba"/>
                    <path id="Caminho_245" data-name="Caminho 245" d="M645.862,2161.693l-5.19,2.945,12.736-.3-2.828-2.356Z" transform="translate(-502.424 -2093.021)" fill="#a4b4ba"/>
                    <path id="Caminho_246" data-name="Caminho 246" d="M990.244,2053.474l3.648-4.142,3.481,2.9-1.16,1.657Z" transform="translate(-724.3 -2021.705)" fill="#a4b4ba"/>
                    <path id="Caminho_247" data-name="Caminho 247" d="M1406.127,2088.586l4.472-3.107,16.371,3.515Z" transform="translate(-988.263 -2044.647)" fill="#a4b4ba"/>
                    <path id="Caminho_248" data-name="Caminho 248" d="M715.012,2069.377l3.647-2.823,3.481,1.58-1.16,1.67Z" transform="translate(-549.608 -2032.636)" fill="#a4b4ba"/>
                    <path id="Caminho_249" data-name="Caminho 249" d="M316.106,2205.261l3.822-3.042,3.306,1.8-1.161,1.657Z" transform="translate(-296.421 -2118.743)" fill="#a4b4ba"/>
                    <path id="Caminho_250" data-name="Caminho 250" d="M1639.541,2131.63l3.648-4.136,3.48,2.893-1.158,1.657Z" transform="translate(-1136.412 -2071.315)" fill="#a4b4ba"/>
                    <path id="Caminho_251" data-name="Caminho 251" d="M1523.582,2161.693l-5.191,2.945,12.738-.3-2.83-2.356Z" transform="translate(-1059.517 -2093.021)" fill="#a4b4ba"/>
                    <path id="Caminho_252" data-name="Caminho 252" d="M1592.736,2069.377l3.647-2.823,3.481,1.58-1.161,1.67Z" transform="translate(-1106.705 -2032.636)" fill="#a4b4ba"/>
                    <path id="Caminho_253" data-name="Caminho 253" d="M1866.093,2086.762l4.474-3.107,16.369,3.521Z" transform="translate(-1280.206 -2043.49)" fill="#a4b4ba"/>
                    <path id="Caminho_254" data-name="Caminho 254" d="M1075.2,2217.44l-5.189,2.945,12.736-.3-2.83-2.356Z" transform="translate(-774.927 -2128.404)" fill="#a4b4ba"/>
                    <path id="Caminho_255" data-name="Caminho 255" d="M619.654,2022.344l-5.19,2.945,12.739-.3-2.832-2.356Z" transform="translate(-485.79 -2004.575)" fill="#a4b4ba"/>
                    <path id="Caminho_256" data-name="Caminho 256" d="M1798.686,2171.368l-5.188,2.946,12.737-.3-2.831-2.356Z" transform="translate(-1234.129 -2099.161)" fill="#a4b4ba"/>
                    <path id="Caminho_257" data-name="Caminho 257" d="M1731.018,2083.914l3.645-2.829,3.483,1.592-1.161,1.657Z" transform="translate(-1194.473 -2041.859)" fill="#a4b4ba"/>
                    <path id="Caminho_258" data-name="Caminho 258" d="M267.406,2027.2l-5.189,2.946,12.738-.292-2.831-2.362Z" transform="translate(-262.216 -2007.656)" fill="#a4b4ba"/>
                    <path id="Caminho_259" data-name="Caminho 259" d="M1251.387,2081.722l-5.189,2.952,12.739-.3-2.833-2.356Z" transform="translate(-886.755 -2042.263)" fill="#a4b4ba"/>
                    <path id="Caminho_260" data-name="Caminho 260" d="M907.868,2168.958l-5.189,2.946,12.737-.3-2.831-2.356Z" transform="translate(-668.721 -2097.632)" fill="#a4b4ba"/>
                    <path id="Caminho_261" data-name="Caminho 261" d="M2094.579,2091.5l-1.227.7,1.227-.026Z" transform="translate(-1424.449 -2048.472)" fill="#a4b4ba"/>
                    <path id="Caminho_262" data-name="Caminho 262" d="M2030.737,2087.518l-5.188,2.945,12.737-.3-2.831-2.356Z" transform="translate(-1381.413 -2045.942)" fill="#a4b4ba"/>
                    <path id="Caminho_263" data-name="Caminho 263" d="M1987.13,2205.261l3.821-3.042,3.307,1.8-1.159,1.657Z" transform="translate(-1357.029 -2118.743)" fill="#a4b4ba"/>
                    <path id="Caminho_264" data-name="Caminho 264" d="M1923.607,1977.831l3.648-4.129,3.48,2.887-1.159,1.664Z" transform="translate(-1316.711 -1973.702)" fill="#a4b4ba"/>
                    <path id="Caminho_265" data-name="Caminho 265" d="M1677.971,2213.415l3.65-4.143,3.48,2.893-1.159,1.664Z" transform="translate(-1160.804 -2123.219)" fill="#a4b4ba"/>
                    <path id="Caminho_266" data-name="Caminho 266" d="M1340.437,1995.351l3.648-4.143,3.48,2.9-1.158,1.645Z" transform="translate(-946.569 -1984.813)" fill="#a4b4ba"/>
                    <path id="Caminho_267" data-name="Caminho 267" d="M1721.861,1981.853l-5.188,2.951,12.737-.3-2.83-2.357Z" transform="translate(-1185.368 -1978.875)" fill="#a4b4ba"/>
                    <path id="Caminho_268" data-name="Caminho 268" d="M752.7,2223.271l-5.189,2.952,12.737-.3-2.83-2.356Z" transform="translate(-570.236 -2132.105)" fill="#a4b4ba"/>
                    <path id="Caminho_269" data-name="Caminho 269" d="M485.345,2190.188l-5.19,2.945,12.738-.3-2.831-2.357Z" transform="translate(-400.543 -2111.107)" fill="#a4b4ba"/>
                  </g>
                  <g id="Grupo_4065" data-name="Grupo 4065">
                    <path id="Caminho_270" data-name="Caminho 270" d="M1387.585,2164.89l-4.2-3.8-9.541,3.586,7.772.621Z" transform="translate(-957.323 -2087.447)" fill="#a4b4ba"/>
                    <path id="Caminho_271" data-name="Caminho 271" d="M1644.811,2008.2l-3.921-2.764-6.238,2.207,4.192.971Z" transform="translate(-1122.858 -1988.654)" fill="#a4b4ba"/>
                    <path id="Caminho_272" data-name="Caminho 272" d="M1923.6,2107.382l5.188,2.952-12.737-.3,2.831-2.356Z" transform="translate(-1301.463 -2053.358)" fill="#a4b4ba"/>
                    <path id="Caminho_273" data-name="Caminho 273" d="M1565.223,2156.572l5.188,2.952-12.737-.3,2.832-2.356Z" transform="translate(-1073.999 -2084.579)" fill="#a4b4ba"/>
                    <path id="Caminho_274" data-name="Caminho 274" d="M1801.66,2039.273l-3.646-4.137-3.481,2.907,1.161,1.644Z" transform="translate(-1224.334 -2007.503)" fill="#a4b4ba"/>
                    <path id="Caminho_275" data-name="Caminho 275" d="M1361.951,2074.375l-4.474-3.107-16.369,3.522Z" transform="translate(-936.544 -2030.436)" fill="#a4b4ba"/>
                    <path id="Caminho_276" data-name="Caminho 276" d="M2076.892,2055.19l-3.646-2.828-3.481,1.585,1.161,1.657Z" transform="translate(-1399.026 -2018.436)" fill="#a4b4ba"/>
                    <path id="Caminho_277" data-name="Caminho 277" d="M1152.362,2117.442l-3.647-4.143-3.481,2.894,1.16,1.65Z" transform="translate(-812.221 -2057.114)" fill="#a4b4ba"/>
                    <path id="Caminho_278" data-name="Caminho 278" d="M1258.577,2147.5l5.19,2.939-12.737-.3,2.83-2.344Z" transform="translate(-879.37 -2078.821)" fill="#a4b4ba"/>
                    <path id="Caminho_279" data-name="Caminho 279" d="M1199.171,2055.19l-3.648-2.828-3.48,1.585,1.159,1.657Z" transform="translate(-841.931 -2018.436)" fill="#a4b4ba"/>
                    <path id="Caminho_280" data-name="Caminho 280" d="M901.983,2072.557l-4.473-3.113-16.37,3.527Z" transform="translate(-644.6 -2029.278)" fill="#a4b4ba"/>
                    <path id="Caminho_281" data-name="Caminho 281" d="M1706.964,2203.247l5.19,2.945-12.737-.291,2.83-2.363Z" transform="translate(-1163.964 -2114.204)" fill="#a4b4ba"/>
                    <path id="Caminho_282" data-name="Caminho 282" d="M983.474,2157.174l5.19,2.946-12.737-.3,2.83-2.355Z" transform="translate(-704.761 -2084.961)" fill="#a4b4ba"/>
                    <path id="Caminho_283" data-name="Caminho 283" d="M1060.888,2069.731l-3.646-2.822-3.481,1.579,1.16,1.657Z" transform="translate(-754.162 -2027.669)" fill="#a4b4ba"/>
                    <path id="Caminho_284" data-name="Caminho 284" d="M1530.771,2067.511l5.19,2.951-12.739-.3,2.831-2.356Z" transform="translate(-1052.132 -2028.052)" fill="#a4b4ba"/>
                    <path id="Caminho_285" data-name="Caminho 285" d="M1874.293,2154.765l5.188,2.952-12.737-.3,2.831-2.356Z" transform="translate(-1270.168 -2083.432)" fill="#a4b4ba"/>
                    <path id="Caminho_286" data-name="Caminho 286" d="M683.618,2071.162l5.189,2.952-12.737-.3,2.83-2.356Z" transform="translate(-514.44 -2030.369)" fill="#a4b4ba"/>
                    <path id="Caminho_287" data-name="Caminho 287" d="M596.11,2061.627l-4.171-1.735-2.957.492-3.559,1.657Z" transform="translate(-456.906 -2023.216)" fill="#a4b4ba"/>
                    <path id="Caminho_288" data-name="Caminho 288" d="M751.423,2073.289l5.19,2.951-12.737-.292,2.83-2.362Z" transform="translate(-557.477 -2031.719)" fill="#a4b4ba"/>
                    <path id="Caminho_289" data-name="Caminho 289" d="M465.278,2147.5l5.189,2.939-12.738-.3,2.831-2.344Z" transform="translate(-375.858 -2078.821)" fill="#a4b4ba"/>
                    <path id="Caminho_290" data-name="Caminho 290" d="M405.873,2055.19l-3.647-2.828-3.48,1.585,1.16,1.657Z" transform="translate(-338.42 -2018.436)" fill="#a4b4ba"/>
                    <path id="Caminho_291" data-name="Caminho 291" d="M804.778,2191.056l-3.822-3.049-3.305,1.8,1.16,1.663Z" transform="translate(-591.608 -2104.531)" fill="#a4b4ba"/>
                    <path id="Caminho_292" data-name="Caminho 292" d="M491.483,2008.149l5.189,2.939-12.737-.292,2.831-2.35Z" transform="translate(-392.491 -1990.374)" fill="#a4b4ba"/>
                    <path id="Caminho_293" data-name="Caminho 293" d="M634.126,2140.216l5.19,2.946-12.737-.292,2.83-2.35Z" transform="translate(-483.028 -2074.198)" fill="#a4b4ba"/>
                    <path id="Caminho_294" data-name="Caminho 294" d="M316.835,2148.883l-4.474-3.12-16.37,3.534Z" transform="translate(-273.202 -2077.719)" fill="#a4b4ba"/>
                    <path id="Caminho_295" data-name="Caminho 295" d="M233.6,2105.361l4.15,2.357-4.15-.091Z" transform="translate(-233.605 -2052.075)" fill="#a4b4ba"/>
                    <path id="Caminho_296" data-name="Caminho 296" d="M868.3,1963.633l-3.646-4.143-3.481,2.893,1.16,1.657Z" transform="translate(-631.924 -1959.49)" fill="#a4b4ba"/>
                    <path id="Caminho_297" data-name="Caminho 297" d="M1113.931,2199.214l-3.647-4.136-3.481,2.893,1.16,1.657Z" transform="translate(-787.829 -2109.02)" fill="#a4b4ba"/>
                    <path id="Caminho_298" data-name="Caminho 298" d="M1451.467,1981.139,1447.82,1977l-3.481,2.907,1.159,1.65Z" transform="translate(-1002.065 -1970.602)" fill="#a4b4ba"/>
                    <path id="Caminho_299" data-name="Caminho 299" d="M1060.3,1967.659l5.189,2.945-12.737-.3,2.831-2.35Z" transform="translate(-753.521 -1964.675)" fill="#a4b4ba"/>
                    <path id="Caminho_300" data-name="Caminho 300" d="M341.782,2214.942l5.189,2.939-12.737-.292,2.83-2.363Z" transform="translate(-297.475 -2121.627)" fill="#a4b4ba"/>
                    <path id="Caminho_301" data-name="Caminho 301" d="M594.1,2218.823l5.189,2.945-12.737-.3,2.83-2.356Z" transform="translate(-457.621 -2124.091)" fill="#a4b4ba"/>
                    <path id="Caminho_302" data-name="Caminho 302" d="M675.976,1987.133l5.189,2.939-12.737-.292,2.83-2.362Z" transform="translate(-509.59 -1977.035)" fill="#a4b4ba"/>
                    <path id="Caminho_303" data-name="Caminho 303" d="M2029.461,2209.094l5.19,2.946-12.737-.3,2.83-2.356Z" transform="translate(-1368.655 -2117.915)" fill="#a4b4ba"/>
                  </g>
                </g>
              </g>
              <g id="Grupo_4074" data-name="Grupo 4074" transform="translate(98.95)">
                <g id="Grupo_4070" data-name="Grupo 4070" transform="translate(54.042)">
                  <g id="Grupo_4068" data-name="Grupo 4068" transform="translate(0 5.373)">
                    <path id="Caminho_304" data-name="Caminho 304" d="M677.585,1871.942l1.869-3.382,1.968,2.095-.624,1.714Z" transform="translate(-668.394 -1820.698)" fill="#ced5d8"/>
                    <path id="Caminho_305" data-name="Caminho 305" d="M871.031,1843.327l2.245-1.8,1.592.517,1.916,1.714Z" transform="translate(-791.175 -1803.539)" fill="#ced5d8"/>
                    <path id="Caminho_306" data-name="Caminho 306" d="M1341.6,1950.3l2.259-3.931,5.136,3.713-4.182.645Z" transform="translate(-1089.847 -1870.085)" fill="#ced5d8"/>
                    <path id="Caminho_307" data-name="Caminho 307" d="M1206.49,1788l2.112-2.862,3.356,2.291-2.255,1Z" transform="translate(-1004.093 -1767.748)" fill="#ced5d8"/>
                    <path id="Caminho_308" data-name="Caminho 308" d="M1054.02,1890.754l-2.793,3.05,6.856-.308-1.523-2.437Z" transform="translate(-905.547 -1834.785)" fill="#ced5d8"/>
                    <path id="Caminho_309" data-name="Caminho 309" d="M1246.918,1941.694l-2.793,3.05,6.857-.3-1.524-2.44Z" transform="translate(-1027.98 -1867.117)" fill="#ced5d8"/>
                    <path id="Caminho_310" data-name="Caminho 310" d="M785.515,1855.445l-2.793,3.05,6.856-.3-1.524-2.44Z" transform="translate(-735.125 -1812.374)" fill="#ced5d8"/>
                    <path id="Caminho_311" data-name="Caminho 311" d="M652.425,1981.476l.813-.033-.813-1.306Z" transform="translate(-652.425 -1891.517)" fill="#ced5d8"/>
                    <path id="Caminho_312" data-name="Caminho 312" d="M659.558,1766.062l-2.793,3.049,6.856-.3-1.523-2.44Z" transform="translate(-655.179 -1755.642)" fill="#ced5d8"/>
                    <path id="Caminho_313" data-name="Caminho 313" d="M939.535,1932.28l-2.793,3.052,6.855-.3-1.522-2.443Z" transform="translate(-832.882 -1861.142)" fill="#ced5d8"/>
                    <path id="Caminho_314" data-name="Caminho 314" d="M1124.9,1820.194l1.964-4.288,1.873,3-.624,1.717Z" transform="translate(-952.308 -1787.279)" fill="#ced5d8"/>
                    <path id="Caminho_315" data-name="Caminho 315" d="M1348.751,1856.548l2.407-3.218,8.811,3.648Z" transform="translate(-1094.387 -1811.031)" fill="#ced5d8"/>
                    <path id="Caminho_316" data-name="Caminho 316" d="M976.755,1836.666l1.963-2.93,1.874,1.643-.624,1.714Z" transform="translate(-858.279 -1798.595)" fill="#ced5d8"/>
                    <path id="Caminho_317" data-name="Caminho 317" d="M762.042,1977.4l2.057-3.161,1.78,1.872-.625,1.716Z" transform="translate(-721.999 -1887.773)" fill="#ced5d8"/>
                    <path id="Caminho_318" data-name="Caminho 318" d="M1474.388,1901.147l1.964-4.288,1.873,3-.624,1.717Z" transform="translate(-1174.13 -1838.66)" fill="#ced5d8"/>
                    <path id="Caminho_319" data-name="Caminho 319" d="M1411.972,1932.28l-2.794,3.052,6.856-.3-1.523-2.443Z" transform="translate(-1132.74 -1861.142)" fill="#ced5d8"/>
                    <path id="Caminho_320" data-name="Caminho 320" d="M1449.194,1836.666l1.964-2.93,1.872,1.643-.624,1.714Z" transform="translate(-1158.139 -1798.595)" fill="#ced5d8"/>
                    <path id="Caminho_321" data-name="Caminho 321" d="M1596.33,1854.667l2.408-3.221,8.811,3.648Z" transform="translate(-1251.527 -1809.836)" fill="#ced5d8"/>
                    <path id="Caminho_322" data-name="Caminho 322" d="M1170.627,1990.027l-2.793,3.052,6.855-.3-1.523-2.443Z" transform="translate(-979.558 -1897.794)" fill="#ced5d8"/>
                    <path id="Caminho_323" data-name="Caminho 323" d="M925.428,1787.934l-2.793,3.052,6.857-.3-1.524-2.443Z" transform="translate(-823.929 -1769.525)" fill="#ced5d8"/>
                    <path id="Caminho_324" data-name="Caminho 324" d="M1560.049,1942.3l-2.793,3.052,6.857-.3-1.524-2.443Z" transform="translate(-1226.726 -1867.504)" fill="#ced5d8"/>
                    <path id="Caminho_325" data-name="Caminho 325" d="M1523.627,1851.724l1.963-2.93,1.874,1.643-.625,1.717Z" transform="translate(-1205.382 -1808.153)" fill="#ced5d8"/>
                    <path id="Caminho_326" data-name="Caminho 326" d="M735.829,1792.969l-2.793,3.052,6.856-.3-1.524-2.44Z" transform="translate(-703.589 -1772.72)" fill="#ced5d8"/>
                    <path id="Caminho_327" data-name="Caminho 327" d="M1265.462,1849.45l-2.793,3.052,6.856-.307-1.524-2.44Z" transform="translate(-1039.75 -1808.569)" fill="#ced5d8"/>
                    <path id="Caminho_328" data-name="Caminho 328" d="M1080.56,1939.817l-2.793,3.05,6.856-.307-1.523-2.438Z" transform="translate(-922.392 -1865.926)" fill="#ced5d8"/>
                    <path id="Caminho_329" data-name="Caminho 329" d="M1721.448,1853.219l-2.794,3.05,6.857-.3-1.523-2.44Z" transform="translate(-1329.166 -1810.961)" fill="#ced5d8"/>
                    <path id="Caminho_330" data-name="Caminho 330" d="M1770.467,1843.327l2.245-1.8,1.592.517,1.916,1.714Z" transform="translate(-1362.053 -1803.539)" fill="#ced5d8"/>
                    <path id="Caminho_331" data-name="Caminho 331" d="M1684.95,1855.445l-2.793,3.05,6.856-.3-1.524-2.44Z" transform="translate(-1306.002 -1812.374)" fill="#ced5d8"/>
                    <path id="Caminho_332" data-name="Caminho 332" d="M1838.97,1932.28l-2.793,3.052,6.857-.3-1.524-2.443Z" transform="translate(-1403.759 -1861.142)" fill="#ced5d8"/>
                    <path id="Caminho_333" data-name="Caminho 333" d="M1876.193,1836.666l1.963-2.93,1.874,1.643-.625,1.714Z" transform="translate(-1429.157 -1798.595)" fill="#ced5d8"/>
                    <path id="Caminho_334" data-name="Caminho 334" d="M1661.48,1977.4l2.057-3.161,1.779,1.872-.624,1.716Z" transform="translate(-1292.878 -1887.773)" fill="#ced5d8"/>
                    <path id="Caminho_335" data-name="Caminho 335" d="M1824.865,1787.934l-2.793,3.052,6.855-.3-1.523-2.443Z" transform="translate(-1394.806 -1769.525)" fill="#ced5d8"/>
                    <path id="Caminho_336" data-name="Caminho 336" d="M1748.087,1924.751l-2.793,3.05,6.855-.3-1.523-2.437Z" transform="translate(-1346.075 -1856.363)" fill="#ced5d8"/>
                    <path id="Caminho_337" data-name="Caminho 337" d="M1911.29,1933.733l2.408-3.219,8.811,3.648Z" transform="translate(-1451.434 -1860.021)" fill="#ced5d8"/>
                    <path id="Caminho_338" data-name="Caminho 338" d="M1972.26,1886.985l-2.793,3.05,6.856-.3-1.524-2.44Z" transform="translate(-1488.359 -1832.392)" fill="#ced5d8"/>
                    <path id="Caminho_339" data-name="Caminho 339" d="M2043.139,1816.429l1.964-4.29,1.874,3-.625,1.714Z" transform="translate(-1535.119 -1784.887)" fill="#ced5d8"/>
                    <path id="Caminho_340" data-name="Caminho 340" d="M2068.9,1925.637l-.812.886.813-.035Z" transform="translate(-1550.952 -1856.926)" fill="#ced5d8"/>
                    <path id="Caminho_341" data-name="Caminho 341" d="M1998.8,1936.049l-2.792,3.052,6.855-.307-1.523-2.44Z" transform="translate(-1505.205 -1863.534)" fill="#ced5d8"/>
                    <path id="Caminho_342" data-name="Caminho 342" d="M1627.288,1741.828l1.963-4.291,1.873,3-.624,1.714Z" transform="translate(-1271.176 -1737.537)" fill="#ced5d8"/>
                    <path id="Caminho_343" data-name="Caminho 343" d="M1495.075,1985.85l1.964-4.29,1.873,3-.624,1.714Z" transform="translate(-1187.26 -1892.42)" fill="#ced5d8"/>
                    <path id="Caminho_344" data-name="Caminho 344" d="M1313.393,1759.974l1.964-4.288,1.873,3-.624,1.717Z" transform="translate(-1071.945 -1749.057)" fill="#ced5d8"/>
                    <path id="Caminho_345" data-name="Caminho 345" d="M1518.7,1746.005l-2.793,3.052,6.856-.3-1.524-2.443Z" transform="translate(-1200.48 -1742.912)" fill="#ced5d8"/>
                    <path id="Caminho_346" data-name="Caminho 346" d="M1905.442,2002.13l-2.793,3.05,6.856-.3-1.523-2.437Z" transform="translate(-1445.949 -1905.476)" fill="#ced5d8"/>
                    <path id="Caminho_347" data-name="Caminho 347" d="M1990.888,1752.053l-2.793,3.052,6.855-.3-1.523-2.44Z" transform="translate(-1500.182 -1746.75)" fill="#ced5d8"/>
                    <path id="Caminho_348" data-name="Caminho 348" d="M1769.632,2006.167l-2.793,3.05,6.855-.3-1.523-2.441Z" transform="translate(-1359.75 -1908.038)" fill="#ced5d8"/>
                    <path id="Caminho_349" data-name="Caminho 349" d="M1725.561,1766.172l-2.793,3.052,6.856-.3-1.524-2.443Z" transform="translate(-1331.778 -1755.712)" fill="#ced5d8"/>
                    <path id="Caminho_350" data-name="Caminho 350" d="M997.041,1996.083l-2.793,3.049,6.856-.3-1.524-2.44Z" transform="translate(-869.382 -1901.638)" fill="#ced5d8"/>
                    <path id="Caminho_351" data-name="Caminho 351" d="M853.135,1961.8l-2.793,3.05,6.856-.3-1.524-2.44Z" transform="translate(-778.044 -1879.88)" fill="#ced5d8"/>
                  </g>
                  <g id="Grupo_4069" data-name="Grupo 4069" transform="translate(9.504)">
                    <path id="Caminho_352" data-name="Caminho 352" d="M2008.965,1857.228l-1.868-3.385-1.968,2.1.625,1.714Z" transform="translate(-1520.497 -1805.985)" fill="#e0ebf1"/>
                    <path id="Caminho_353" data-name="Caminho 353" d="M1812.19,1828.626l-2.245-1.8-1.592.514-1.917,1.717Z" transform="translate(-1394.387 -1788.836)" fill="#e0ebf1"/>
                    <path id="Caminho_354" data-name="Caminho 354" d="M1338.771,1935.593l-2.26-3.931-5.136,3.713,4.183.648Z" transform="translate(-1092.862 -1855.376)" fill="#e0ebf1"/>
                    <path id="Caminho_355" data-name="Caminho 355" d="M1477.225,1773.29l-2.111-2.865-3.356,2.288,2.256,1Z" transform="translate(-1181.964 -1753.038)" fill="#e0ebf1"/>
                    <path id="Caminho_356" data-name="Caminho 356" d="M1627.284,1876.038l2.793,3.052-6.856-.3,1.524-2.443Z" transform="translate(-1278.098 -1820.071)" fill="#e0ebf1"/>
                    <path id="Caminho_357" data-name="Caminho 357" d="M1434.386,1926.985l2.792,3.05-6.855-.3,1.523-2.44Z" transform="translate(-1155.665 -1852.408)" fill="#e0ebf1"/>
                    <path id="Caminho_358" data-name="Caminho 358" d="M1895.79,1840.736l2.793,3.053-6.856-.3,1.524-2.443Z" transform="translate(-1448.52 -1797.665)" fill="#e0ebf1"/>
                    <path id="Caminho_359" data-name="Caminho 359" d="M2042.63,1961.482l2.793,3.05-6.857-.3,1.523-2.44Z" transform="translate(-1541.72 -1874.303)" fill="#e0ebf1"/>
                    <path id="Caminho_360" data-name="Caminho 360" d="M2021.746,1751.353l2.792,3.052-6.855-.3,1.523-2.443Z" transform="translate(-1528.466 -1740.933)" fill="#e0ebf1"/>
                    <path id="Caminho_361" data-name="Caminho 361" d="M1741.77,1917.579l2.793,3.05-6.857-.307,1.524-2.437Z" transform="translate(-1350.763 -1846.438)" fill="#e0ebf1"/>
                    <path id="Caminho_362" data-name="Caminho 362" d="M1561.65,1805.485l-1.964-4.288-1.874,3,.625,1.717Z" transform="translate(-1236.583 -1772.57)" fill="#e0ebf1"/>
                    <path id="Caminho_363" data-name="Caminho 363" d="M1324.973,1841.843l-2.407-3.221-8.812,3.648Z" transform="translate(-1081.677 -1796.323)" fill="#e0ebf1"/>
                    <path id="Caminho_364" data-name="Caminho 364" d="M1709.794,1821.953l-1.963-2.933-1.874,1.649.625,1.714Z" transform="translate(-1330.612 -1783.881)" fill="#e0ebf1"/>
                    <path id="Caminho_365" data-name="Caminho 365" d="M1924.508,1962.694l-2.057-3.156-1.779,1.872.625,1.714Z" transform="translate(-1466.892 -1873.069)" fill="#e0ebf1"/>
                    <path id="Caminho_366" data-name="Caminho 366" d="M1212.161,1886.432l-1.963-4.287-1.874,3,.624,1.714Z" transform="translate(-1014.761 -1823.947)" fill="#e0ebf1"/>
                    <path id="Caminho_367" data-name="Caminho 367" d="M1269.332,1917.579l2.793,3.05-6.856-.307,1.524-2.437Z" transform="translate(-1050.904 -1846.438)" fill="#e0ebf1"/>
                    <path id="Caminho_368" data-name="Caminho 368" d="M1237.357,1821.953l-1.963-2.933-1.873,1.649.625,1.714Z" transform="translate(-1030.753 -1783.881)" fill="#e0ebf1"/>
                    <path id="Caminho_369" data-name="Caminho 369" d="M1077.393,1839.96l-2.408-3.216-8.811,3.646Z" transform="translate(-924.538 -1795.132)" fill="#e0ebf1"/>
                    <path id="Caminho_370" data-name="Caminho 370" d="M1510.677,1975.326l2.793,3.05-6.856-.3,1.524-2.441Z" transform="translate(-1204.087 -1883.09)" fill="#e0ebf1"/>
                    <path id="Caminho_371" data-name="Caminho 371" d="M1755.875,1773.233l2.793,3.05-6.857-.307,1.524-2.437Z" transform="translate(-1359.715 -1754.821)" fill="#e0ebf1"/>
                    <path id="Caminho_372" data-name="Caminho 372" d="M1121.255,1927.6l2.794,3.05-6.856-.3,1.524-2.44Z" transform="translate(-956.919 -1852.795)" fill="#e0ebf1"/>
                    <path id="Caminho_373" data-name="Caminho 373" d="M1162.925,1837.016l-1.962-2.93-1.874,1.646.625,1.714Z" transform="translate(-983.511 -1793.444)" fill="#e0ebf1"/>
                    <path id="Caminho_374" data-name="Caminho 374" d="M1945.476,1778.268l2.793,3.052-6.855-.307,1.523-2.44Z" transform="translate(-1480.057 -1758.016)" fill="#e0ebf1"/>
                    <path id="Caminho_375" data-name="Caminho 375" d="M1415.843,1834.749l2.793,3.047-6.855-.3,1.523-2.437Z" transform="translate(-1143.896 -1793.865)" fill="#e0ebf1"/>
                    <path id="Caminho_376" data-name="Caminho 376" d="M1600.744,1925.1l2.792,3.052-6.855-.3,1.523-2.44Z" transform="translate(-1261.253 -1851.212)" fill="#e0ebf1"/>
                    <path id="Caminho_377" data-name="Caminho 377" d="M959.857,1838.51l2.793,3.05-6.855-.3,1.523-2.44Z" transform="translate(-854.479 -1796.252)" fill="#e0ebf1"/>
                    <path id="Caminho_378" data-name="Caminho 378" d="M912.756,1828.626l-2.245-1.8-1.592.514L907,1829.056Z" transform="translate(-823.511 -1788.836)" fill="#e0ebf1"/>
                    <path id="Caminho_379" data-name="Caminho 379" d="M996.353,1840.736l2.793,3.053-6.856-.3,1.524-2.443Z" transform="translate(-877.643 -1797.665)" fill="#e0ebf1"/>
                    <path id="Caminho_380" data-name="Caminho 380" d="M842.334,1917.579l2.793,3.05-6.856-.307,1.524-2.437Z" transform="translate(-779.886 -1846.438)" fill="#e0ebf1"/>
                    <path id="Caminho_381" data-name="Caminho 381" d="M810.359,1821.953l-1.964-2.933-1.873,1.649.625,1.714Z" transform="translate(-759.735 -1783.881)" fill="#e0ebf1"/>
                    <path id="Caminho_382" data-name="Caminho 382" d="M1025.072,1962.694l-2.057-3.156-1.78,1.872.625,1.714Z" transform="translate(-896.014 -1873.069)" fill="#e0ebf1"/>
                    <path id="Caminho_383" data-name="Caminho 383" d="M856.439,1773.233l2.793,3.05-6.856-.307,1.524-2.437Z" transform="translate(-788.839 -1754.821)" fill="#e0ebf1"/>
                    <path id="Caminho_384" data-name="Caminho 384" d="M933.218,1910.043l2.793,3.052-6.856-.3,1.524-2.443Z" transform="translate(-837.57 -1841.655)" fill="#e0ebf1"/>
                    <path id="Caminho_385" data-name="Caminho 385" d="M762.434,1919.025l-2.408-3.219-8.811,3.648Z" transform="translate(-724.631 -1845.313)" fill="#e0ebf1"/>
                    <path id="Caminho_386" data-name="Caminho 386" d="M709.044,1872.276l2.793,3.05-6.856-.3,1.523-2.44Z" transform="translate(-695.286 -1817.684)" fill="#e0ebf1"/>
                    <path id="Caminho_387" data-name="Caminho 387" d="M682.5,1921.34l2.793,3.05-6.856-.3,1.523-2.44Z" transform="translate(-678.441 -1848.825)" fill="#e0ebf1"/>
                    <path id="Caminho_388" data-name="Caminho 388" d="M1059.262,1727.116l-1.963-4.288-1.874,3,.625,1.717Z" transform="translate(-917.715 -1722.829)" fill="#e0ebf1"/>
                    <path id="Caminho_389" data-name="Caminho 389" d="M1191.474,1971.139l-1.962-4.287-1.874,3,.625,1.714Z" transform="translate(-1001.631 -1877.711)" fill="#e0ebf1"/>
                    <path id="Caminho_390" data-name="Caminho 390" d="M1373.154,1745.266l-1.962-4.288-1.874,3,.625,1.714Z" transform="translate(-1116.944 -1734.348)" fill="#e0ebf1"/>
                    <path id="Caminho_391" data-name="Caminho 391" d="M1162.607,1731.3l2.793,3.047-6.856-.3,1.523-2.437Z" transform="translate(-983.165 -1728.208)" fill="#e0ebf1"/>
                    <path id="Caminho_392" data-name="Caminho 392" d="M775.862,1987.421l2.793,3.052-6.855-.3,1.523-2.443Z" transform="translate(-737.696 -1890.767)" fill="#e0ebf1"/>
                    <path id="Caminho_393" data-name="Caminho 393" d="M690.418,1737.351l2.793,3.05-6.855-.3,1.523-2.44Z" transform="translate(-683.465 -1732.046)" fill="#e0ebf1"/>
                    <path id="Caminho_394" data-name="Caminho 394" d="M911.673,1991.457l2.793,3.05-6.856-.3,1.523-2.441Z" transform="translate(-823.896 -1893.329)" fill="#e0ebf1"/>
                    <path id="Caminho_395" data-name="Caminho 395" d="M955.743,1751.472l2.793,3.047-6.856-.3,1.524-2.438Z" transform="translate(-851.868 -1741.009)" fill="#e0ebf1"/>
                    <path id="Caminho_396" data-name="Caminho 396" d="M1684.264,1981.374l2.793,3.052-6.856-.307,1.524-2.44Z" transform="translate(-1314.263 -1886.929)" fill="#e0ebf1"/>
                    <path id="Caminho_397" data-name="Caminho 397" d="M1828.169,1947.086l2.793,3.053-6.856-.3,1.524-2.443Z" transform="translate(-1405.601 -1865.166)" fill="#e0ebf1"/>
                  </g>
                </g>
                <g id="Grupo_4073" data-name="Grupo 4073" transform="translate(0 18.027)">
                  <g id="Grupo_4071" data-name="Grupo 4071" transform="translate(9.618 4.47)">
                    <path id="Caminho_398" data-name="Caminho 398" d="M766.742,1872.343l3.838-1.5,2.721.435,3.276,1.421Z" transform="translate(-680.558 -1839.269)" fill="#a4b4ba"/>
                    <path id="Caminho_399" data-name="Caminho 399" d="M1340.276,1826.344l3.611-2.38,5.738,1.9-3.857.842Z" transform="translate(-1044.583 -1809.518)" fill="#a4b4ba"/>
                    <path id="Caminho_400" data-name="Caminho 400" d="M1079.6,1911.762l-4.775,2.542,11.721-.256-2.6-2.029Z" transform="translate(-876.1 -1865.243)" fill="#a4b4ba"/>
                    <path id="Caminho_401" data-name="Caminho 401" d="M1409.4,1954.1l-4.776,2.536,11.723-.251-2.606-2.029Z" transform="translate(-1085.422 -1892.117)" fill="#a4b4ba"/>
                    <path id="Caminho_402" data-name="Caminho 402" d="M620.536,1882.421l-4.775,2.536,11.721-.256-2.6-2.029Z" transform="translate(-584.73 -1846.62)" fill="#a4b4ba"/>
                    <path id="Caminho_403" data-name="Caminho 403" d="M883.862,1946.29l-4.776,2.537,11.721-.256-2.6-2.029Z" transform="translate(-751.864 -1887.158)" fill="#a4b4ba"/>
                    <path id="Caminho_404" data-name="Caminho 404" d="M1200.781,1853.106l3.357-3.567,3.2,2.5-1.068,1.427Z" transform="translate(-956.045 -1825.75)" fill="#a4b4ba"/>
                    <path id="Caminho_405" data-name="Caminho 405" d="M1583.5,1883.34l4.115-2.676,15.065,3.027Z" transform="translate(-1198.958 -1845.505)" fill="#a4b4ba"/>
                    <path id="Caminho_406" data-name="Caminho 406" d="M947.5,1866.8l3.356-2.43,3.2,1.36-1.068,1.438Z" transform="translate(-795.285 -1835.163)" fill="#a4b4ba"/>
                    <path id="Caminho_407" data-name="Caminho 407" d="M580.4,1983.806l3.517-2.62,3.042,1.55-1.068,1.427Z" transform="translate(-562.289 -1909.307)" fill="#a4b4ba"/>
                    <path id="Caminho_408" data-name="Caminho 408" d="M1798.3,1920.4l3.357-3.562,3.2,2.491-1.065,1.427Z" transform="translate(-1335.292 -1868.468)" fill="#a4b4ba"/>
                    <path id="Caminho_409" data-name="Caminho 409" d="M1691.586,1946.29l-4.778,2.537,11.723-.256-2.6-2.029Z" transform="translate(-1264.53 -1887.158)" fill="#a4b4ba"/>
                    <path id="Caminho_410" data-name="Caminho 410" d="M1755.225,1866.8l3.356-2.43,3.2,1.36-1.068,1.438Z" transform="translate(-1307.954 -1835.163)" fill="#a4b4ba"/>
                    <path id="Caminho_411" data-name="Caminho 411" d="M2006.782,1881.769l4.117-2.675,15.064,3.032Z" transform="translate(-1467.619 -1844.508)" fill="#a4b4ba"/>
                    <path id="Caminho_412" data-name="Caminho 412" d="M1278.959,1994.294l-4.775,2.536,11.721-.256-2.6-2.029Z" transform="translate(-1002.635 -1917.627)" fill="#a4b4ba"/>
                    <path id="Caminho_413" data-name="Caminho 413" d="M859.744,1826.3l-4.776,2.536,11.723-.256-2.606-2.029Z" transform="translate(-736.556 -1811)" fill="#a4b4ba"/>
                    <path id="Caminho_414" data-name="Caminho 414" d="M1944.751,1954.622l-4.775,2.536,11.721-.256-2.6-2.029Z" transform="translate(-1425.217 -1892.446)" fill="#a4b4ba"/>
                    <path id="Caminho_415" data-name="Caminho 415" d="M1882.479,1879.317l3.354-2.436,3.205,1.371-1.068,1.427Z" transform="translate(-1388.723 -1843.104)" fill="#a4b4ba"/>
                    <path id="Caminho_416" data-name="Caminho 416" d="M535.588,1830.48l-4.775,2.537,11.722-.251-2.6-2.034Z" transform="translate(-530.812 -1813.653)" fill="#a4b4ba"/>
                    <path id="Caminho_417" data-name="Caminho 417" d="M1441.1,1877.43l-4.775,2.542,11.723-.256-2.607-2.029Z" transform="translate(-1105.545 -1843.453)" fill="#a4b4ba"/>
                    <path id="Caminho_418" data-name="Caminho 418" d="M1124.974,1952.547l-4.776,2.536,11.722-.257-2.6-2.028Z" transform="translate(-904.899 -1891.129)" fill="#a4b4ba"/>
                    <path id="Caminho_419" data-name="Caminho 419" d="M2217.047,1885.853l-1.128.6,1.128-.022Z" transform="translate(-1600.359 -1848.799)" fill="#a4b4ba"/>
                    <path id="Caminho_420" data-name="Caminho 420" d="M2158.3,1882.421l-4.775,2.536,11.722-.256-2.606-2.029Z" transform="translate(-1560.755 -1846.62)" fill="#a4b4ba"/>
                    <path id="Caminho_421" data-name="Caminho 421" d="M2118.167,1983.806l3.516-2.62,3.043,1.55-1.067,1.427Z" transform="translate(-1538.316 -1909.307)" fill="#a4b4ba"/>
                    <path id="Caminho_422" data-name="Caminho 422" d="M2059.71,1787.972l3.357-3.556,3.2,2.486-1.067,1.433Z" transform="translate(-1501.212 -1784.416)" fill="#a4b4ba"/>
                    <path id="Caminho_423" data-name="Caminho 423" d="M1833.663,1990.827l3.359-3.567,3.2,2.491-1.067,1.433Z" transform="translate(-1357.739 -1913.162)" fill="#a4b4ba"/>
                    <path id="Caminho_424" data-name="Caminho 424" d="M1523.046,1803.057l3.357-3.567,3.2,2.5-1.065,1.416Z" transform="translate(-1160.589 -1793.984)" fill="#a4b4ba"/>
                    <path id="Caminho_425" data-name="Caminho 425" d="M1874.053,1791.434l-4.775,2.542,11.721-.256-2.6-2.029Z" transform="translate(-1380.344 -1788.871)" fill="#a4b4ba"/>
                    <path id="Caminho_426" data-name="Caminho 426" d="M982.181,1999.314l-4.775,2.542,11.721-.256-2.6-2.029Z" transform="translate(-814.267 -1920.813)" fill="#a4b4ba"/>
                    <path id="Caminho_427" data-name="Caminho 427" d="M736.146,1970.827l-4.776,2.536,11.722-.256-2.6-2.029Z" transform="translate(-658.108 -1902.732)" fill="#a4b4ba"/>
                  </g>
                  <g id="Grupo_4072" data-name="Grupo 4072">
                    <path id="Caminho_428" data-name="Caminho 428" d="M1566.434,1949.044l-3.863-3.272-8.78,3.088,7.152.535Z" transform="translate(-1170.485 -1882.359)" fill="#a4b4ba"/>
                    <path id="Caminho_429" data-name="Caminho 429" d="M1803.147,1814.123l-3.609-2.38-5.74,1.9,3.857.836Z" transform="translate(-1322.819 -1797.291)" fill="#a4b4ba"/>
                    <path id="Caminho_430" data-name="Caminho 430" d="M2059.7,1899.525l4.775,2.542-11.722-.257,2.606-2.029Z" transform="translate(-1487.18 -1853.006)" fill="#a4b4ba"/>
                    <path id="Caminho_431" data-name="Caminho 431" d="M1729.906,1941.881l4.775,2.542-11.721-.256,2.605-2.029Z" transform="translate(-1277.857 -1879.89)" fill="#a4b4ba"/>
                    <path id="Caminho_432" data-name="Caminho 432" d="M1947.488,1840.878l-3.355-3.562-3.2,2.5,1.068,1.416Z" transform="translate(-1416.203 -1813.521)" fill="#a4b4ba"/>
                    <path id="Caminho_433" data-name="Caminho 433" d="M1542.845,1871.1l-4.117-2.676-15.064,3.032Z" transform="translate(-1151.363 -1833.268)" fill="#a4b4ba"/>
                    <path id="Caminho_434" data-name="Caminho 434" d="M2200.771,1854.583l-3.356-2.436-3.2,1.365,1.068,1.427Z" transform="translate(-1576.963 -1822.936)" fill="#a4b4ba"/>
                    <path id="Caminho_435" data-name="Caminho 435" d="M1349.97,1908.187l-3.356-3.567-3.2,2.492,1.068,1.421Z" transform="translate(-1036.955 -1856.24)" fill="#a4b4ba"/>
                    <path id="Caminho_436" data-name="Caminho 436" d="M1447.715,1934.069l4.776,2.531-11.721-.256,2.6-2.018Z" transform="translate(-1098.749 -1874.932)" fill="#a4b4ba"/>
                    <path id="Caminho_437" data-name="Caminho 437" d="M1393.047,1854.583l-3.357-2.436-3.2,1.365,1.067,1.427Z" transform="translate(-1064.296 -1822.936)" fill="#a4b4ba"/>
                    <path id="Caminho_438" data-name="Caminho 438" d="M1119.559,1869.538l-4.116-2.681-15.064,3.038Z" transform="translate(-882.701 -1832.271)" fill="#a4b4ba"/>
                    <path id="Caminho_439" data-name="Caminho 439" d="M1860.343,1982.072l4.776,2.536-11.722-.25,2.6-2.035Z" transform="translate(-1360.646 -1905.399)" fill="#a4b4ba"/>
                    <path id="Caminho_440" data-name="Caminho 440" d="M1194.551,1942.4l4.776,2.536-11.721-.257,2.6-2.029Z" transform="translate(-938.065 -1880.219)" fill="#a4b4ba"/>
                    <path id="Caminho_441" data-name="Caminho 441" d="M1265.791,1867.1l-3.356-2.43-3.2,1.36,1.068,1.427Z" transform="translate(-983.526 -1830.886)" fill="#a4b4ba"/>
                    <path id="Caminho_442" data-name="Caminho 442" d="M1698.2,1865.193l4.776,2.542-11.723-.256,2.606-2.029Z" transform="translate(-1257.733 -1831.215)" fill="#a4b4ba"/>
                    <path id="Caminho_443" data-name="Caminho 443" d="M2014.328,1940.325l4.774,2.542-11.721-.256,2.605-2.029Z" transform="translate(-1458.381 -1878.902)" fill="#a4b4ba"/>
                    <path id="Caminho_444" data-name="Caminho 444" d="M918.607,1868.337l4.775,2.542-11.722-.256,2.6-2.029Z" transform="translate(-762.921 -1833.211)" fill="#a4b4ba"/>
                    <path id="Caminho_445" data-name="Caminho 445" d="M838.078,1860.126l-3.838-1.494-2.721.423-3.275,1.427Z" transform="translate(-709.976 -1827.051)" fill="#a4b4ba"/>
                    <path id="Caminho_446" data-name="Caminho 446" d="M981.006,1870.168l4.776,2.542-11.721-.251,2.6-2.034Z" transform="translate(-802.526 -1834.373)" fill="#a4b4ba"/>
                    <path id="Caminho_447" data-name="Caminho 447" d="M717.68,1934.069l4.776,2.531-11.722-.256,2.606-2.018Z" transform="translate(-635.391 -1874.932)" fill="#a4b4ba"/>
                    <path id="Caminho_448" data-name="Caminho 448" d="M663.012,1854.583l-3.356-2.436-3.2,1.365,1.068,1.427Z" transform="translate(-600.939 -1822.936)" fill="#a4b4ba"/>
                    <path id="Caminho_449" data-name="Caminho 449" d="M1030.105,1971.575l-3.517-2.626-3.042,1.55,1.068,1.433Z" transform="translate(-833.935 -1897.07)" fill="#a4b4ba"/>
                    <path id="Caminho_450" data-name="Caminho 450" d="M741.8,1814.077l4.776,2.531-11.722-.251,2.6-2.023Z" transform="translate(-650.698 -1798.772)" fill="#a4b4ba"/>
                    <path id="Caminho_451" data-name="Caminho 451" d="M873.063,1927.8l4.776,2.536-11.721-.251,2.6-2.023Z" transform="translate(-734.014 -1870.951)" fill="#a4b4ba"/>
                    <path id="Caminho_452" data-name="Caminho 452" d="M581.075,1935.26l-4.117-2.687-15.064,3.043Z" transform="translate(-540.922 -1873.982)" fill="#a4b4ba"/>
                    <path id="Caminho_453" data-name="Caminho 453" d="M504.483,1897.784l3.819,2.029-3.819-.078Z" transform="translate(-504.483 -1851.901)" fill="#a4b4ba"/>
                    <path id="Caminho_454" data-name="Caminho 454" d="M1088.558,1775.746l-3.356-3.567-3.2,2.491,1.068,1.427Z" transform="translate(-871.036 -1772.179)" fill="#a4b4ba"/>
                    <path id="Caminho_455" data-name="Caminho 455" d="M1314.6,1978.6l-3.356-3.562-3.2,2.491,1.067,1.427Z" transform="translate(-1014.508 -1900.935)" fill="#a4b4ba"/>
                    <path id="Caminho_456" data-name="Caminho 456" d="M1625.222,1790.82l-3.356-3.567-3.2,2.5,1.067,1.421Z" transform="translate(-1211.659 -1781.746)" fill="#a4b4ba"/>
                    <path id="Caminho_457" data-name="Caminho 457" d="M1265.248,1779.213l4.775,2.536-11.721-.256,2.6-2.023Z" transform="translate(-982.936 -1776.643)" fill="#a4b4ba"/>
                    <path id="Caminho_458" data-name="Caminho 458" d="M604.033,1992.142l4.775,2.531-11.721-.251,2.6-2.034Z" transform="translate(-563.259 -1911.791)" fill="#a4b4ba"/>
                    <path id="Caminho_459" data-name="Caminho 459" d="M836.226,1995.484,841,1998.02l-11.721-.256,2.6-2.029Z" transform="translate(-710.634 -1913.912)" fill="#a4b4ba"/>
                    <path id="Caminho_460" data-name="Caminho 460" d="M911.575,1795.981l4.776,2.531-11.722-.251,2.6-2.034Z" transform="translate(-758.458 -1787.286)" fill="#a4b4ba"/>
                    <path id="Caminho_461" data-name="Caminho 461" d="M2157.122,1987.107l4.776,2.536-11.721-.256,2.6-2.029Z" transform="translate(-1549.014 -1908.595)" fill="#a4b4ba"/>
                  </g>
                </g>
              </g>
            </g>
          </g>
        </g>
      </g>
      <rect id="Retângulo_70" data-name="Retângulo 70" width="522.448" height="3.723" transform="translate(0)" fill="#e0ebf1"/>
    </g>
  </g>
</svg>
