<?xml version="1.0" encoding="utf-8"?>
<!-- Generator: Adobe Illustrator 23.0.2, SVG Export Plug-In . SVG Version: 6.00 Build 0)  -->
<svg version="1.1" id="Camada_1" xmlns="http://www.w3.org/2000/svg" xmlns:xlink="http://www.w3.org/1999/xlink" x="0px" y="0px"
	 viewBox="0 0 976.82 984.92" style="enable-background:new 0 0 976.82 984.92;" xml:space="preserve">
<g>
	<path d="M976.82,466.48c0,18,0,36,0,54c-0.28,2.11-0.72,4.22-0.81,6.34c-1.28,29.88-5.58,59.29-13.09,88.25
		c-56.34,217.12-240.17,354.61-438.76,368.59c-30.47,2.15-61.38,1.39-91.86-0.97c-37.08-2.87-73.18-12.23-108.18-24.93
		C189.5,908.88,93.12,818.77,35.42,687.73c-19.84-45.05-31.86-92.4-36.96-141.42c-0.76-7.26-1.1-14.55-1.63-21.83c0-21,0-42,0-63
		c0.27-1.79,0.6-3.58,0.8-5.38c1.38-12.57,2.15-25.23,4.2-37.69c17.03-103.7,61.96-193.24,136.13-268.01
		C224.35,63.28,329.22,15.12,450.89,5.23c50.46-4.1,101.08,0.04,150.85,12.11c156.48,37.94,287.18,152.64,343.78,302.87
		c14.07,37.34,24.88,75.55,28.64,115.47C975.14,445.95,975.94,456.22,976.82,466.48z M558.57,361.16c-0.56,0.8-1.11,1.6-1.67,2.4
		c1.73,0.98,3.53,1.86,5.18,2.97c2.21,1.48,4.38,3.05,6.43,4.74c3.27,2.7,5.38,6.03,4.2,10.48c-1.18,4.41-3.98,7.24-8.66,7.87
		c-4.95,0.67-9.88,1.51-14.85,1.84c-5.61,0.37-9.53,2.78-11.3,8.17c-1.5,4.57-2.71,9.24-4.1,13.84c-2.46,8.12,0.1,13.91,7.18,18.73
		c8.5,5.78,9.09,10.53,3.82,19.46c-1.01,1.72-2.3,3.28-3.29,5.01c-4.21,7.32-8.27,14.72-12.57,21.99c-1.42,2.4-2.96,5.05-5.14,6.61
		c-12.27,8.75-18.3,21.77-24.22,34.83c-1.17,2.58-1.45,5.8-1.33,8.69c0.29,6.79,1.29,13.56,1.58,20.35c0.28,6.48-0.17,13,0.09,19.49
		c0.23,5.63,2.33,10.44,6.44,14.69c4.91,5.07,9.03,10.89,13.59,16.31c1.67,1.99,3.43,4,5.48,5.57c4.13,3.17,8.4,6.17,12.77,9.01
		c2.04,1.32,4.44,2.94,6.69,2.96c8.99,0.08,17.98-0.49,26.98-0.68c8.33-0.18,16.26-1.61,23-6.91c2.31-1.82,4.14-1.37,6.67-0.14
		c6.08,2.96,12.23,6.57,18.74,7.68c7.73,1.31,10.57,0.8,10.37,12.58c-0.04,2.48-0.19,5.13-1.1,7.38c-3.15,7.85-0.91,14.8,3.36,21.27
		c3.84,5.83,8.16,11.35,12.39,16.92c3.16,4.16,4.75,8.44,3.91,13.91c-0.56,3.66-0.15,7.75,0.97,11.29
		c1.26,3.98,0.67,7.06-1.62,10.27c-6.61,9.23-7.4,19.52-4.49,30.06c3.76,13.62,7.99,27.11,12.15,40.61
		c3.81,12.35,7.78,24.65,11.72,36.96c1.2,3.73,3.93,5.85,7.75,6.05c3.13,0.17,6.32-0.08,9.44-0.46
		c24.84-3.05,37.4-20.83,48.53-40.42c2.75-4.84,5.38-9.99,9.19-13.9c5.37-5.52,7.61-11.24,4.73-18.45
		c-1.82-4.55-0.58-8.06,2.69-11.27c5.47-5.37,10.74-10.96,16.4-16.11c8.13-7.39,10.72-16.51,9.47-27.09
		c-1.11-9.42-2.49-18.84-2.99-28.29c-0.17-3.32,1.09-7.45,3.15-10.04c7.37-9.23,15.79-17.63,23.04-26.95
		c10.2-13.12,20.08-26.54,29.31-40.36c3.08-4.61,4.27-10.74,5.3-16.37c0.76-4.13-1.46-5.05-5.06-2.84c-1.83,1.12-3.63,2.7-5.63,3.08
		c-7.34,1.4-14.74,2.88-22.17,3.21c-2.06,0.09-4.63-3.49-6.19-5.88c-0.38-0.58,2.09-3.47,3.7-4.73c1.36-1.08,3.34-1.42,5.09-1.96
		c20.86-6.36,39.29-17.36,55.97-31.01c5.66-4.64,9.73-11.7,13.24-18.34c3.04-5.73,1.12-8.64-4.21-12.48
		c-2.63-1.89-4.9-4.5-6.76-7.18c-3.93-5.64-5.44-6.31-12.04-4.15c-3.47,1.13-6.91,2.58-10.47,3.07c-1.59,0.22-3.78-1.23-5.14-2.51
		c-2.46-2.33-4.46-5.14-6.74-7.67c-3.42-3.81-7.06-7.42-10.26-11.4c-1.05-1.3-1.01-3.47-1.47-5.24c0.43-0.35,0.86-0.71,1.3-1.06
		c1.98,1.22,4.29,2.12,5.87,3.73c6.99,7.1,15.65,9.68,25.27,10.3c3.78,0.24,7.54,1.05,11.27,1.82c4.61,0.95,9.13,2.58,13.77,3.09
		c4.94,0.54,9.99,0.03,14.98,0.14c13.59,0.3,24,7.07,32.9,16.61c1.39,1.49,2.4,3.72,2.72,5.74c0.54,3.43,2.16,4.93,5.55,5.05
		c4.74,0.17,8.56,2.46,10.34,6.73c4.66,11.19,9.09,22.49,13.2,33.89c1.33,3.68,1.34,7.84,1.95,11.78c0.62-0.06,1.23-0.12,1.85-0.18
		c10.6-69.48,6.18-138.15-13.57-205.73c-21.18-72.47-58.07-136.06-109.91-191.27c-0.82,1.11-1.41,1.9-2.13,2.88
		c-8.96-16.43-22.39-28.01-37.18-38.76c0.36,5.19,1.51,9.91,3.29,14.37c1.22,3.05,3.53,5.65,5,8.62c2.2,4.43,0.92,6.54-3.97,5.86
		c-6.74-0.93-13.53-2.05-20.04-3.98c-20.93-6.2-29.97-26.12-21.4-46.39c0.58-1.38,1.33-2.72,1.71-4.15
		c1.15-4.27-2.39-5.72-5.06-6.81c-1.47-0.6-4.7,0.39-5.65,1.72c-3.94,5.57-5.53,11.76-4.68,18.86c0.98,8.22,0.79,16.57,1.22,24.86
		c0.15,2.8,0.22,5.73,1.11,8.33c0.7,2.05,2.26,4.77,4.03,5.33c7.2,2.25,14.6,3.9,21.98,5.52c2.24,0.49,4.65,0.21,6.98,0.28
		c4.1,0.12,5.21,2.56,5.39,6.26c0.2,3.97-2.21,4.07-5.06,4.43c-2.27,0.29-4.44,1.31-6.68,1.9c-1.41,0.38-3.27,1.28-4.22,0.73
		c-3.63-2.11-6-0.13-8.45,1.94c-2.42,2.04-4.74,4.19-7.16,6.24c-6.13,5.19-6.74,5-10.97-1.55c-0.94-1.45-2.98-2.19-4.52-3.25
		c-1.04,1.7-2.96,3.4-2.95,5.09c0.01,4.45,0.92,8.9,1.33,13.36c0.18,1.98,0.03,3.99,0.03,5.99c-0.43,0.18-0.86,0.35-1.29,0.53
		c-1.53-1.38-3.33-2.56-4.54-4.18c-1.78-2.39-3.34-4.99-4.66-7.67c-4.16-8.45-10.72-13.25-20.15-14.4
		c-4.27-0.52-8.49-1.63-12.66-2.77c-3.8-1.04-6.92-2.84-8.02-7.3c-0.36-1.47-2.61-3.04-4.28-3.49c-2.68-0.71-5.62-0.85-8.42-0.66
		c-14.1,0.95-24.38,9.27-33.73,18.64c-3.18,3.19-5.05,8.07-6.52,12.5c-1.93,5.82-2.58,12.04-4.29,17.94
		c-3.79,13.05-9.33,24.94-22.05,31.97c-7.33,4.05-10,10.48-7.86,18.62c1.05,4,2.13,8.06,3.83,11.81c3.31,7.29,7.8,8.13,14.11,2.99
		c2.13-1.74,4.1-3.69,6.5-5.87c5.48,7.71,8.59,15.54,8.94,24.37c7.96,1.55,10.67,0.04,13.51-7.07c1.78-4.46,3.08-9.46,6.02-13.05
		c4.73-5.78,4.21-10.84,0.22-16.23c-3.5-4.73-4.18-9.81-1.9-15.08c4.08-9.43,8.29-18.81,12.8-28.04c0.73-1.5,3.29-2.11,5-3.13
		c0.9,2.12,2.53,4.25,2.51,6.36c-0.03,2.72-1.31,5.45-2.18,8.13c-1.27,3.95-2.98,7.8-3.91,11.83c-1.7,7.41,0.98,12.38,8.18,14.9
		c4.04,1.41,8.39,1.97,12.62,2.82c3.58,0.72,7.25,1.12,10.77,2.05c1.4,0.37,2.53,1.8,3.78,2.75c-1.25,1.15-2.31,2.82-3.78,3.34
		c-2.47,0.87-5.18,1.16-7.82,1.4c-9.84,0.91-9.9,0.87-9.05,10.49c0.25,2.8,0.08,5.26-3.34,5.43c-5.28,0.26-6.71,3.33-6.57,7.96
		c0.2,6.52-3.08,10.96-9.08,12.82c-7.28,2.26-14.7,4.24-22.19,5.65c-10.47,1.98-15.17-1.87-16.41-12.55
		c-0.31-2.7-0.62-5.39-0.93-8.09c-0.59-0.02-1.17-0.04-1.76-0.07c-0.42,3.29-0.61,6.62-1.33,9.84c-0.85,3.81-1.15,8.37-3.46,11.11
		c-5.43,6.45-11.58,12.42-18.09,17.79c-3.54,2.92-6.85,5.04-5.95,10.31c0.22,1.27-0.44,3.32-1.42,4.08
		c-6.25,4.83-12.53,9.68-19.2,13.89C564.9,361.14,561.47,360.73,558.57,361.16z M150.73,534.04c-8.76,0.88-15.64,3.63-18.59,12.76
		c-1.64,5.1-6.04,7.35-11.43,7.19c-11.26-0.34-19.3-6.55-21.98-17.61c-3.44-14.19-0.44-27.76,4.84-40.97
		c2.65-6.64,8.02-9.64,14.9-9.82c5.49-0.14,10.99,0.18,16.48,0.35c4.02,0.13,7.23-0.76,9.96-4.32c1.59-2.06,4.87-3.56,7.56-3.9
		c8.19-1.02,17.63,5.81,21.03,13.8c2.52,5.92,5.62,11.62,8.92,17.15c0.89,1.48,3.46,1.96,5.25,2.9c0.58-1.98,1.95-4.12,1.59-5.91
		c-1.17-5.66-2.59-11.34-4.63-16.74c-4.19-11.1-3.59-15.61,5.38-23.28c5.8-4.96,12.41-8.99,18.31-13.85c2.42-2,5.18-4.9,5.63-7.73
		c2.07-12.91,9.24-23.07,16.86-32.95c1.78-2.31,5.42-3.91,8.44-4.38c3.76-0.59,6.15-2.15,7.76-5.34c1.27-2.53,2.55-5.05,3.77-7.6
		c4.08-8.49,7.4-11.04,16.06-7.5c7.41,3.03,12.72,0.57,18.77-2.1c3.19-1.4,6.53-2.47,9.84-3.56c6.29-2.08,7.4-6.03,2.52-10.59
		c-2.76-2.59-6.11-4.59-9.31-6.66c-2.97-1.92-5.02-3.88-2.51-7.61c1.74-2.58,0.57-4.12-2.01-5.41c-2.27-1.14-4.24-2.88-6.34-4.36
		c0.11-0.66,0.23-1.31,0.34-1.97c3.3,0,6.88-0.84,9.85,0.15c9.51,3.19,17.85,1.25,26.11-3.81c3.67-2.25,7.99-3.44,12.01-5.12
		c0.43,0.53,0.85,1.06,1.28,1.59c-6.08,8.03-12.17,16.06-18.25,24.09c0.16,0.44,0.32,0.88,0.47,1.32c7.01-0.88,11.59,2.73,16.26,7
		c3.19,2.92,7.31,1.75,10.18-1.61c3.59-4.2,3.39-9.27,2.44-14.25c-0.21-1.09-1.95-2.48-3.16-2.68c-3.61-0.61-4.56-2.84-4.68-6
		c-0.28-7.49-0.56-14.99-0.92-22.47c-0.37-7.73-1.32-15.12-7.26-21.17c-2.12-2.16-3.45-5.91-3.62-9.03
		c-0.42-7.45,0.14-14.95,0.16-22.43c0.01-3.15-0.34-6.3-0.53-9.45c-0.53-0.08-1.06-0.17-1.6-0.25c-0.98,1.63-1.74,3.45-2.98,4.85
		c-3.16,3.56-6.22,7.32-9.95,10.19c-1.68,1.29-5.38,1.57-7.16,0.55c-1.26-0.72-1.55-4.59-0.98-6.7c0.94-3.47,2.99-6.62,4.46-9.96
		c1.96-4.47,1-6.1-3.37-7.75c-1.79-0.67-3.67-2.29-4.56-3.98c-2.85-5.38-9-9.1-15.49-8.56c-5.97,0.49-6.09,5.8-7.68,9.81
		c-0.67,1.69-0.6,3.75-1.51,5.25c-2.94,4.9-6.07,9.7-9.36,14.38c-1.1,1.57-2.89,2.65-4.3,3.9c7.23,14.59,7.23,14.59-5.33,24.75
		c-0.39,0.31-0.77,0.64-1.17,0.93c-6.08,4.49-10.29,10.29-12.73,17.48c-1.06,3.13-2.44,6.24-4.27,8.97
		c-1.04,1.56-3.25,2.34-4.94,3.47c-0.84-1.86-2.41-3.74-2.36-5.57c0.14-4.97,0.73-9.96,1.61-14.86c0.65-3.61,0.04-6.14-2.79-8.76
		c-6.48-5.99-12.46-12.52-18.81-18.65c-4.29-4.15-5.17-8.89-4-14.58c2.24-10.91,7.81-19.71,16.11-26.91
		c8.17-7.1,16.3-14.25,24.66-21.12c4.75-3.91,9.87-7.36,14.91-10.9c1.32-0.93,2.96-1.41,5.14-2.42c-3.36,9.03-6.32,16.98-9.64,25.91
		c7.19-1.1,12.76-1.73,18.23-2.85c5.58-1.14,6.62-4.16,3.4-9.06c-1.89-2.88-3.95-5.64-6.85-9.74c6.02-0.64,10.76-0.9,15.41-1.75
		c1.73-0.32,4.1-1.63,4.68-3.09c4.47-11.11,8.61-22.35,12.76-33.58c2.08-5.62,6.36-7.17,11.45-3.94c8.8,5.59,11.96,24.13,5.33,32.08
		c-3.2,3.83-6.63,7.49-10.14,11.04c-2.87,2.9-5.49,5.88-10.67,3.66c-3.54-1.51-7.57,2.12-8.04,6.19c-0.52,4.46,2.28,4.89,5.86,5.42
		c2.74,0.4,5.87,1.81,7.75,3.79c4.46,4.68,8.53,9.78,12.23,15.08c1.64,2.35,3.02,2.49,5.35,1.84c12.27-3.41,16.37-10.21,13.55-22.65
		c-0.11-0.49-0.42-1.02-0.31-1.45c0.63-2.57,1.36-5.13,2.05-7.69c1.64,1.63,3.29,3.24,4.89,4.91c0.33,0.34,0.43,0.89,0.64,1.34
		c1.47,3.14,3.62,3.27,5.89,1.05c2.62-2.56,5.04-5.32,7.48-8.05c1.89-2.12,1.91-4.01,0.28-6.67c-1.42-2.33-1.41-5.54-2.06-8.35
		c-0.46-2.01-0.4-4.47-1.57-5.93c-3.93-4.88-3.95-5.77-0.01-11.01c3.46-4.6,5.72-10.74,3.02-15.39c-2.59-4.45-6.29-8.07-8.42-13.27
		c-1.2-2.91-2.96-5.46-2.72-8.78c0.22-3.16,0.69-6.3,0.88-9.45c0.45-7.2-3.45-11.53-10.77-11.98c-2.14-0.13-4.29-0.02-6.67-0.02
		c-0.53-4.12-3.55-4.97-6.77-3.46c-12.52,5.87-24.39,12.52-27.78,27.69c-0.42,1.87-1.47,3.76-2.72,5.24
		c-2.8,3.34-3.34,5.7,1.74,7.07c2.34,0.63,4.04,2.23,2.49,4.83c-4.67,7.81-11.17,13.78-19.28,19.17c0-1.68-0.29-2.64,0.05-3.26
		c2.77-5.03,2.69-9.54-1.16-14.23c-1.03-1.26-0.62-4.54,0.25-6.34c1.81-3.75,4.63-6.99,6.57-10.69c2.38-4.55,3.91-9.57,6.5-13.99
		c3.24-5.52,7.52-9.72,14.43-11.34c3.8-0.89,6.96-4.53,11.44-7.64c-6.09-1.92-10.8-2.96-15.14-4.88
		c-6.45-2.86-11.08-1.78-14.96,4.35c-5.65,8.94-12.69,17.13-17.37,26.52c-3.27,6.55-6.42,12.51-12.12,17.24
		c-4.81,4-9.17,8.6-13.43,13.21c-6.29,6.79-15.6,6.37-20.85-1.44c-1.12-1.67-2.05-5.55-1.48-5.91c2.29-1.45,5.78-3.3,7.77-2.47
		c4.57,1.91,8.34,2.19,13.06,0.35c3.21-1.25,4.82-2.43,4.67-5.76c-0.37-8.25,3.1-15.14,7.49-21.8c5.32-8.06,10.44-16.25,15.53-24.45
		c0.95-1.53,1.32-3.41,1.96-5.12c-0.34-0.38-0.69-0.76-1.03-1.13c-2.69,0.98-5.55,1.66-8.04,3.01c-4.82,2.62-9.39,5.7-14.15,8.43
		c-2.61,1.49-5.32,2.26-7.4-2.15c1.03-0.48,2.24-1.05,3.82-1.79c-5.53-5.34-1.39-8.27,1.32-11.61c0.88-1.08,2.11-3.27,1.73-3.72
		c-1.09-1.27-2.84-2.38-4.48-2.66c-1.48-0.25-3.42,0.3-4.7,1.17c-8.67,5.89-17.32,11.82-25.7,18.11c-1.32,0.99-1.86,3.89-1.72,5.83
		c0.48,6.68-0.65,12.9-5.85,17.28c-3.52,2.97-4.48,6.12-4.39,10.42c0.05,2.37-1.31,4.77-2.03,7.16c-2.56-0.91-5.64-1.21-7.53-2.87
		c-2.4-2.11-3.92-5.27-5.65-8.08c-1.01-1.65-1.68-3.5-2.75-5.78c-3.39,2.72-6.52,4.91-9.28,7.49
		c-39.64,37.22-73.47,78.93-99.04,127.15c-28.48,53.72-46.29,110.74-53.12,171.09c-1.43,12.63-0.72,25.56-0.27,38.33
		c0.14,3.91,3.5,7.64,3.97,11.63c1.42,11.97,7.9,21.38,14.45,30.82c1.18,1.7,3.07,2.91,4.63,4.35c0.55-0.35,1.1-0.69,1.65-1.04
		c-5.17-14.28-10.34-28.55-15.52-42.83c0.66-0.31,1.31-0.63,1.97-0.94c1.59,2.02,3.39,3.92,4.73,6.1
		c7.85,12.76,15.83,25.46,23.26,38.47c3.1,5.43,4.69,11.7,7.47,17.34c1.76,3.57,3.84,7.47,6.86,9.83
		c9.03,7.07,19.78,10.74,30.71,13.96c12.75,3.75,25.44,7.74,38.06,11.89c7.96,2.62,14.38,7.53,19.37,14.33
		c8.27,11.29,20.72,16.34,32.91,21.72c0.66,0.29,1.55,0.04,2.34,0.04c0.6-1.93,1.12-3.61,1.64-5.27
		c10.13,2.66,17.7,18.65,13.48,28.65c-1.99,4.71-5.35,8.84-7.39,13.54c-1.23,2.83-2.28,6.61-1.4,9.31c2.62,7.96,3.5,15.9,2.44,24.13
		c-0.51,3.98,0.88,6.99,3.75,9.78c4.41,4.29,9.22,8.43,12.58,13.48c9.6,14.4,22.44,24.85,37.32,33.22
		c10.45,5.88,18.6,14.11,23.14,25.36c2.54,6.31,4.35,12.91,6.55,19.35c5.16,15.08,10.42,30.12,15.52,45.22
		c1.59,4.71,3.84,9.53,3.94,14.34c0.18,8.4,2.65,15.47,7.48,22.24c2.54,3.56,5.44,8.15,5.25,12.13c-0.43,8.79,3.6,14.19,10.28,18.38
		c2.78,1.74,3.61,3.71,3.55,6.95c-0.05,2.65,0.76,5.65,2.11,7.94c6.86,11.58,15.4,21.95,24.08,32.17c6.63,7.8,16.04,8.81,25.51,9.81
		c-0.39-2-0.99-3.55-2.01-4.74c-6.93-8.05-11.18-17.1-12.38-27.83c-0.38-3.4-2.89-7.06-5.43-9.6c-2.73-2.73-4.34-5.32-3.93-9.13
		c0.27-2.48,0.23-5.03,0.78-7.44c1.46-6.39,3.83-12.74-5.18-15.93c-2.06-0.73-2.78-4.24,0.47-4.69c4.29-0.58,4.22-2.91,3.77-5.9
		c-0.42-2.74,1.07-3.36,3.33-4.44c2.59-1.23,5.81-3.61,6.37-6.05c0.91-3.96,0.72-8.65-0.59-12.49c-1.31-3.85-1-5.81,2.64-7.34
		c1.05-0.44,1.9-1.34,2.89-1.95c4-2.48,5.85-5.47,3.9-10.44c-0.66-1.68,0.43-4.3,1.25-6.27c3.8-9.16,6.85-18.41,3.83-28.43
		c-1.42-4.7,0.32-9.56,4.53-12.05c2.14-1.26,4.07-2.87,6.26-4.03c3.29-1.74,6.59-3.94,10.14-4.62c4.09-0.78,6.48-2.76,7.25-6.45
		c1.05-5.04,1.74-10.17,2.27-15.29c2.06-19.8,1.28-40.06,10.02-58.73c1.97-4.21-0.28-7.5-3.02-10.29
		c-8.26-8.4-18.07-14.82-29.75-16.2c-14.53-1.72-26.98-8.18-39.42-14.8c-2.97-1.58-5.14-5.36-6.78-8.58
		c-5.44-10.68-12.72-18.38-25.05-21.52c-14.71-3.75-27.85-10.42-31.86-27.22c-0.17-0.71-0.86-1.29-0.85-1.27
		c-4.74,1.68-8.93,3.58-13.32,4.58c-3.86,0.88-7.95,0.76-11.93,1.09c-3.88,0.32-6.95-0.72-9.69-3.89c-1.68-1.94-4.6-3-7.14-3.96
		c-2.94-1.11-6.17-1.45-9.12-2.55c-4.18-1.57-7.88-0.94-10.14,2.75c-7.45,12.17-18.43,14.87-31.55,12.56
		c-1.63-0.29-3.32-0.2-4.98-0.36c-12.09-1.11-14.59-3.66-15.48-15.64c-0.46-6.11-1.01-12.21-1.52-18.4
		c-5.88-0.5-11.36-0.8-16.8-1.46c-9.51-1.16-11.05-4.22-6.08-12.38C150.24,548.55,151.78,541.8,150.73,534.04z M455.48,29.64
		c3.79-7.04,2.97-8.42-5.29-8.72c-1.33-0.05-2.68-0.03-3.99,0.17c-22.03,3.34-43.99,7.25-66.1,9.89
		c-14.96,1.79-23.79,9.51-28.38,23.29c-1.32,3.94-3.27,7.67-5.32,12.38c4.47-0.47,7.68-0.8,12.21-1.28
		c-3.95,3.55-6.99,6.29-10.03,9.03c-1.49,1.34-3.29,2.45-4.4,4.05c-1.9,2.74-5.25,6.43-4.53,8.54c0.96,2.81,5.13,4.64,8.12,6.58
		c2.31,1.5,5.24,2.14,7.33,3.86c3.32,2.73,6.03,2.24,8.74-0.53c1.04-1.06,1.75-2.45,2.78-3.51c10.96-11.25,21.27-23.29,33.21-33.39
		c6.99-5.92,16.59-8.75,25.04-12.93c0.5-0.25,1.16-0.18,1.93-0.28c-2.19,5.14-3.95,10.07-6.42,14.62c-0.97,1.79-3.37,3.19-5.42,3.95
		c-3.89,1.43-7.96,2.43-12.02,3.3c-5.35,1.15-8.19,4.08-9.21,9.64c-0.66,3.61-2.25,7.49-4.59,10.28c-4.88,5.8-3.82,12.15-4.04,18.91
		c3.85-0.56,6.8-1.02,9.75-1.4c6.84-0.88,12.68,3.61,12.97,10.56c0.58,13.75-0.51,27.27-6.37,40.06c-1.79,3.9-3.54,8.04-4.07,12.23
		c-0.43,3.38-0.05,7.75,1.83,10.35c2.95,4.09,1.88,6.46-1.09,9.35c-2.62,2.55-5.69,4.95-7.43,8.05c-3.03,5.39-7.2,11.23-7.32,16.97
		c-0.29,13.22,1.14,26.53,2.71,39.71c0.82,6.91,5.82,11.87,11.58,15.57c1.08,0.69,4.01,0.56,4.53-0.23
		c5.95-8.99,11.6-18.18,17.32-27.32c0.08-0.13,0.05-0.34,0.13-0.48c2.01-3.15,3.52-6.82,6.16-9.3c3.47-3.27,7.72-5.75,11.8-8.31
		c8.02-5.01,16.13-9.86,24.25-14.7c1.11-0.66,2.47-1.18,3.74-1.23c14.66-0.51,25.11-8.76,34.64-18.7
		c6.86-7.15,10.74-14.52,4.42-24.44c-3.51-5.5-1.01-13.35,3.9-15.01c4.75-1.6,7.79-4.82,9.06-9.24c3.34-11.58,7.09-23.16,9.02-35
		c2.2-13.45,6.93-25.63,14.03-37.02c1.3-2.09,4.05-3.24,5.77-5.14c2.58-2.86,5.58-5.69,7.06-9.11c1.75-4.03-0.05-5.76-4.6-5.75
		c-3.66,0.01-7.33,0.28-10.97,0.04c-1.49-0.1-2.92-1.22-4.38-1.87c0.73-1.56,1.15-3.4,2.25-4.63c5.7-6.38,5.76-9.8-0.78-15.27
		c-2.47-2.06-5.6-3.83-8.71-4.54c-11.23-2.57-22.42-3.23-32.86,3.25c-2.25,1.39-4.71,2.64-7.25,3.29c-2.69,0.69-5.59,0.6-8.39,0.85
		c-0.1-0.46-0.19-0.91-0.29-1.37c-2.05,2.85-4.1,5.7-6.95,9.64C468.77,24.73,460.24,32.81,455.48,29.64z M554.38,352.31
		c0.62,0.26,1.25,0.52,1.87,0.78c2.6-2.12,5.07-4.44,7.84-6.31c4.04-2.73,8-6.14,12.52-7.47c6.82-2,8.18-2.97,6.35-10.14
		c-0.6-2.36-1.74-4.65-3-6.75c-3.84-6.4-8-12.61-11.7-19.08c-1.03-1.81-1.02-4.26-1.3-6.44c-0.38-2.98,0.1-6.25-1-8.9
		c-2.07-4.99-6.18-5.33-9.75-1.35c-5.6,6.25-5.5,15.12,0.28,21.24c1.6,1.69,4,3.01,4.77,4.99c0.89,2.28,1.54,6.1,0.3,7.54
		c-5.67,6.57-6.52,14.39-7.14,22.37C554.18,345.94,554.38,349.13,554.38,352.31z M820.89,701.28c-0.41-0.16-0.82-0.32-1.23-0.48
		c-1.71,2.53-3.35,5.11-5.16,7.58c-4.42,6.02-7.86,13.45-13.65,17.57c-6.59,4.69-9.33,10.74-12.24,17.38
		c-1.86,4.25-4.24,8.27-6.29,12.44c-0.64,1.31-1.4,2.78-1.38,4.16c0.04,3.56,6.63,9.58,11.05,10.5c5.07,1.05,7.96-1.51,9.52-5.9
		c5.94-16.72,11.95-33.42,17.55-50.26C820.41,710.18,820.31,705.62,820.89,701.28z M292.18,65.42c-1.55,0.07-2.4-0.08-3.1,0.17
		c-4.98,1.81-8.75,5.24-15.19,5.23c-5.94-0.01-12.17,5.43-17.69,9.29c-1.84,1.29-2.82,5.31-2.39,7.77c0.24,1.38,4.13,2.93,6.41,2.98
		c4.11,0.09,8.26-0.77,12.36-1.43c8.14-1.31,16.19-2.87,19.45-12.1c0.05-0.15,0.58-0.13,1.99-0.42c1.87,9.81,5.36,19.12,13.78,27.49
		c0.86-3.71,2.16-6.74,2.12-9.74c-0.07-5.8,1.49-10.78,5.2-15.19c1.13-1.35,1.96-2.95,3.26-4.94c-7-2.78-13.08-6.18-20.27-1.72
		c-2.24,1.39-5.37,1.37-9.18,2.25C290.26,71.11,291.09,68.65,292.18,65.42z M633.16,96.26c1.51,0.98,2.25,1.73,3.14,2
		c2.52,0.75,5.1,1.29,7.65,1.92c-0.54-2.38-0.59-5.02-1.69-7.11c-6.33-12.02-8.25-10.2,3.97-19.05c4.41-3.19,4.11-6.03-0.3-9.25
		c-6.79-4.95-14.86,0-19.95,6.22c-2.6,3.17-4.77,5.43-9.12,5.78c-2.14,0.17-5.73,2.31-5.88,3.82c-0.65,6.85,1.61,13.3,6.61,18.05
		c1.95,1.85,3.15,2.97,3.24,5.81c0.05,1.5,2.2,3.6,3.83,4.16c1.01,0.35,3.37-1.37,4.18-2.73
		C630.52,103.09,631.56,99.92,633.16,96.26z M525.75,220.19c-10.92-0.96-21.33-2.01-31.76-2.64c-1.3-0.08-3.65,1.82-3.96,3.17
		c-3.06,13.08,3.84,22.48,16.87,23.39c0.33,0.02,0.67,0.05,1,0.05c9.53,0.16,16.72-5.66,17.8-14.71
		C526.06,226.38,525.75,223.2,525.75,220.19z M333.23,87.77c-0.5-1.12-0.98-4.31-2.38-4.79c-1.59-0.54-4.55,0.84-5.95,2.3
		c-2.83,2.97-5.34,6.37-7.34,9.95c-2.09,3.74-1.8,7.87,1.14,11.2c5.04,5.72,11.5,8.53,19.12,7.72c5.09-0.55,9.03-3.2,11.04-8.2
		c2.54-6.35,1.48-8.37-5.15-9.62c-1.8-0.34-3.6-0.72-5.41-0.89C334.29,95.06,332,93.37,333.23,87.77z M216,542.09
		c-0.76-0.84-1.34-1.95-2.24-2.39c-10.14-5-20.13-10.39-30.57-14.66c-6.86-2.8-13.32,0.43-19.22,4.53c2.06,0.97,4.11,1.65,6.14,1.62
		c9.66-0.15,17.81,2.93,24.68,9.94C199.28,545.69,210.26,545.95,216,542.09z M550.03,308c-5.38,2.23-9.7,3.78-13.75,5.84
		c-1.19,0.61-2.31,2.64-2.33,4.04c-0.08,4.62-0.13,9.33,0.7,13.85c1.15,6.21,4.82,7.25,9.41,2.8
		C551.3,327.5,550.82,318.58,550.03,308z M332.21,64.51c4.83,3.02,13.95-0.92,14.42-5.9c0.08-0.88-0.25-2.27-0.88-2.68
		c-4.15-2.71-4.85-6.76-5.08-11.23c-0.04-0.74-2.07-2.07-3.03-1.95c-9.2,1.1-16.03,12.62-12.76,22.19
		c4.37-3.74,8.58-7.33,12.79-10.93c0.38,0.39,0.76,0.78,1.14,1.17C336.62,58.29,334.42,61.4,332.21,64.51z M245.28,553.45
		c-5.98-12.48-28.85-10.9-32.51,0.18C223.69,558.24,234.36,554.1,245.28,553.45z M210.56,524.23c0.72-6.16-1.41-9.41-6.28-10.34
		C206.54,517.61,208.55,520.92,210.56,524.23z M259.98,553.98c-3.08-4.63-5.91-3.98-9.42,1.76
		C253.7,555.15,256.58,554.61,259.98,553.98z M202.84,557.53c-0.12-0.98-0.25-1.95-0.37-2.93c-2.17,0.28-4.34,0.55-6.51,0.83
		c0.19,1.02,0.43,2.92,0.55,2.92C198.62,558.21,200.73,557.85,202.84,557.53z M405.1,935.66c-2.9,0.68-5.45,1.27-8,1.87
		c0.25,0.85,0.5,1.71,0.75,2.56c2.42-0.89,4.83-1.77,7.24-2.68C405.15,937.39,405.1,937.11,405.1,935.66z"/>
	<path d="M682.65,410.02c0.85-0.96,1.23-1.5,1.72-1.92c5.82-4.92,8.42-4.31,10.39,3c1.96,7.27,5.98,12.77,12.02,17.18
		c8.16,5.98,16.82,7.59,26.38,4.16c4.38-1.57,8.76-3.11,13.13-4.67c3.74,8.77,1,18.71-6.28,24.18c-10.34,7.77-21.65,9.48-34.03,6.22
		c-8.84-2.33-17.75-4.43-26.69-6.32c-6.9-1.46-8.31,0.1-8.08,7.04c0.09,2.82-0.66,5.68-1.02,8.51c-2.91-0.92-5.89-1.65-8.7-2.82
		c-1.65-0.69-3.16-1.89-4.48-3.14c-6.4-6.04-13.67-10.03-22.93-9.75c-0.39-5.92-0.77-11.52-1.12-17.11
		c-0.26-4.07-2.07-6.46-6.47-6.51c-19.44-0.24-39.05-1.77-56.87,8.78c-2.68,1.59-5.81,2.44-8.77,3.53c-0.73,0.27-1.6,0.14-2.78-0.64
		c2.05-1.14,4.07-2.34,6.16-3.4c7.09-3.6,11.72-8.91,15.12-16.41c3.13-6.91,8.59-12.86,13.56-18.79c1.44-1.72,4.68-2.41,7.19-2.65
		c3.95-0.38,7.98,0.08,11.98,0.03c1.46-0.02,3.58,0.07,4.25-0.78c3.29-4.22,6.83-2.52,10.17-0.64c5.35,3.03,10.49,6.43,15.74,9.64
		c3.52,2.15,4.44,5.59,3.46,9.1c-0.56,2-2.51,4.1-4.4,5.12c-4.24,2.3-5.73,4.68-4.01,8.09c1.85,3.66,7.37,5.49,10.69,3.16
		c5.61-3.93,9.52-9.22,11.43-15.89c1.3-4.55,2.6-5.24,5.97-2.11c3.87,3.58,7.43,7.59,10.63,11.8c2.82,3.72,14.64,5.18,17.5,1.55
		c2.36-2.98,1.59-6.03-0.95-8.52C689.46,416.03,686.19,413.23,682.65,410.02z M623.74,410.38c-0.77-6.4-2.79-10.49-5.58-10.08
		c-2.44,0.35-5.61,6.33-4.15,9.72c1.15,2.68,4.1,4.58,6.26,6.83C621.42,414.69,622.58,412.54,623.74,410.38z"/>
	<path d="M748.03,476.19c3.55,4.69,6.72,8.57,9.51,12.7c1.93,2.87,3.27,6.13,4.99,9.15c7.62,13.4,15.51,26.66,22.8,40.24
		c2.3,4.28,3.28,9.33,4.4,14.14c0.34,1.48-0.85,3.31-1.34,4.98c-1.81-0.53-4.1-0.55-5.34-1.71c-3.01-2.8-6.1-5.81-8.14-9.32
		c-3.74-6.42-6.66-13.33-10.11-19.93c-3.76-7.19-7.79-14.23-11.6-21.39c-2.72-5.11-5.62-10.16-7.79-15.5
		C743.8,485.64,744.04,481.43,748.03,476.19z"/>
	<path d="M755.42,397.63c-5.81-1.85-11.74-3.42-17.41-5.63c-4.78-1.86-9.11-2.5-13.8,0.25c-2.54,1.48-5.53,2.46-8.44,2.91
		c-1.84,0.29-4.92-0.21-5.61-1.41c-1.14-1.99-1.72-5.22-0.87-7.23c1.24-2.94,3.77-5.43,6.09-7.78c2.65-2.69,5.18-3.32,8.39,0.1
		c4.63,4.92,15.47,2.18,17.57-4.2c0.43-1.32-0.29-3.14-0.82-4.61c-0.38-1.05-1.42-1.83-2.02-2.82c-1.47-2.43-2.51-5.29,0.5-6.85
		c0.83-0.43,4.46,2.08,4.91,3.75c2.3,8.58,8.25,13.37,15.82,16.8c4.06,1.83,8.14,3.66,6.95,9.35
		C765.78,394.63,762.03,396.81,755.42,397.63z"/>
	<path d="M716.99,230.76c-7.47-2.32-12.13-11.23-10.45-17.22c0.43-1.54,1.87-3.37,3.3-3.93c4.14-1.63,8.46-2.98,12.82-3.89
		c3.63-0.76,5.03,1.17,3.59,4.66c-0.88,2.14-1.73,4.4-3.12,6.19c-0.72,0.93-2.56,1.15-3.95,1.39c-1.42,0.25-3.75-0.38-4.18,0.3
		c-0.81,1.31-0.98,3.37-0.65,4.96C714.92,225.82,716.09,228.26,716.99,230.76z"/>
	<path d="M637.49,379.52c9.48,4.07,17.94,7.96,23.73,16.12C654.73,398.79,639.84,388.97,637.49,379.52z"/>
	<path d="M194.78,387.41c-0.68-5.46-1.39-9.92-1.65-14.4c-0.05-0.81,1.92-2.56,2.71-2.43c1.87,0.32,4.42,1.04,5.2,2.43
		C202.93,376.4,199.95,383.78,194.78,387.41z"/>
	<path d="M141.64,172.86c0.41-0.55,1.7-2.3,3-4.05c2.33,2.81,4.66,5.62,6.99,8.43c-1.64,0.98-3.21,2.57-4.95,2.8
		C142.83,180.55,141.68,179.07,141.64,172.86z"/>
	<path d="M175.43,383.8c2.27,5.68,0.75,11.79-3.7,15.8C169.52,395.44,170.93,389,175.43,383.8z"/>
	<path d="M187.02,356.08c-0.33,6.17-2.85,7.72-8.68,5.51C181.41,359.64,183.91,358.05,187.02,356.08z"/>
	<path d="M372.29,64.26c-4.95-1.8-5.87-3.94-4.47-6.77c0.43-0.87,1.94-1.21,2.95-1.79C371.21,58.16,371.64,60.62,372.29,64.26z"/>
</g>
</svg>
