<?xml version="1.0" encoding="utf-8"?>
<!-- Generator: Adobe Illustrator 23.0.2, SVG Export Plug-In . SVG Version: 6.00 Build 0)  -->
<svg version="1.1" id="Layer_0_xA0_Imagem_1_" xmlns="http://www.w3.org/2000/svg" xmlns:xlink="http://www.w3.org/1999/xlink"
	 x="0px" y="0px" viewBox="0 0 111 110" style="enable-background:new 0 0 111 110;" xml:space="preserve">
<g>
	<path d="M82.3,76.3c-5.8,0-11.6,0-17.4,0c-2.8,0-5.5-0.4-7.1-3.1c-2.8-4.9-0.4-23.7,3.9-27.5c25-21.9,17.3-20.5,42.4,0.8
		c4.1,3.5,5.6,22.4,2.8,26.9c-1.7,2.8-4.4,2.9-7.2,3C93.9,76.3,88.1,76.3,82.3,76.3z M82.8,73.8c3.8-3.9,7-7.7,7.1-13.2
		c0.1-4.7-2.7-7.6-7.1-7.8c-4.9-0.2-8.4,2.9-8.1,7.8C75,65.8,77.6,70.2,82.8,73.8z"/>
	<path d="M3.2,53c0-4.3,0-8.6,0-12.8c0-5.4,1.4-10.1,7.8-10.2c6.3-0.1,8.2,4.3,8.2,9.8c0.1,4.6,0.3,9.2,0,13.8
		c-0.4,5.7,2.1,7.7,7.6,7.3c4.3-0.3,8.6-0.2,12.8,0.1c4.6,0.4,7.5,3.3,7.5,7.7c0,4.5-3.1,7.3-7.7,7.4c-9.5,0.2-19,0.2-28.4,0
		c-5.3-0.1-7.5-3.6-7.7-8.5C3.1,62.8,3.2,57.9,3.2,53C3.2,53,3.2,53,3.2,53z"/>
</g>
</svg>
